<svg xmlns="http://www.w3.org/2000/svg">
<defs>
<font id="SVN-Reliant" horiz-adv-x="1701" >
  <font-face 
    font-family="SVN-Reliant"
    font-weight="400"
    font-stretch="normal"
    units-per-em="2048"
    panose-1="2 4 6 3 5 5 6 2 2 4"
    ascent="1638"
    descent="-410"
    x-height="669"
    cap-height="1349"
    bbox="-233 -570 5501 2276"
    underline-thickness="109"
    underline-position="-250"
    unicode-range="U+0020-2122"
  />
<missing-glyph horiz-adv-x="5610" 
d="M3238 2276h13q40 -11 40 -57q0 -14 -35 -64h-31q0 27 31 60l2 11q-5 15 -11 17h-11q-8 0 -10 -21h-35q9 54 47 54zM2685 2252l33 -33q0 -18 -45 -34h-22l-65 14l-12 -14l-32 27q12 33 49 33h11l47 -13h2q11 0 34 20zM958 2212h159v-67h-105v-82h100v-66h-100v-144l-6 -5
h-55v359zM1723 2212h49l6 -5v-87h33v-57h-33v-210l-6 -5h-56v215h-27v57h27v87zM2242 2212h47l5 -5v-105h3q25 27 59 27h3q64 0 91 -80l3 -41v-160h-57v129q0 88 -48 88h-8q-46 0 -46 -97v-120h-59v359zM3694 2204h59v-366h-51l-6 6v12l4 2l-4 17q-31 -45 -86 -45
q-75 0 -112 101l-5 45v3q0 105 102 138l26 3q39 0 70 -34h3v118zM2726 2155h41l5 -8v-53h-50v-246h-53v26q-26 -36 -67 -36q-100 16 -100 107v175h58v-114q0 -90 30 -96l18 -6h8q29 0 42 38l4 30v148h60v27zM3379 2145v-59h-36v-248h-52v28h-2q-17 -36 -63 -36q-76 0 -96 86
l-4 34v162h59v-133q0 -57 21 -76l23 -9h9q48 0 48 77v141h30q3 0 3 30l3 3h57zM1281 2129q75 0 116 -86q9 -20 12 -59q0 -98 -100 -142l-36 -4q-70 0 -112 81q-14 24 -14 60v10q0 105 113 140h21zM1562 2129h3q83 0 93 -112v-169h-56v133q0 84 -47 84h-6q-48 0 -48 -84v-133
h-59v272h52v-23q34 32 68 32zM2069 2129h7q81 0 119 -99h-68q-17 35 -47 35h-18q-58 -17 -58 -68l-5 -16q13 -77 68 -77h9q25 0 53 29h45l2 3h4l2 -3l2 3l4 -3l2 3l2 -6q-37 -92 -123 -92q-84 0 -124 104l-4 42v3q0 95 88 133q15 9 40 9zM3005 2120h2q56 0 79 -67v-15h-59
q0 18 -17 18h-5q-16 0 -20 -15v-14q0 -10 74 -39q34 -22 34 -66q0 -65 -68 -90l-25 -2q-85 13 -85 92h61q0 -21 29 -28h5q20 0 26 25q0 24 -75 49q-39 31 -39 66q0 75 83 86zM4187 2120q62 0 86 -71q8 -19 8 -70v-141h-58v125q0 93 -44 93h-14q-36 0 -43 -60v-158h-58v6h-3

<glyph glyph-name=".notdef" horiz-adv-x="5610" 
d="M3238 2276h13q40 -11 40 -57q0 -14 -35 -64h-31q0 27 31 60l2 11q-5 15 -11 17h-11q-8 0 -10 -21h-35q9 54 47 54zM2685 2252l33 -33q0 -18 -45 -34h-22l-65 14l-12 -14l-32 27q12 33 49 33h11l47 -13h2q11 0 34 20zM958 2212h159v-67h-105v-82h100v-66h-100v-144l-6 -5
h-55v359zM1723 2212h49l6 -5v-87h33v-57h-33v-210l-6 -5h-56v215h-27v57h27v87zM2242 2212h47l5 -5v-105h3q25 27 59 27h3q64 0 91 -80l3 -41v-160h-57v129q0 88 -48 88h-8q-46 0 -46 -97v-120h-59v359zM3694 2204h59v-366h-51l-6 6v12l4 2l-4 17q-31 -45 -86 -45
q-75 0 -112 101l-5 45v3q0 105 102 138l26 3q39 0 70 -34h3v118zM2726 2155h41l5 -8v-53h-50v-246h-53v26q-26 -36 -67 -36q-100 16 -100 107v175h58v-114q0 -90 30 -96l18 -6h8q29 0 42 38l4 30v148h60v27zM3379 2145v-59h-36v-248h-52v28h-2q-17 -36 -63 -36q-76 0 -96 86
l-4 34v162h59v-133q0 -57 21 -76l23 -9h9q48 0 48 77v141h30q3 0 3 30l3 3h57zM1281 2129q75 0 116 -86q9 -20 12 -59q0 -98 -100 -142l-36 -4q-70 0 -112 81q-14 24 -14 60v10q0 105 113 140h21zM1562 2129h3q83 0 93 -112v-169h-56v133q0 84 -47 84h-6q-48 0 -48 -84v-133
h-59v272h52v-23q34 32 68 32zM2069 2129h7q81 0 119 -99h-68q-17 35 -47 35h-18q-58 -17 -58 -68l-5 -16q13 -77 68 -77h9q25 0 53 29h45l2 3h4l2 -3l2 3l4 -3l2 3l2 -6q-37 -92 -123 -92q-84 0 -124 104l-4 42v3q0 95 88 133q15 9 40 9zM3005 2120h2q56 0 79 -67v-15h-59
q0 18 -17 18h-5q-16 0 -20 -15v-14q0 -10 74 -39q34 -22 34 -66q0 -65 -68 -90l-25 -2q-85 13 -85 92h61q0 -21 29 -28h5q20 0 26 25q0 24 -75 49q-39 31 -39 66q0 75 83 86zM4187 2120q62 0 86 -71q8 -19 8 -70v-141h-58v125q0 93 -44 93h-14q-36 0 -43 -60v-158h-58v6h-3
l3 2v266h52v-23q28 31 71 31zM4443 2120h6q44 0 76 -45v21l-4 3l4 13h53v-232q0 -107 -96 -148l-36 -3h-9q-76 0 -115 89h66q26 -24 49 -26h16q24 0 48 25q15 14 24 58h-4q-36 -45 -81 -45q-63 0 -106 79q-12 20 -17 70q0 96 97 138zM3795 2112h59v-152q8 -66 45 -66h7
q52 0 52 104v114h56v-274h-50l-5 12h5l-5 3v5l5 3v3h-6q0 -26 -63 -34h-3q-67 0 -94 83l-3 96v103zM1205 1981q13 -77 70 -77h8q66 14 66 73v15q-15 73 -66 73h-6q-63 0 -72 -84zM3549 1976q15 -82 67 -82h7q65 0 73 85q0 53 -57 77h-25q-39 0 -61 -64zM4378 1976
q9 -82 73 -82h5q65 15 65 82q0 66 -65 80h-16q-62 -18 -62 -69v-11zM3880 1804h60v-65h-60v65zM1173 1560q49 -12 49 -53v-5q0 -19 -36 -68h-32q0 28 35 65v8q0 12 -8 15h-14q-11 -3 -11 -20h-30v7q0 34 36 48zM3727 1490q103 0 153 -110h-66q-41 47 -89 47q-60 0 -97 -76
q-12 -24 -12 -52q0 -86 93 -123l18 -1q41 0 84 45h67q-48 -108 -153 -108q-103 0 -156 123q-11 35 -11 70q0 107 100 169q32 16 69 16zM4078 1490q64 0 115 -53q52 -56 52 -127v-21q0 -100 -102 -163q-37 -14 -70 -14q-100 0 -154 112q-15 36 -15 67v19q0 111 108 168
q35 12 66 12zM2517 1488h2l52 -12h4q13 0 28 12l20 -40q-20 -21 -38 -21h-4l-60 10l-22 -7l-23 40q21 18 41 18zM797 1485h22q130 0 142 -30q28 -28 28 -69q-11 -63 -33 -63v-5q53 -26 53 -75v-19q0 -71 -77 -98l-61 -6h-74v365zM2837 1485h60v-242q7 -68 50 -68q33 0 50 45
l3 31v227l4 7h50l5 -7v-189q0 -133 -44 -150q-26 -27 -71 -27q-61 0 -101 84l-6 58v231zM3122 1485h65q4 0 135 -263h6v263h56l4 -7v-358h-66q-31 53 -137 264h-3v-264h-60v365zM3451 1485h62v-365h-62v365zM4296 1485h8q173 0 195 -45q25 -12 52 -84l5 -38v-13l2 -3
q0 -104 -91 -165q-39 -17 -110 -17h-61v365zM4609 1485h171v-65h-115v-86h112v-63h-112v-82l4 -6h111v-63h-175v358zM3967 1308v-11q0 -84 87 -121l21 -1q76 0 107 96l3 23v16q0 68 -67 106q-13 8 -43 11q-73 0 -106 -93zM856 1420v-77h11q61 0 61 32l3 15q-12 30 -33 30
h-42zM4355 1420v-231l2 -3v-3q116 0 136 85l2 16v34q0 36 -36 76q-28 26 -87 26h-17zM1158 1402h6q43 0 79 -46v38h55v-274h-55v35q-40 -43 -89 -43q-84 0 -113 108l-4 39q0 98 94 140zM1462 1402h4q82 0 92 -113v-169h-56v143q0 73 -48 73h-11q-37 0 -42 -68v-148h-59v274
h54v-25q30 33 66 33zM1717 1402h6q51 0 80 -46v38h51v-246q0 -106 -116 -139h-17q-83 0 -120 90h65q30 -28 49 -28h16q57 0 72 86q-38 -45 -86 -45q-67 0 -111 89l-8 48v19q0 87 94 131zM2128 1402h2q48 0 69 -43h2q34 43 76 43h5q62 0 87 -62q10 -26 10 -49v-171h-58v153
q0 50 -25 61l-14 2h-17q-37 0 -40 -71v-145h-58v151q0 65 -48 65h-8q-37 0 -41 -63v-153h-60v274h56v-25h2q6 28 60 33zM2540 1402q53 0 83 -48v40h53v-274h-53v35q-40 -43 -86 -43q-83 0 -114 102l-6 45q0 99 95 140zM1096 1243q0 -53 68 -68h4q52 0 70 51l3 17v25
q-14 68 -64 68h-15q-45 0 -66 -63v-30zM1654 1254q0 -52 49 -74l20 -5h6q52 0 71 64v26q-14 71 -67 71h-12q-56 0 -67 -82zM2476 1259v-16q18 -68 64 -68h15q66 14 66 71v13q0 50 -42 72l-20 5h-12q-71 -8 -71 -77zM856 1279v-90q0 -6 9 -6q85 0 85 50q0 38 -52 46h-42z
M3302 839l26 -32l-57 -63q-19 15 -30 30zM1697 810l94 -62q0 -14 -24 -44l-96 58q20 46 26 48zM3172 771h42l63 -65h-62l-24 29l-25 -29h-59q59 65 65 65zM3809 771h44l63 -65h-61l-27 29h-1q0 -6 -20 -29h-61zM692 762h57q10 -4 53 -152l39 -123q8 9 36 113l55 162h60v-2
l-125 -362h-48zM1291 762h55v-58h-55v58zM1508 762h50l6 -5v-359h-56v364zM2579 762h49l4 -5v-88h37v-57h-37v-214h-57v214h-30v57h30v88zM2699 762h58v-109h2q26 26 61 26h3q64 0 90 -78l3 -44v-159h-58v129q0 89 -44 89h-10q-47 0 -47 -97v-121h-58v364zM2965 762h58v-58
h-58v58zM3370 762h49l6 -5v-88h33v-57h-33v-214h-59v214h-30v57h30v88zM3600 762h58v-364h-58v364zM4405 762h56v-364h-56v364zM4804 762h56v-58h-56v58zM1731 679h5q93 0 122 -115l4 -25v-10q0 -93 -95 -135l-38 -6q-85 0 -123 108l-5 37q0 107 104 144zM2016 679h4
q59 0 88 -67q7 -28 7 -90v-124h-60v161q-9 57 -42 57h-9q-44 0 -48 -64v-154h-60v271h55v-24q29 34 65 34zM2277 679h5q50 0 70 -42h3v32h55v-228q0 -113 -99 -151l-32 -3h-5q-81 0 -118 90h58l40 -23l18 -3h16q54 0 67 81q-37 -44 -81 -44q-69 0 -109 85q-13 26 -14 66
q0 96 96 138zM3189 679h2q92 0 125 -117l1 -26l-1 -30h-192q17 -52 52 -52l13 -3q33 0 55 25h65v-3q-40 -85 -122 -85q-85 0 -122 108l-1 33v8q0 54 35 100q37 42 90 42zM3816 679h6q47 0 78 -42h2v32h53v-271h-53v34h-2q-38 -44 -86 -44q-78 0 -112 99l-6 42v13
q0 97 94 135zM4131 679h7q98 0 120 -142l-2 -1v-17q0 -73 -74 -118q-23 -13 -51 -13q-38 0 -72 37v-111l-5 -5h-54v360h54v-30q34 40 77 40zM4620 679q49 0 83 -42v32h56v-271h-56v34q-38 -44 -86 -44q-102 0 -118 148q0 94 81 133q15 10 40 10zM1027 669h55v-150
q4 -68 47 -68h6q48 0 48 98v120h58v-271h-52v27h-6q0 -26 -62 -37h-3q-63 0 -91 76q-4 40 -4 111v89zM1291 669h55v-271h-55v271zM2965 669h58v-271h-58v271zM4804 669h56v-271h-56v271zM1661 542v-15q14 -76 66 -76h4q67 0 74 86q-15 79 -67 79h-11q-66 -18 -66 -74z
M2211 527q16 -76 66 -76h13q52 0 65 85v1q-15 79 -65 79h-16q-44 0 -63 -64v-25zM3122 562h136v2q-18 52 -67 52h-6q-40 0 -63 -54zM3755 529q14 -78 67 -78h5q60 0 73 71v14q-10 80 -63 80h-18q-62 -15 -62 -72zM4054 533q13 -82 68 -82h3q56 0 73 68v23q0 49 -55 74h-25
q-51 0 -64 -80v-3zM4558 527q10 -76 74 -76q48 0 67 55l2 16v17q0 62 -57 77h-21q-45 0 -65 -67v-22zM3802 356h57v-57h-57v57zM4605 356h56v-57h-56v57zM3042 148h5q39 0 47 -56v-2q0 -18 -26 -44l-12 -20h-31q0 26 31 61l3 3v2q-3 21 -9 21h-12q-9 0 -10 -21h-32
q6 56 46 56zM1721 130l58 -69l-29 -18l-58 56zM392 87h5q83 -52 94 -65l-23 -43q-97 56 -97 67zM3884 87l96 -63l-20 -45q-11 0 -101 64q16 38 25 44zM5096 84l21 -46l-102 -59l-22 45l103 63v-3zM1340 58h58v-20l5 -6h17v-39h-17l-5 -8v-310h-53v36q-37 -46 -91 -46
q-79 0 -113 117l-3 31q0 113 112 143h17q37 0 73 -35v64l-7 8h-47v39h54v26zM1647 49h45l62 -68h-58l-26 31l-26 -31h-59zM2939 49h38q12 0 70 -68h-60l-26 31q-22 -23 -22 -31h-64v4zM53 43h180v-69h-63v-299h-56l-4 7v271l2 3v2l-2 4l2 3l-2 3l2 3l-2 3h-61v61zM778 43h53
v-85l2 -2l-2 -3v-3h2l-2 -3v-4l2 -2v-2l-2 -4l2 -4h4q17 25 56 25h3q58 0 86 -63q7 -20 7 -46v-172h-57v143q0 75 -45 75h-10q-46 0 -46 -96v-122h-59v360zM1443 43h53l6 -8v-56h-59v64zM2211 43h59v-222l77 129h70l-88 -132l100 -140v-3h-77q-12 26 -82 129v-129h-59v368z
M2527 43v-112q27 25 61 25q62 0 88 -61q11 -22 11 -85v-135h-61v149q0 69 -45 69h-12q-35 0 -42 -61v-157h-58v351l-1 3v3l1 3l-1 3l1 5h58zM2735 43h58v-64h-58v64zM3503 43h58v-122q29 35 75 35h3q83 0 118 -104l6 -39q0 -84 -72 -135q-33 -13 -55 -13q-46 0 -79 46v-36
h-54v368zM4759 43h57v-112h2q27 25 60 25h4q67 0 91 -82l2 -44v-155h-57v124q0 92 -36 92l-11 2h-14q-41 0 -41 -89v-129h-57v368zM365 -44h5v-63h-7q-46 0 -46 -63v-155h-59v275h53v-24q20 30 54 30zM629 -44q79 0 94 -95v-186h-57v152q-6 66 -45 66h-6q-52 0 -52 -94v-124
h-56v275h54v-24q28 30 68 30zM1674 -44q80 0 117 -104l7 -42q-3 -28 -10 -28h-187q19 -51 69 -51q27 0 53 23h63q-36 -89 -120 -89q-91 0 -127 117v42q0 91 100 129zM2958 -44h5q86 0 119 -106l4 -29v-24l-4 -15h-189q20 -51 59 -51h13q24 0 47 23h66q-38 -89 -117 -89
q-93 0 -129 114l-2 34q0 103 102 140zM3244 -44h6q60 0 86 -65q7 -28 7 -92v-124h-60v155q0 53 -39 63h-12q-43 0 -47 -63v-155h-61v275h57v-24q27 30 63 30zM3904 -44h8q44 0 78 -42h2v36h53v-275h-53v36h-2q-39 -46 -88 -46q-79 0 -112 100l-4 42v14q0 92 85 129
q12 6 33 6zM4208 -44h4q70 0 92 -86l3 -93v-102h-59v155q0 53 -42 63h-11q-41 0 -46 -56v-162h-61v275h55v-24q28 30 65 30zM4602 -44h1q81 0 114 -104l4 -42q0 -98 -92 -141l-27 -4q-46 0 -77 39v-119h-58v365h52v-33q34 39 83 39zM5247 -44h5q40 0 71 -39q29 39 77 39h6
q63 0 88 -72l7 -57v-152h-59v138q0 80 -42 80h-8q-40 0 -46 -54v-157l-5 -7h-55v157q0 46 -34 61h-19q-43 0 -43 -86v-132h-57v275h52v-24q24 30 62 30zM400 -50h53l6 -7v-261l-6 -7h-53v275zM1443 -50h59v-275h-59v275zM1834 -50h59v-153q5 -66 47 -66h4q51 0 51 90v129h57
v-275h-52v28h-5q-13 -38 -65 -38q-59 0 -90 72q-6 14 -6 36v177zM2735 -50h58v-275h-58v275zM5026 -50h56v-275h-56v275zM1199 -187q0 -60 55 -82h15q60 0 73 73v12q0 57 -60 77h-18q-42 0 -65 -63v-17zM1601 -158h135q-20 51 -59 51h-7q-48 0 -69 -48v-3zM2893 -158h135
q-23 51 -60 51h-7q-51 0 -68 -51zM3558 -176v-11q11 -82 67 -82h5q72 9 72 79v6q0 49 -42 72l-21 5h-15q-66 -17 -66 -69zM3843 -193q15 -76 69 -76h11q46 0 67 66v16q-10 80 -64 80h-18q-53 0 -65 -80v-6zM4521 -176v-25q0 -51 66 -68h9q58 0 69 85q-15 77 -63 77h-18
q-63 -20 -63 -69z" />
    <glyph glyph-name=".null" horiz-adv-x="0" 
 />
    <glyph glyph-name="nonmarkingreturn" horiz-adv-x="637" 
 />
    <glyph glyph-name="space" unicode=" " horiz-adv-x="744" 
 />
    <glyph glyph-name="exclam" unicode="!" horiz-adv-x="425" 
d="M2 80q0 38 28 69t68 31q35 0 56.5 -22.5t21.5 -57.5q0 -40 -29 -70t-70 -30q-32 0 -53.5 24.5t-21.5 55.5zM311 1324q4 20 18 36.5t37 16.5t36.5 -16.5t17.5 -37.5v-16q0 -16 -2 -24l-276 -1012q-3 -7 -7 -18t-13 -11q-13 0 -13 10v12z" />
    <glyph glyph-name="quotedbl" unicode="&#x22;" horiz-adv-x="496" 
d="M35 607q0 7 5 13l67 303h115l-72 -331q-8 -13 -26.5 -23.5t-43.5 -10.5q-45 0 -50 37zM281 607q0 7 4 13l69 303h115l-72 -331q-8 -13 -26.5 -23.5t-41.5 -10.5q-52 0 -52 37z" />
    <glyph glyph-name="numbersign" unicode="#" horiz-adv-x="1354" 
d="M614 47q0 6 2 13l126 367h-357l-147 -384q-11 -35 -46 -35q-18 0 -31 14.5t-13 30.5v12l135 362h-230q-13 0 -25.5 15.5t-12.5 31.5q0 15 11 30.5t27 15.5h267l154 403h-423h-2q-2 0 -3 1.5t-3 1.5q-28 13 -28 42q0 19 12.5 34t25.5 15h454l127 329q4 12 13 19.5t20 11.5
h12q20 0 33 -14t13 -34v-6l-114 -306h339l116 327q5 14 17.5 20.5t27.5 6.5q18 0 31 -13.5t13 -30.5v-8t-2 -10l-103 -292h249q20 0 31.5 -15t11.5 -34q0 -29 -27 -42q-4 0 -4 -1.5t-2 -1.5h-5h-285l-143 -403h425q20 0 29.5 -15.5t9.5 -30.5q0 -14 -5.5 -26t-17.5 -17
q-6 0 -11 -2t-7 -2h-456l-137 -392q-13 -35 -45 -35q-21 0 -34 14t-13 33zM776 520l143 403h-344l-152 -403h353z" />
    <glyph glyph-name="dollar" unicode="$" horiz-adv-x="1138" 
d="M171 -75l3 5l62 98v2q-101 35 -166.5 111.5t-65.5 187.5q0 70 30.5 137.5t83.5 117.5t121.5 80.5t140.5 30.5q109 0 201 -63v2l173 299l3 6l-10 62l-5 73v7q0 89 52.5 169.5t140.5 107.5q38 8 66 4l2 4l53 93l4 2h2l36 -26l-46 -81v-3q24 -11 48 -33.5t24 -51.5
q0 -26 -18 -37.5t-40 -11.5q-14 0 -25 8t-11 25v4q5 12 11 14l33 15l-5 6q-7 6 -16.5 12t-19.5 14h-3l-209 -367l73 -266l23 -107l4 -86v-13q0 -234 -184 -373q-9 -5 -26.5 -19t-26.5 -19q-56 -37 -127.5 -54t-138.5 -17q-66 0 -122 14q-2 0 -7.5 1t-7.5 6l-70 -118l-37 25
h-3v3zM308 49q30 -4 55.5 -6.5t54.5 -2.5q58 0 112.5 11t107.5 43q2 0 11.5 4.5t11.5 6.5q59 39 100 83.5t66 109.5q13 38 17.5 78t4.5 77v19q0 9 -1 27.5t-1 22.5l-13 92l-60 254q0 -4 -2 -4t-2 -2l-156 -270q0 -3 2 -5q0 -2 2 -6l4 -9q8 -8 8 -16q14 -30 14 -73
q0 -56 -26 -101.5t-70 -78.5q-12 -7 -24.5 -14.5t-23.5 -13.5q-22 -4 -40 -8.5t-37 -4.5l-3 -3l-117 -208zM47 329q0 -87 48.5 -150t122.5 -102q9 -2 21.5 -8.5t14.5 -6.5l118 202l-2 2h-6q-2 0 -3 1.5t-3 1.5q-6 0 -11 2t-7 2q-25 8 -46 25t-37 40q-11 10 -11 24
q0 20 20 20q11 0 16 -8t12 -16q4 -8 17 -18q16 -13 38.5 -25t39.5 -12l3 5l162 277q0 2 2 4v3l-2 3l-4 6q-2 2 -8 6t-8 7q-29 20 -66 26t-76 6q-61 0 -123 -24t-112 -67.5t-80 -102t-30 -123.5zM455 308q3 0 3 3q18 4 29 9q47 23 82.5 66t35.5 99q0 18 -5 31.5t-11 31.5h-2
l-136 -240h4zM789 1096q3 -22 5 -40t6 -39h5l171 302v2q-33 0 -64 -22q-58 -29 -88 -85.5t-35 -117.5z" />
    <glyph glyph-name="percent" unicode="%" horiz-adv-x="1437" 
d="M800 277q0 63 19 122q15 54 48 107.5t79 95.5t102 67.5t117 25.5q23 0 52 -7q35 -6 69 -25q21 -11 37 -25q10 -8 18 -17.5t17 -19.5q13 -16 20 -30.5t16 -32.5q19 -62 19 -135q0 -67 -25.5 -139t-70.5 -130.5t-109.5 -96t-138.5 -37.5q-36 0 -72 9.5t-66 27.5
q-69 38 -100 103t-31 137zM252 32q0 13 14 17l54 21q5 3 19.5 12t20.5 14q46 31 73 62q6 4 16.5 17t12.5 17l34 53l34 58l237 589l71 127l60 99l54 70l65 64q6 4 21.5 19t23.5 22q56 42 110 73q6 5 15.5 8t17.5 3q23 0 23 -21q0 -16 -14 -23q-4 0 -15 -4.5t-13 -5.5
q-41 -24 -78 -50.5t-63 -64.5q-4 -7 -16 -22.5t-14 -20.5l-37 -59l-292 -679l-60 -114l-45 -67l-45 -58l-31 -32l-52 -47q-2 -2 -18.5 -14.5t-24.5 -19.5q-4 -2 -17 -10.5t-17 -11.5q-4 -2 -20 -9t-20 -9q-2 -3 -19 -8.5t-23 -9.5q-3 0 -3 -1t-2 -1h-2h-6q-6 0 -17.5 4
t-11.5 13zM892 277q0 -41 8 -87t28 -83t54.5 -59t83.5 -22q52 0 93.5 23.5t74 60.5t55 81.5t35.5 85.5q11 38 14.5 74t3.5 72q0 44 -9 88.5t-29.5 80.5t-53.5 56.5t-88 20.5q-42 0 -79.5 -18.5t-67.5 -48.5t-53 -66t-36 -74q-12 -26 -20 -56t-12 -60q0 -4 -1 -27t-1 -30v-12
zM23 963q0 52 9 87q19 93 75 167q30 39 67 72q46 40 99.5 64t111.5 24q61 0 107.5 -23t79.5 -63.5t49 -93t16 -107.5q0 -95 -40.5 -184t-113.5 -149q-41 -35 -90.5 -55t-101.5 -20q-71 0 -134 33.5t-104 101.5q-16 32 -23 70.5t-7 75.5zM111 963q0 -2 1 -13t1 -17v-13.5
t3 -13.5q11 -79 49 -137.5t124 -58.5q57 0 103.5 26.5t76.5 73.5q36 41 57 96q8 23 16 41t12 45t7 54.5t3 57.5q0 44 -8 89t-28.5 80.5t-54.5 56.5t-88 21t-97 -28t-77.5 -71.5t-57 -94.5t-31.5 -97q0 -6 -3 -16.5t-3 -14.5z" />
    <glyph glyph-name="ampersand" unicode="&#x26;" horiz-adv-x="1679" 
d="M446 26q-4 0 -34 8.5t-42 12.5q-152 44 -248 147.5t-96 267.5q0 90 29 163.5t84 141.5q3 3 8 8.5t7 11.5q4 5 15 16.5t13 13.5l99 77l55 37l2 2q-4 2 -12.5 8.5t-10.5 10.5q-21 16 -38 37q-44 59 -44 144q0 66 25 128t64 114q5 4 15.5 17t14.5 17q68 70 151.5 112
t182.5 42q79 0 138 -31t95 -105q18 -31 18 -69q0 -35 -21.5 -58.5t-59.5 -23.5q-26 0 -42 20.5t-16 45.5q0 12 7 28.5t25 16.5q10 0 21 -3t21 -3h18q0 9 -3.5 18.5t-10.5 17.5q-29 60 -79 81.5t-113 21.5q-64 0 -126 -19q-73 -26 -118.5 -74t-75.5 -118q-44 -99 -44 -205
q0 -26 3.5 -46t7.5 -46q0 -4 3.5 -12t3.5 -11l2 -2q0 -2 11 -13l15 -15q4 -2 7 -4.5t5 -4.5q47 26 95.5 42t101.5 16q17 0 41 -4.5t47 -14t38 -27t15 -39.5q0 -27 -16 -43t-39 -25.5t-49.5 -12t-45.5 -2.5q-74 0 -143 32q-3 2 -11.5 6.5t-12.5 6.5q-2 0 -11.5 6.5t-11.5 8.5
h-2h-4q-6 -4 -27 -17t-26 -17q-4 -4 -23 -18t-25 -18q-3 -3 -12.5 -9t-11.5 -11q-12 -8 -12 -12l-39 -63q-2 -4 -12.5 -23t-15.5 -30q-37 -93 -37 -188q0 -114 54.5 -202.5t143.5 -154.5q72 -57 160 -75.5t180 -18.5h26l101 6q4 0 25 2t28 5q107 21 205 81q44 25 85 63
t73 82.5t50 94.5t18 104q0 55 -21.5 112t-59 101.5t-89.5 73t-111 28.5q-34 0 -68.5 -10t-64.5 -28.5t-48 -47t-18 -66.5q0 -37 22.5 -73.5t69.5 -36.5q4 0 15.5 2t13.5 5v3q-11 16 -21.5 32t-10.5 35q0 17 16 23t32 6q19 0 33.5 -13t14.5 -35q0 -42 -24 -69t-67 -27
q-73 0 -111.5 55.5t-38.5 119.5q0 86 48 145.5t118 100.5q6 2 21.5 10t18.5 10q11 4 34 10.5t28 6.5l377 84q7 1 30 7.5t33 10.5q34 13 64.5 29t56.5 37t40 52t14 70q0 45 -19.5 79.5t-50 60t-70.5 38.5t-78 13q-65 0 -111 -32t-56 -99q4 -5 8 -5l51 -4q2 0 5 -2v-7
q0 -20 -7.5 -40.5t-32.5 -20.5q-22 0 -40.5 12.5t-22.5 34.5q-4 11 -4 29q0 61 47 107t100 65q31 6 63 6q88 0 161 -52q46 -31 70 -81.5t24 -105.5q0 -107 -65 -173t-157 -106q-7 -2 -26.5 -9t-26.5 -9q-10 -4 -34 -9t-29 -5l-346 -61q-2 0 -16 -3t-19 -6q-31 -12 -62.5 -27
t-47.5 -43q-3 -2 -3 -3t-3 -5q-2 -2 -2 -5v-2q71 66 170 66q67 0 126.5 -32t104 -83.5t70 -114t25.5 -127.5q0 -50 -13 -95t-36 -88q-24 -38 -53 -73t-62 -67q-59 -51 -131 -84t-145 -53q-11 -2 -27 -5t-21 -8l-100 -10h-19h-49h-35l-91 6zM575 963q-34 0 -62 -6.5
t-55 -15.5q-5 -2 -11 -4t-14 -4q-8 -4 -15 -7v-3l9 -4q33 -19 69 -27.5t74 -8.5h19q3 0 14 1t15 1q12 5 32.5 13t20.5 25q0 12 -12.5 19.5t-27.5 12t-31.5 6.5t-24.5 2z" />
    <glyph glyph-name="quotesingle" unicode="'" horiz-adv-x="227" 
d="M23 607q0 4 1.5 6.5t3.5 6.5l68 303h115l-72 -331q-6 -13 -25.5 -23.5t-43.5 -10.5q-49 0 -49 37z" />
    <glyph glyph-name="parenleft" unicode="(" horiz-adv-x="725" 
d="M254 -322q-5 2 -17.5 14t-16.5 17q-11 8 -27.5 25.5t-16.5 23.5q-10 13 -19.5 28.5t-21.5 29.5l-41 75l-36 79q-9 49 -23 95q-5 19 -7 33.5t-7 34.5l-6 96v84q2 23 4 45t4 43q5 30 12.5 56t11.5 52l18 68l31 88q11 23 22 47.5t21 46.5q11 20 21.5 42t21.5 40
q12 18 26 41.5t25 40.5q14 18 29 42t32 45q26 31 52 59.5t51 61.5h-3l66 64v-2l43 37q10 12 24 25t27 23q18 13 37.5 25t34.5 21l56 32q11 10 28 10q4 0 9.5 -7.5t5.5 -14.5q-9 -13 -17 -17q-4 -4 -22.5 -12t-22.5 -8q-19 -12 -45 -34.5t-52 -42.5q-27 -25 -57 -52l-33 -37
l-82 -112l-69 -123l-61 -119l-63 -147l-64 -313l-10 -122l2 -83l10 -112l21 -75l26 -83l23 -41q15 -18 27 -35q10 -14 21.5 -29.5t23.5 -27.5q4 -4 18 -14.5t18 -15.5q-2 0 5 -3t12 -8q2 -3 5.5 -5t6.5 -4q6 -7 6 -11q-4 -5 -8 -8.5t-8 -7.5h-23z" />
    <glyph glyph-name="parenright" unicode=")" horiz-adv-x="708" 
d="M6 -331q4 9 11 14q36 19 74 44t65 44l24 26q8 9 16.5 16t10.5 9l52 53l61 76q0 4 11 21q11 13 23 34.5t10 16.5q12 17 27 44t17 31l59 129l38 111l29 113l7 38l17 112l14 127l-6 119l-10 118l-22 109q-6 20 -12.5 41t-12.5 40q-2 5 -7.5 18t-9.5 17q-7 18 -20.5 41
t-29.5 45q-22 10 -36 28q-14 11 -17 17q0 2 -2 2q-5 0 -5 1l-24 16q-10 9 -8 20q4 15 22 19q4 0 10.5 -2t11.5 -4l48 -37v4q11 -11 25 -23.5t25 -23.5h-3q11 -12 21 -28.5t22 -29.5q9 -21 27 -47t28 -49q14 -24 24.5 -54.5t22.5 -54.5l29 -89q4 -22 7 -45.5t9 -46.5
q3 -28 6 -59l6 -62q0 -16 -1.5 -44t-1.5 -46q-2 -20 -3 -44t-3 -46q0 -4 -2.5 -7t-2.5 -5q0 -4 -2 -6t-2 -4q0 -4 -3 -23.5t-7 -30.5q-2 -7 -4.5 -18.5t-2.5 -14.5q-10 -29 -17 -57t-17 -51q-11 -25 -20.5 -49.5t-20.5 -48.5l-47 -96q-14 -21 -28 -42.5t-28 -41.5
q-18 -21 -33.5 -45.5t-34.5 -47.5h4q-20 -18 -45.5 -45.5t-46.5 -51.5l-60 -59v2q-16 -11 -31.5 -26.5t-32.5 -25.5l-63 -45q-2 -5 -23 -15.5t-32 -15.5q-3 0 -9 -3.5t-13 -7t-9 -5.5t0 0q-2 -4 -4 -4h-5q-5 -2 -10 -2q-7 0 -17.5 2t-6.5 11z" />
    <glyph glyph-name="asterisk" unicode="*" horiz-adv-x="558" 
d="M45 847q2 4 3 8t3 9l167 169l-192 75q-16 7 -9 28q4 9 13.5 17.5t18.5 8.5q4 0 9 -2l182 -70l49 219q2 12 13 17t23 5q9 0 16 -5t5 -15l-48 -221l220 72h4q32 0 22 -29q-5 -20 -24 -27l-220 -71l92 -167q9 -4 5 -21q-3 -7 -11 -15.5t-20 -8.5q-20 0 -23 10l-94 162
l-158 -162q-11 -10 -26 -10q-12 0 -17 7.5t-3 16.5z" />
    <glyph glyph-name="plus" unicode="+" horiz-adv-x="856" 
d="M331 277q-9 0 -18.5 9.5t-4.5 21.5l81 376h-363q-11 0 -16.5 11t-1.5 21q7 6 17 16t22 10h352l79 364q3 12 14 14t17 0q11 -2 20 -12t5 -22l-74 -344h381q10 0 11.5 -10t-3.5 -16q-4 -10 -14 -21t-23 -11h-364l-82 -386q-6 -25 -35 -21z" />
    <glyph glyph-name="comma" unicode="," horiz-adv-x="254" 
d="M28 -131q4 18 17 28q15 19 34 36t30 37q0 2 4.5 10.5t8.5 13.5l3 4l2 2q-9 0 -15.5 -1t-13.5 -1q-33 0 -47 23.5t-6 53.5q6 47 44 79t82 32q53 0 61 -35t-1 -78q-16 -67 -49.5 -122.5t-93.5 -102.5q-18 -15 -35 -15q-10 0 -20 9t-5 27z" />
    <glyph glyph-name="hyphen" unicode="-" horiz-adv-x="513" 
d="M40 380q3 7 9.5 17.5t18.5 10.5h394q12 0 14 -10.5t0 -17.5q-2 -10 -11.5 -21t-22.5 -11h-384q-9 0 -15 11t-3 21z" />
    <glyph glyph-name="period" unicode="." horiz-adv-x="249" 
d="M28 75q0 47 33 83t81 36q34 0 58 -23t24 -60q0 -46 -36 -81.5t-81 -35.5q-34 0 -56.5 24.5t-22.5 56.5z" />
    <glyph glyph-name="slash" unicode="/" horiz-adv-x="943" 
d="M2 19q0 9 13 13q53 24 100 55t86 82q4 5 17 25.5t18 25.5q4 11 18.5 34t16.5 29l225 557l66 128l64 96q2 2 9.5 13t17.5 22.5t19.5 22.5t13.5 17q51 58 110 101q4 4 24 18t23 18q27 17 55 28q8 5 23 5h8q12 -5 12 -18t-11 -18t-22 -9q-54 -26 -98.5 -66.5t-74.5 -89.5
q-7 -12 -18 -33t-18 -25l-279 -649q-4 -9 -19.5 -40.5t-22.5 -43.5q-2 -4 -10 -18t-18 -28t-19 -26t-11 -16q-5 -9 -25 -34.5t-26 -32.5q-5 -4 -26 -25l-28 -28q-37 -34 -84 -63t-91 -46h-10q-7 0 -17.5 3t-10.5 16z" />
    <glyph glyph-name="zero" unicode="0" horiz-adv-x="1286" 
d="M439 15q-12 4 -32 9.5t-27 7.5q-26 8 -49 18t-44 23q-56 38 -103 85t-79 104q0 -3 -4.5 5t-9.5 18v2q-3 4 -5 10t-4 14q-5 4 -6 7.5t-3 8.5q-3 4 -3 7l-19 58q-2 5 -2 18v23l-6 20v18.5t-3 24.5q0 11 -1.5 16.5t-1.5 7.5v67l12 90v23t4 22q0 13 7.5 38t9.5 29
q5 16 14.5 36t15.5 39q9 19 24 50t23 49q9 17 21 34.5t24 35.5q11 15 25 33t25 32h-2l37 43l61 64v-2q14 14 30.5 25.5t30.5 21.5q4 4 19 14q21 14 33 19q119 71 248 85q5 0 8 1.5t7 1.5h35q40 0 72.5 -4.5t70.5 -15.5q37 -9 72 -26.5t69 -35.5q5 -11 17 -18t16 -9v-6
l58 -48h-2l16 -20q3 -5 12.5 -24l11.5 -23q46 -79 65 -164t19 -172v-33l-6 -75q0 -4 -2.5 -30.5t-7.5 -34.5v2q-2 -4 -5.5 -30.5t-7.5 -39.5q8 11 7 4.5t-7.5 -17t-13 -22t-8.5 -16.5q-5 -17 -16.5 -41t-21.5 -41q-7 -21 -16.5 -39t-20.5 -40q-14 -16 -28 -35t-26 -34
q-12 -17 -24.5 -31t-24.5 -30q-12 -13 -25.5 -28.5t-26.5 -31.5q-6 -6 -21 -18.5t-21 -16.5q-6 -2 -26.5 -15.5t-28.5 -23.5q-45 -30 -99.5 -49.5t-103.5 -32.5q-4 -2 -20.5 -3t-24.5 -1q-2 -2 -7.5 -2h-9.5h-65h-4q-2 0 -4 1t-4 1q-11 2 -22.5 2h-16.5h-9.5t-17.5 2
q-12 9 -21 9zM220 364q4 -4 6.5 -16t4.5 -21q0 -5 1 -7.5t1 -4.5q5 -15 9.5 -27.5t9.5 -18.5h-3q40 -111 118.5 -170t196.5 -59q90 0 174.5 44.5t144.5 111.5q11 11 25.5 28.5t20.5 21.5l18 27t18 25q8 10 20 30t14 26q4 10 11 24t13 28t9 22t3 5l31 93l26 81l16 79l10 116
v79q0 4 -1.5 11.5t-1.5 19.5v27v12t-4 12q-3 10 -5 23t-5 22l-15 66q-2 4 -9.5 22.5t-10.5 27.5q0 3 -7 17t-7 19q-44 86 -123.5 129.5t-174.5 43.5t-172 -43.5t-146 -113.5l-26 -23q-4 -8 -18 -20h5l-23 -32l-43 -66l-44 -90l-40 -91q-2 -21 -8 -45t-10 -46l-14 -77l-8 -94
v-83l4 -65z" />
    <glyph glyph-name="one" unicode="1" horiz-adv-x="601" 
d="M180 17l285 1218q-55 -40 -117.5 -90.5t-116.5 -94.5l-145 -100q-37 -15 -67 -15h-17l494 407q30 29 52 29q16 0 24.5 -17.5t8.5 -32.5v-24q-74 -324 -151.5 -642.5t-148.5 -639.5v2q-6 -17 -15 -17h-84q-2 0 -2 6v11z" />
    <glyph glyph-name="two" unicode="2" horiz-adv-x="1205" 
d="M32 21q0 9 13 16l509 283l111 79l111 90l45 55l53 63l40 62q0 8 12 19l15 32q30 65 42 150q2 6 3 21t1 19v23q0 40 -7 74t-21 74q-9 25 -25.5 50.5t-33.5 44.5q-10 19 -32.5 35.5t-40.5 28.5q-46 32 -102 49.5t-109 17.5q-86 0 -164 -34.5t-141 -91.5v2q-5 -2 -16.5 -14
t-17.5 -19l-39 -54q-2 -4 -10 -19t-13 -23q-12 -24 -23.5 -50t-20.5 -52q-15 -44 -19.5 -93t-4.5 -102v-15q0 -5 0.5 -15.5t0.5 -18.5v-11q4 -51 12.5 -99t15.5 -98q-37 36 -55 93t-21 111q-2 4 -2 10v19q0 8 1 20t1 23v29l11 67q0 4 2.5 21t8.5 30q0 6 2.5 10t2.5 6
q2 9 9.5 31t11.5 29q38 102 108.5 182.5t159.5 133.5q4 2 14.5 5t19 6t14 5l5.5 2q12 7 30.5 12.5t32.5 10.5q12 4 23 8t26 7l63 8h8q4 0 8.5 1t6.5 1h32q93 0 174 -28.5t146 -80t101.5 -130t36.5 -174.5q0 -81 -28 -163.5t-81 -154.5q-3 -6 -18 -23.5t-25 -25.5
q-2 -3 -5 -10.5t-5 -7.5l-74 -70v2q-34 -30 -70 -58t-75 -56q-68 -39 -141 -84.5t-139 -85.5l-111 -57l2 -12h483q6 0 25 2t31 5q31 2 66 13.5t58 28.5q6 4 10 7.5t6 3.5l3 5q0 2 2 2l58 56q0 6 9 11q7 4 13 9.5t11 7.5q-5 -13 -5 -20.5t-4 -19.5q-8 -16 -15 -35.5
t-16 -34.5q-9 -19 -25 -43.5t-26 -41.5l-52 -71q-32 -45 -105 -45q-38 0 -129.5 -1t-199.5 -1h-538q-15 2 -15 21z" />
    <glyph glyph-name="three" unicode="3" horiz-adv-x="1069" 
d="M26 259q0 49 32.5 88.5t89.5 39.5q30 0 56.5 -16.5t26.5 -50.5q0 -26 -21.5 -36.5t-47.5 -10.5h-14q-6 0 -9.5 1t-7.5 1q-54 0 -54 -46q0 -35 17 -62.5t41.5 -49t55.5 -37t56 -22.5q10 -2 28.5 -5.5t22.5 -3.5l-4 2q4 0 9 -2q5 0 19 -4q7 -2 13.5 -2h10.5t15 -1.5
t21 -1.5h28q101 0 175 35q4 2 10 5.5t12 7.5q7 6 15 10l30 22t30 17q4 2 18 15.5t18 18.5q26 25 44.5 48t33.5 45q27 51 41 103.5t14 110.5q0 60 -18 117t-66 98q-2 2 -8.5 9.5t-11.5 9.5l-5 2q-1 0 -3 2q-17 -6 -37 -14.5t-37 -15.5q-15 -7 -32 -14t-35 -13h3q2 0 -9 -2.5
t-22 -4.5q-18 -6 -22 -6q-26 -6 -50 -7.5t-47 -1.5q-41 0 -72 6.5t-54 33.5q-10 9 -14.5 24t-4.5 30q0 10 7 24.5t12 25.5q17 26 51 39.5t70 20.5q19 2 40 2h40h15q7 0 14 -1t15 -1h17q20 -1 38.5 -4t35.5 -4q16 -6 32.5 -9t34.5 -7h-6l54 -21l39 23q4 4 11 11.5t12 10.5
l11 13h-2q38 38 54 89.5t16 95.5q0 85 -53.5 151t-130.5 99q-25 10 -56 15t-61 5q-64 0 -122 -23.5t-105 -60.5q-4 -4 -13.5 -13t-13.5 -15q-8 -11 -19.5 -24t-15.5 -16q-27 -37 -58 -77.5t-58 -78.5v7q0 33 18 66v2q0 5 2 8l5 8l45 65q4 5 18 24.5t21 26.5q69 83 162 127
t200 44q26 0 51.5 -2t51.5 -9q64 -14 125 -52t93 -102q26 -49 26 -113q0 -66 -26.5 -119t-67.5 -108h2l-47 -49q-3 -2 -6 -5t-10 -3l-53 -41q77 -48 125.5 -119.5t48.5 -164.5q0 -72 -28 -138.5t-69 -122.5h2q-2 -2 -5 -5.5t-8 -7.5q-13 -13 -13 -15q-6 -7 -18.5 -18
t-14.5 -16q-16 -15 -28.5 -25.5t-31.5 -18.5l-42 -31q-4 -6 -9 -10t-12 -7l-8 -9v2q-6 -5 -25.5 -13t-23.5 -8q-5 -2 -26 -9.5t-28 -7.5q-4 -4 -13 -6.5t-15 -4.5q-9 -2 -19 -4l-75 -13q-4 -2 -21.5 -3t-22.5 -1h-35q-54 0 -110 10.5t-110 32.5q-39 19 -76 52.5t-61 73.5
q-23 36 -23 90zM346 731q0 -19 12 -31t28.5 -17.5t34.5 -7.5t30 -2q32 0 61 6.5t58 13.5q37 13 66 24t55 22l-5 8q-4 0 -4 5q-30 13 -62.5 25t-75.5 21q-8 0 -15 1t-14 1q-15 0 -23 5q-5 0 -11.5 -2.5t-11.5 -2.5q-18 0 -38.5 -4t-39.5 -13t-32 -22.5t-13 -29.5z" />
    <glyph glyph-name="four" unicode="4" horiz-adv-x="1272" 
d="M759 317l-362 70q-3 0 -26 2.5t-33 4.5h-69l-66 -9q-45 -5 -84 -12t-76 -11h-8q-12 0 -22.5 4t-10.5 14q0 2 1 8t3 9q246 235 489.5 466t489.5 464l-2 -3q2 3 6 5l14 6q2 1 9 7.5t11 8.5v-2q27 19 53 24q18 -5 31 -19t13 -27q0 -10 -5 -18l-225 -893l69 -8h17
q69 0 137 23h-2l13 5q5 3 7 4.5t7 1.5q27 18 55 31.5t53 33.5l-2 -7h2q-4 -6 -4 -11q-12 -22 -32 -42t-45 -33q-8 -11 -24.5 -21.5t-20.5 -12.5q-5 0 -24.5 -8t-24.5 -10q-7 -4 -24 -11.5t-20 -7.5q-15 -3 -33 -7.5t-35 -8.5q-7 0 -23.5 -2.5t-27.5 -7.5q-2 0 -8 -1t-10 -1
q-7 -2 -15.5 -2h-10.5q-19 -71 -39 -145t-38 -147v2q-6 -13 -17 -18t-23 -5h-29h-4q-4 0 -4 2q-17 4 -26 15zM976 1244q-8 0 -13 -4l-881 -832q9 2 27 7t26 8q51 10 103.5 20t103.5 22h18q10 0 19.5 1t17.5 1h70h31t24 -2l265 -34l200 792v10z" />
    <glyph glyph-name="five" unicode="5" horiz-adv-x="1092" 
d="M23 257q0 60 34 98.5t95 38.5h30q19 -9 41 -27.5t22 -35.5q0 -25 -18 -36.5t-43 -11.5q-4 0 -8.5 1t-9.5 1q-6 2 -15 2h-14q-28 0 -45 -20.5t-17 -48.5q0 -22 10.5 -37t21.5 -29q32 -25 52.5 -40.5t36.5 -23.5h5q2 0 3 -2t5 -4q2 -2 9 -2q44 -24 99 -33.5t106 -9.5
q107 0 193 25q96 34 172 97t118 149q11 26 19 47t12 42q6 26 8.5 49t2.5 48q0 101 -47 174.5t-131 127.5v-2q-5 4 -16.5 11t-12.5 10q-4 0 -19 4q-14 6 -18 11q-7 0 -25 4q-8 6 -18.5 7.5t-6.5 1.5h2l-58 16q-15 0 -34.5 2.5t-33.5 2.5h-12q-5 0 -8 1t-7 1q-38 0 -74.5 -3.5
t-70.5 -15.5q-12 -2 -29.5 -4.5t-22.5 -8.5l-79 -27l-7 -5q-5 0 -8 8.5t-3 14.5q0 9 2 16q38 111 81.5 233.5t83.5 236.5q6 10 12 16t13 6l313 2l148 16l179 36l7 3q0 -15 -5 -22q-4 -12 -12 -24.5t-21 -19.5q-25 -25 -59 -42.5t-66 -35.5q-2 0 -5.5 -1t-7.5 -1q-4 -2 -8 -2
q-24 -4 -47 -10.5t-50 -10.5q-28 -4 -55.5 -7.5t-55.5 -5.5l-280 -5l-82 -238q33 6 70 10.5t75 9.5h9q12 0 22.5 1t14.5 1h56l85 -9l67 -10h2q2 0 2 -1.5t7 -1.5q8 -4 16 -6t13.5 -4.5t7.5 -2.5q38 -11 74 -27.5t72 -34.5q42 -26 72 -63.5t56 -82.5q23 -45 31 -91t8 -95
q0 -114 -46.5 -213t-124.5 -169q-7 -5 -15.5 -13.5t-18.5 -15.5q-6 -5 -10.5 -9.5t-5.5 -6.5v2q-14 -6 -30 -17t-33 -22q-11 -6 -28 -15t-28 -17l-68 -19q-9 -6 -23 -9.5t-25 -7.5h3q-18 -5 -34.5 -8t-32.5 -10q-12 0 -32.5 -3t-32.5 -5h-80h-14.5t-20.5 2h-4q-2 0 -4 2
q-15 4 -30.5 7.5t-32.5 5.5h-2q-4 0 -6 2t-7.5 2h-10.5q-11 5 -24 10.5t-15 11.5q-34 8 -68 29.5t-63 48.5t-46.5 62t-17.5 74z" />
    <glyph glyph-name="six" unicode="6" horiz-adv-x="1304" 
d="M32 518l17 63l7 28q4 7 5 18t4 16q10 18 16.5 40.5t12.5 26.5q9 12 23 37t22 45q9 15 24 34t25 33q15 17 29 35t28 37q7 10 17.5 20t18.5 22h-4q21 19 45 42t48 45v-4q27 20 56 44t61 48q28 19 63 40.5t68 39.5l143 69q33 12 60.5 21t54.5 15h-2q24 7 51 16t53 13l93 17
h7q6 0 10 1t6 1h17q54 0 97 -23v2l6 -4q-47 -7 -93.5 -13.5t-91.5 -11.5q-4 0 -15 -2t-22 -5q-9 0 -16.5 -0.5t-16.5 -0.5q-5 -4 -22 -8q-14 -6 -25.5 -12t-15.5 -8v2l-75 -31l-84 -40l-78 -52l-74 -59l-100 -100l-60 -70l-67 -86l-43 -74l-12 -36l3 -2q21 20 43.5 40
t42.5 40v-2q26 16 48 31.5t47 35.5l75 43l56 26q4 2 10 4.5t15 7.5q18 7 20 10l78 22q1 0 19.5 3.5t31.5 6.5h29q12 0 18 1t10 1h25q125 0 229.5 -55.5t148.5 -176.5q22 -63 22 -122q0 -47 -13 -98.5t-28 -97.5q-5 -5 -7.5 -15t-6.5 -21q-14 -17 -14 -23q-8 -16 -18.5 -30
t-16.5 -28q-10 -12 -21 -27t-22 -27h2l-11 -11q-7 -4 -14.5 -12.5t-11.5 -13.5l-30 -30l-10 -11q-72 -68 -163 -120.5t-194 -78.5q-2 -2 -7 -2q-4 0 -7.5 -1t-7.5 -1q-8 -5 -13.5 -7t-7.5 -2q-6 0 -25.5 -2t-31.5 -4h-41q-80 0 -156 17.5t-144 52.5q-74 39 -131.5 103.5
t-79.5 141.5q0 12 -8 23q-3 8 -3 12v19t-2 18q0 2 -1 4.5t-1 5.5v2v59zM1226 1358v-12q-5 0 -7 10h-5q5 0 7 1t5 1zM203 348q0 -156 89.5 -232t245.5 -76h47l74 9l12 2q6 0 8.5 1t6.5 1q9 5 21.5 8.5t20.5 8.5q5 3 15.5 9.5t13.5 6.5q39 21 74 48.5t63 61.5q20 19 45.5 50
t45.5 52q4 10 15.5 30t16.5 32l35 69q0 4 2 10q6 9 10.5 23t6.5 21q13 39 18 77t5 80q0 57 -19 116t-56 103q-46 47 -99.5 72.5t-114.5 25.5q-53 0 -98.5 -12t-88.5 -31q-9 -4 -26 -11t-22 -7l-61 -37l-63 -42q-10 -7 -25 -21.5t-27 -25.5q-5 -5 -19.5 -21t-20.5 -21h4
q-33 -35 -59 -72.5t-45 -78.5q-51 -112 -51 -229z" />
    <glyph glyph-name="seven" unicode="7" horiz-adv-x="1246" 
d="M171 227q0 18 1.5 38t5.5 38q4 8 10 21.5t8 21.5l24 51q7 9 16 22.5t11 22.5l194 240h-2l195 194v-2l432 354q-28 -2 -68.5 -6.5t-68.5 -11.5q-3 0 -10 -1t-19 -1q-13 -3 -31 -3h-28h-87l-396 23h-67q-4 0 -11 -1t-16 -1h-24q-66 -1 -118 -54l-36 -33h2l-11 -8
q-9 -11 -17.5 -20.5t-22.5 -9.5q3 10 7.5 18t4.5 17v-3l69 111q17 26 36.5 54.5t37.5 57.5q17 2 35 6t35 6h19q4 0 9.5 1.5t7.5 1.5h66q21 -3 45 -6t49 -5l296 -49l93 -7h70l137 11l89 9q-4 -3 5 0t19 5q9 4 11 4q3 0 8 2q2 0 11 5l8 4q3 2 9 2v-2l12 5q14 0 14 -18v-8
t-2 -6v2l-332 -271l-159 -150l-215 -248q-17 -18 -34 -45.5t-36 -50.5l-37 -65q-2 -4 -3.5 -10.5t-5.5 -11.5q-13 -23 -17 -36l-23 -65q0 -4 -2 -8l-8 -20q-6 -23 -9 -47.5t-3 -50.5q0 -25 4 -52.5t16 -50.5q23 -51 58 -69.5t94 -18.5q32 0 66 9l92 33q-5 -7 -13 -16.5
t-17 -18.5q-32 -30 -93 -43t-108 -13q-30 0 -64.5 3t-63.5 16q-71 26 -112.5 78.5t-41.5 129.5z" />
    <glyph glyph-name="eight" unicode="8" horiz-adv-x="1246" 
d="M387 17l-62 18q-3 0 -22.5 7t-31.5 9q-60 29 -114 68t-97 92q-30 51 -37 106v21q0 68 34 128t87 94q4 2 9 8.5t18 14.5q3 2 7 4t10 11v-3l17 10h-2l15 4q22 11 46.5 22.5t48.5 22.5l257 87q-16 13 -40.5 33t-44.5 36v-3l-18 18l-21 15q-36 34 -66 81q-18 24 -25 51t-7 57
q0 31 13 70t26 66q36 54 84.5 94t107 67.5t121.5 42t125 14.5q37 0 71.5 -3t66.5 -14q72 -17 139.5 -57.5t94.5 -113.5v2q0 -2 1 -3t1 -6q4 -18 4 -31v-39q0 -10 -1 -15t-1 -7q-18 -71 -63 -118l-5 -10q-6 -5 -12 -10.5t-10 -7.5q-13 -11 -25 -20t-20 -18v2
q-18 -11 -33.5 -20t-31.5 -22l-89 -42l-114 -58l159 -81q4 -3 23 -15.5t28 -19.5q9 -2 19.5 -10t15.5 -12l31 -25q46 -37 74 -87t28 -116q0 -60 -26 -117q-11 -23 -25 -46t-33 -42q-32 -45 -75.5 -74t-87.5 -52q-6 -5 -16 -11t-21 -11q-5 -2 -11 -2q-5 0 -5 -2l-66 -17
q-14 -4 -35 -8.5t-36 -8.5q-25 -5 -51.5 -8t-50.5 -5l-28 -2h-91q-13 0 -28.5 2t-29.5 2zM125 322q0 -73 35.5 -129t93.5 -88q59 -32 131 -47h-3q5 -5 28 -7t34 -4l90 -7h103l88 9l87 16q5 3 19 9t23 6q69 25 124 65.5t84 106.5q9 19 12.5 41t3.5 45q0 51 -25.5 97t-67.5 80
q-12 13 -26 23t-14 3l-2 7l-67 37l-258 131q-54 -19 -112 -37t-117 -36q-4 -3 -21.5 -9t-24.5 -12q-40 -21 -78 -53.5t-71.5 -73t-51 -83t-17.5 -90.5zM442 1101q0 -66 39 -118t94 -85q4 -4 15 -13t19 -13q5 -4 9 -4l2 -2l122 -66l161 59q20 11 41 25t45 24h-2l21 13
q17 12 19 12q47 35 80.5 78t33.5 107q0 65 -28.5 108.5t-74.5 70t-101.5 37t-111.5 10.5h-25q-6 0 -24.5 -1t-28.5 -3l-68 -11q-12 -2 -27 -6t-26 -8q-8 -4 -22.5 -10t-22.5 -10q-59 -25 -99 -74t-40 -120z" />
    <glyph glyph-name="nine" unicode="9" horiz-adv-x="1297" 
d="M192 0q-61 0 -106 28l183 19l85 18l73 23l82 39l78 49l74 51l96 81l84 86l55 71l65 93l36 70l-5 6q-12 -12 -31.5 -29.5t-31.5 -27.5q-19 -17 -41 -32t-43 -32q-18 -10 -39 -27t-41 -26q-21 -12 -39 -20.5t-40 -19.5q-30 -12 -56 -23h2l-70 -19q-2 -2 -21 -7t-30 -5
q-8 0 -15 -1t-15 -1q-16 -2 -29 -3t-29 -1h-15h-13t-15 2q-6 0 -12 1t-8 1t-7 1t-11 1h-6l-59 14q-2 0 -15 4.5t-17 7.5q-18 5 -40.5 18t-38.5 23q-68 52 -102 128t-34 157q0 69 19 141q0 3 3.5 12.5t7.5 15.5q2 5 5 10.5t5 10.5l5 9q7 16 14 29t14 32l41 60q0 5 18 22.5
t22 25.5q12 18 26 32.5t26 24.5l11 14q73 68 165.5 117.5t188.5 76.5q2 0 8.5 2.5t12.5 4.5q12 2 21 6t3 -2q6 0 13 4q4 2 9 2t14 3q4 0 10.5 2t13.5 2h70q5 0 10.5 -2t13.5 -2q7 -3 22.5 -3h20.5q6 -2 24 -5t29 -5q2 0 4.5 -1t5.5 -1l4 -5q11 -2 22 -5.5t13 -5.5
q14 -7 32 -11.5t31 -9.5l58 -26l15 -12q11 -11 34 -19q50 -39 89.5 -97.5t51.5 -125.5q0 -1 6 -6q0 -4 4 -14q0 -4 1 -10t1 -8t1 -7t1 -9v-66l-8 -57q-6 -17 -9 -30t-5 -27l-22 -74h4q-5 -6 -6 -10.5t-3 -8.5q-4 -13 -12 -27t-10 -16q-11 -19 -20 -36t-22 -35
q-9 -21 -21 -40t-25 -38q-17 -17 -32 -36t-27 -36q-7 -9 -16 -20.5t-19 -24.5h2l-90 -81v3q-23 -22 -48 -40.5t-47 -38.5q-24 -17 -62.5 -38.5t-65.5 -38.5q-35 -21 -69 -37t-71 -34q-18 -12 -45 -21t-49 -21h2q-32 -7 -64 -15.5t-60 -17.5q-23 -4 -48 -9.5t-50 -9.5
q-5 0 -10.5 -1t-10.5 -1q-11 -2 -20 -2h-19zM77 35q5 -5 9 -7h-9v7zM205 739q0 -80 30.5 -148.5t100.5 -121.5q16 -11 36 -20.5t36 -15.5q25 -4 44.5 -6t43.5 -2q81 0 153.5 28t139.5 69q16 10 33.5 21t24.5 21l4 2q5 4 9 5t10 6q4 4 13 11t13 15l43 40l6 9l44 58
q8 10 17 24.5t19 28.5h-6q-2 -2 8.5 16.5t15.5 27.5h-2l7 8q12 25 19 51t17 51q2 9 2 15.5t2 15.5q8 35 8 77q0 135 -71 214.5t-204 91.5q-6 0 -28.5 1t-27.5 3h-13q-8 0 -14.5 -1t-15.5 -1q-16 -2 -39.5 -4t-42.5 -5q-3 0 -12.5 -2.5t-13.5 -4.5q-35 -10 -71 -30.5
t-67 -44.5q-9 -4 -23 -18t-20 -19l-63 -66l-28 -35l-42 -59q0 -4 -5.5 -10t-9.5 -18q-2 -5 -7 -12.5t-7 -9.5q-31 -60 -48.5 -124t-17.5 -132z" />
    <glyph glyph-name="colon" unicode=":" horiz-adv-x="262" 
d="M30 75q0 47 33 83t81 36q34 0 58.5 -23t24.5 -60q0 -46 -36.5 -81.5t-81.5 -35.5q-34 0 -56.5 24.5t-22.5 56.5zM43 876q0 45 26.5 77t72.5 32q38 0 64.5 -27t26.5 -66q0 -43 -29.5 -75t-70.5 -32q-42 0 -66 28t-24 63z" />
    <glyph glyph-name="semicolon" unicode=";" horiz-adv-x="240" 
d="M51 -127q0 20 11 32.5t22 24.5q14 14 21.5 31.5t12.5 36.5l4 4q-9 0 -14 -1t-12 -1q-34 0 -53.5 23.5t-19.5 53.5q0 48 30.5 81.5t77.5 33.5q49 0 63.5 -35t14.5 -80q0 -122 -76 -212q-11 -13 -20.5 -19t-26.5 -6q-35 0 -35 33zM26 876q0 45 27 77t74 32q35 0 63 -27
t28 -66q0 -43 -31 -75t-71 -32q-41 0 -65.5 28t-24.5 63z" />
    <glyph glyph-name="less" unicode="&#x3c;" horiz-adv-x="575" 
d="M487 1321l79 -45l-444 -622l176 -609l-93 -45h-2q-2 0 -2 2l-193 654z" />
    <glyph glyph-name="equal" unicode="=" horiz-adv-x="862" 
d="M35 609q2 7 8 17.5t17 10.5h681q11 0 14.5 -10.5t1.5 -17.5q-3 -8 -9.5 -19t-16.5 -11h-680q-8 0 -13.5 11t-2.5 19zM105 941q2 7 12 17t20 10h675q11 0 16 -10t2 -17q-5 -10 -14 -20.5t-22 -10.5h-665q-16 0 -22.5 10.5t-1.5 20.5z" />
    <glyph glyph-name="greater" unicode="&#x3e;" horiz-adv-x="575" 
d="M86 0l-80 47l447 618l-178 613l95 43h2q2 0 2 -2l190 -656z" />
    <glyph glyph-name="question" unicode="?" horiz-adv-x="847" 
d="M162 91q0 42 31 76t76 34q37 0 60 -27t23 -65q0 -47 -29 -78t-71 -31q-37 0 -63.5 26.5t-26.5 64.5zM209 322q0 44 19 80.5t53 62.5q4 7 18 21t18 19l235 190l74 79l51 60q5 4 13.5 20t17.5 22q31 55 49.5 112t27.5 118q2 2 3 25.5t1 35.5v7q0 21 -2 44.5t-8 45.5
q-16 53 -48 93.5t-74.5 67.5t-94 42t-102.5 15q-73 0 -134.5 -26.5t-118.5 -72.5q-15 -10 -25.5 -23.5t-25.5 -28.5q-2 -2 -7 -9t-7 -11q-74 -106 -74 -225q0 -67 29.5 -130.5t86.5 -99.5q23 -11 48 -18.5t51 -7.5q48 0 87.5 20t69 54.5t47.5 78.5t18 88q0 58 -32 93t-91 35
q-30 0 -65 -16q0 -2 -8.5 -4.5t-10.5 -2.5q-2 -2 -9 -2q-16 0 -16 14q0 17 17.5 26t29.5 12q40 18 79 18q73 0 113 -51.5t40 -121.5q0 -41 -13 -80t-36 -70q-43 -59 -105 -96.5t-136 -37.5q-57 0 -110 23q-70 31 -100.5 102t-30.5 142q0 89 31.5 171t88.5 145t133 106
t165 52h12h27q61 0 119.5 -20t106.5 -53.5t81.5 -83.5t44.5 -115q3 -2 3.5 -16t0.5 -17q4 -4 4 -13v-11v-63l-8 -76q0 -6 -3.5 -28t-7.5 -33q-17 -73 -56 -148q-4 -6 -16 -26t-14 -23l-51 -69l-68 -72l-109 -97l-176 -123q-2 -2 -12.5 -10t-16.5 -13q-17 -19 -36 -44.5
t-19 -53.5q0 -31 22 -39t46 -8q37 0 79 18l28 -8v-2q-6 -4 -17 -6l-12 -4t-11 -5q-46 -19 -86 -19q-37 0 -61 19t-24 56z" />
    <glyph glyph-name="at" unicode="@" horiz-adv-x="1484" 
d="M528 26l-75 23l-54 19l-61 32l-57 39q-4 3 -19 13t-20 17q-4 2 -8.5 7.5t-6.5 5.5l-47 49l-30 38l-37 56l-31 60l-20 44l-15 67l-15 70q0 6 -2 29t-2 35v31v30q7 105 45 207q4 10 12.5 27.5t10.5 22.5l35 60l38 56l53 65l55 52l63 49l70 48l68 33l61 25l75 22l63 15l60 4
h75l98 -6l87 -15q4 -2 24 -7t29 -7q98 -31 174.5 -86t131.5 -141q12 -19 21.5 -40t18.5 -37q4 -5 8.5 -20t4.5 -17l18 -60l10 -60q3 -19 3 -33.5v-32.5q0 -30 -2.5 -58.5t-8.5 -57.5q-2 -8 -5.5 -25.5t-6.5 -21.5l-21 -54l-17 -40l-33 -49l-37 -51q-2 -3 -15 -16t-18 -19
q-53 -53 -120.5 -88t-143.5 -35q-39 0 -72.5 10t-67.5 33q-4 5 -10 11t-11 10l-4 8l-2 2q-88 -68 -195 -68q-22 0 -43.5 2.5t-42.5 13.5q-36 18 -57.5 56t-21.5 77q0 32 9 62.5t19 59.5q25 53 65 97t87 75q19 12 33 18.5t30 17.5q21 9 44.5 14.5t46.5 5.5q55 0 100 -40
q14 -13 18 -23q2 0 3 -2.5t3 -2.5l11 42q0 13 9 13h75q3 0 3 -11l-89 -307l-7 -51v-26q0 -3 1.5 -5.5t1.5 -4.5q4 -13 18 -18t29 -5h17q72 0 131 35q5 2 21.5 14t21.5 16q39 24 76 65q59 66 89 151.5t30 171.5v16l-6 57q0 4 -2 20t-5 21q-12 34 -24.5 70.5t-32.5 67.5
l-12 21t-10 16l-35 42q-2 5 -14 15.5t-15 14.5q-39 36 -80 60t-89 38q-8 5 -27 9t-24 6l-82 16l-104 10h-34h-20h-13q-8 0 -27 -3t-26 -3q-8 0 -26.5 -3.5t-22.5 -3.5l-65 -18q-4 0 -25.5 -7t-31.5 -11q-6 -2 -24.5 -11t-25.5 -13q-9 -4 -29 -14.5t-24 -12.5l-55 -41
l-55 -43l-61 -59l-45 -57l-35 -54l-32 -63q-3 -4 -9 -22.5t-11 -26.5l-17 -46q-2 -9 -5.5 -27.5t-3.5 -23.5l-10 -61v-22v-10v-9q0 -12 1 -31.5t1 -22.5l12 -68l16 -63l17 -38l23 -55q2 -4 10 -19t12 -19q14 -23 28 -42t32 -37q7 -5 17.5 -16.5t15.5 -13.5l46 -43l55 -32
l21 -10.5l25 -12.5q9 -4 28 -13t23 -11l72 -23l79 -14l73 -10h23h25h18l90 7l80 15l76 23l69 26q4 2 22.5 10t25.5 11q5 4 26.5 15t25.5 15t14.5 11t14.5 10l37 -47v-2q-10 -4 -17 -10q-6 -5 -15 -10t-13 -7q-7 -7 -23.5 -17t-21.5 -12l-79 -38l-79 -23l-75 -18l-84 -13
q-6 -2 -27 -3t-32 -1h-39h-31l-95 8zM581 489q0 -50 24.5 -95.5t82.5 -45.5q53 0 99.5 27.5t71.5 70.5q15 26 26 53t21 55q4 23 8.5 44.5t4.5 44.5q0 52 -23.5 86t-78.5 34q-45 0 -76 -16q-64 -27 -97 -77t-55 -114q-4 -17 -6 -33t-2 -34z" />
    <glyph glyph-name="A" unicode="A" 
d="M23 162q3 22 16.5 41t40.5 19q25 0 37 -17t12 -34q0 -32 -31 -32h-12q-4 0 -7.5 1.5t-8.5 -1.5v-8t3 -6v2q27 -47 87 -62.5t106 -15.5q47 0 93.5 9.5t86.5 27.5q32 17 62.5 40.5t63.5 55.5q7 6 22 24t15 23l52 67v-2q47 82 86.5 163t77.5 165q-4 -2 -12 -2h-13
q-39 -11 -84 -25t-82 -33h3q-3 -2 -15 -2q-27 0 -27 29q0 6 5 13t9 12q9 4 21.5 9t30.5 11l49 20v-2l23 9q4 2 11.5 3t12.5 3q13 4 17 6q20 6 43.5 10.5t46.5 7.5q8 17 20 34t24 36q18 28 35.5 60.5t32.5 54.5l63 87l72 89l56 59l68 56l60 36q-2 2 -2 3.5t-4 3.5
q-3 4 -4.5 4t-3.5 3h2q-7 2 -14 9t-13 9v-2q-84 60 -182 84q-73 16 -151 16q-4 0 -13.5 -1t-15.5 -1h-20q-8 -2 -18.5 -3t-17.5 -4q-19 -3 -33 -3l-18 -4q-11 0 -15 -2q-13 -6 -18 -6q-66 -20 -140.5 -55t-128.5 -76q-9 -6 -23 -17t-18 -16l-26 -25q-8 -7 -14.5 -15.5
t-11.5 -12.5t-23.5 -25.5t-22.5 -28.5q-57 -75 -80 -140q-24 -58 -39.5 -124t-15.5 -134v-26q9 -64 27 -131q11 -39 30 -80t45 -74q2 -4 12.5 -22t14.5 -22q2 -2 2 -12q0 -21 -22 -21q-12 0 -20 7l6 5q-12 11 -13.5 12t1.5 -3v-2q-3 2 -4 6t-3 8t-6 9v-3q-4 3 -6 6t-6 11
q-5 5 -5 12q-2 2 -7 11q-3 3 -3 4t-2 3l-32 70l-28 73l-16 73l-14 89q0 1 -1 2t-1 5v81l11 81q3 3 7 28q2 9 4 19.5t4 14.5q29 104 88.5 189t133.5 145q52 38 110.5 67t121.5 54q0 -2 8 0t13 4q10 2 21 7q9 4 15.5 5t10.5 4q10 2 21.5 3.5t22.5 5.5q11 2 23 5t23 8
q14 2 27 4t23.5 2t19.5 2h97l78 -6q7 0 21 -2.5t24 -8.5q6 -2 13 -2q66 -18 134.5 -50t124.5 -72q2 2 6.5 3t8.5 3q8 4 22 13t12 7l37.5 12.5t37.5 14.5l87 20q20 0 20 -20q0 -5 -2.5 -10t-10.5 -9l-50 -18q-6 -4 -15.5 -6t-17.5 -6q-13 -7 -30.5 -13t-29.5 -10l-2 -2
q-8 -7 -17 -10.5t-13 -5.5q8 -6 22.5 -21t21.5 -25q5 -7 16.5 -20t15.5 -17q53 -77 78 -159.5t25 -184.5l-7 -105q9 -4 16.5 -4t16.5 -2t15 -4.5t16 -4.5q11 -4 20 -10t9 -18q0 -28 -35 -28l-68 18q-8 -46 -18 -89.5t-17 -87.5q-10 -47 -17 -91.5t-18 -88.5l-13 -103v-58
q0 -4 5.5 -18.5t13.5 -21.5q34 22 62 70t47 87q4 16 13 16q21 0 21 -28q-3 -23 -17 -43l-2 -4q0 -2 -1 -3t-1 -3q-4 -8 -4 -11q-7 -17 -22 -40.5t-35 -42.5t-40.5 -33.5t-44.5 -14.5q-32 0 -49 14.5t-25.5 34.5t-12 46t-3.5 45v32q0 4 1.5 9t1.5 9q6 24 6 29q9 42 18 89.5
t19 93.5q12 57 23.5 112t22.5 108q-9 2 -21.5 2h-20.5h-20q-46 0 -94.5 -9t-94.5 -22h-2q-1 0 -2 -1.5t-3 -1.5q-2 -3 -13 -3q-5 0 -9 -3l-9 -9l22 -38t11 -42q0 -43 -25.5 -82t-70.5 -39q-41 0 -63.5 30t-22.5 64q0 39 9.5 61.5t33.5 49.5l-3 2q-33 14 -68 22.5t-70 14.5
q-2 0 -6 1t-8 1q-8 0 -12 2q-34 -66 -68 -135.5t-64 -130.5l-65 -100l-53 -63l-37 -41q-78 -74 -166 -117t-200 -43q-37 0 -80 6q-28 9 -56 19t-52.5 26.5t-38.5 41.5t-14 59v10zM1098 481q0 -16 6.5 -30.5t22.5 -14.5t25.5 22.5t9.5 41.5q0 30 -26 44q-12 -10 -25 -30
t-13 -33zM945 684q0 -2 3 -2h6h9q34 -5 67.5 -14t70.5 -28q3 0 7 -2q5 -1 7.5 -2.5t6.5 -3.5l9 -4q8 -6 10 -6q14 8 36 18t40 14q2 0 3 1t3 1q12 5 28.5 9t20.5 6l82 15h8q11 2 26 3.5t21 1.5h11h16.5t24.5 -3h16t13 3q0 13 1.5 25t3.5 23q4 13 4 26.5t2 26.5v20
q0 26 -3 58.5t-8 60.5q-17 61 -62 126t-93 110q-63 -38 -126.5 -97.5t-107.5 -126.5q-9 -8 -24 -30.5t-25 -36.5q-4 -4 -4 -6l-100 -186h-3z" />
    <glyph glyph-name="B" unicode="B" 
d="M21 266q0 72 36.5 126t98.5 89h-2q4 4 22 13t29 11q4 2 11.5 3t10.5 1v9q-3 16 -4 37.5t-1 39.5v12q0 4 1 20.5t4 26.5q2 13 4 35.5t5 28.5q2 10 3 17t6 19q1 7 2.5 19t6.5 19q3 8 10 28t11 29q0 -4 12.5 26.5t20.5 45.5q19 36 36.5 65t33.5 49q19 25 42.5 49t46.5 45
l5.5 5.5t8.5 4.5l30 31l9 4h-2q10 4 33.5 17.5t27.5 18.5l75 42l103 47l113 41l110 26q7 2 27 4.5t34 4.5q4 0 7.5 1t11.5 1h12.5t19.5 2q6 0 13.5 1t12.5 1h49q89 0 179 -21q10 -2 23.5 -4t17.5 -5q48 -18 95.5 -43t84 -58t59 -79.5t22.5 -104.5q0 -51 -18 -92t-50 -76
q-5 -4 -12 -9.5t-9 -7.5q-6 -9 -17 -11h3q-11 -6 -20 -11t-6 0q-33 -16 -62.5 -31.5t-60.5 -29.5h2q-13 -6 -27 -22q38 -13 74.5 -27t66.5 -33q72 -51 112 -123.5t40 -165.5q0 -84 -31.5 -157.5t-88 -131.5t-130.5 -93t-158 -35q-51 0 -108.5 20.5t-83.5 74.5v-2
q-16 26 -16 63q0 30 19 50t53 20q18 0 29 -7t16 -31q0 -40 -43 -40q-14 0 -18 2h-7.5t-6.5 2v-6q0 -21 18 -45q25 -36 67 -47t79 -11q22 0 48.5 4.5t48.5 10.5q52 23 94.5 60.5t74 85.5t48 103t16.5 108q0 56 -21 114.5t-64 98.5q-6 5 -16 14t-13 9l-146 93q-13 9 -13 25
q0 8 9 15.5t13 12.5l7 8q4 4 11 4q9 4 26 13t28 13q12 6 26 15.5t23 13.5q9 11 23 16h-2q45 31 70.5 72t25.5 92q0 27 -8 54.5t-21 51.5v-3q-23 33 -65 64t-81 53l-4 -4t-5 -4l-113 -111q-4 -2 -22.5 -23t-25.5 -34q-29 -36 -46.5 -72.5t-34.5 -73.5q-4 -7 -8 -24.5
t-4 -21.5l-73 -378l-21 -82q-1 -4 -11.5 -26.5t-15.5 -34.5q-25 -45 -52 -88t-52 -73q-5 -4 -11.5 -10.5t-11.5 -12.5q-4 -5 -7.5 -9t-5.5 -6q-39 -44 -96.5 -81t-123.5 -60q-8 -2 -26.5 -9.5t-22.5 -9.5l-73 -18l-107 -8h-34q-46 0 -89 4t-85 19q-84 26 -139 91.5
t-55 151.5zM1373 1286q-27 11 -53.5 18t-51.5 13q-20 4 -52.5 5.5t-55.5 1.5q-12 -1 -26 -2t-23 -1q-13 -2 -26.5 -2h-22.5q-14 -2 -26.5 -5t-27.5 -5q-11 0 -27 -4t-27 -6q-11 -4 -25.5 -6t-25.5 -7q-13 -5 -27 -7.5t-27 -4.5q-9 -4 -21.5 -11t-25.5 -11l-26 -8t-24 -9
q-13 -5 -30.5 -13t-33.5 -17h3l-77 -38q-5 -2 -9 -7t-11 -8.5t-11 -8.5q-4 -2 -8.5 -4.5t-10.5 -5.5q-6 -4 -6 -6q-103 -79 -170.5 -186.5t-96.5 -226.5q-6 -32 -8 -62t-2 -60v-62q13 0 27 4q7 2 15 3t15 2q2 0 13 1t25 4q11 4 20.5 5t17.5 1h60q4 0 11 -1t18 -1
q10 -4 21.5 -4h14.5q11 0 27 -5q6 0 9.5 -0.5t7.5 -0.5q20 -4 24 -4q25 -6 61 -17.5t57 -24.5q8 0 19 -9q3 -2 8 -2q5 -5 7 -5q15 -11 15 -30q0 -28 -27 -28q-12 0 -16 5l-15 10t-19 9q-6 6 -23.5 12t-30.5 11q-3 0 -4 1t-2 1q-5 2 -18.5 5.5t-17.5 3.5q-71 16 -150 16h-20
q-34 -3 -67 -5t-68 -13q21 -49 61 -90t87 -62q9 -5 9 -22q0 -25 -28 -25h-9q-66 28 -109 75t-67 108q-9 -5 -22 -11t-22 -14q-54 -27 -88.5 -70t-34.5 -97q0 -61 34.5 -108t88.5 -72q26 -11 51.5 -17.5t52.5 -10.5q11 -2 38.5 -4.5t37.5 -2.5h30q154 0 286.5 64.5
t205.5 206.5l16 30q5 12 14 30.5t11 25.5q4 12 6.5 26t6.5 28q5 14 8 28.5t8 27.5q10 40 18.5 82.5t18.5 87.5t19 88t17 83l23 80q0 15 7 22l5 4l5 15q27 59 63.5 111t78.5 92q2 3 2.5 3t4.5 4q5 5 14 7h-2q8 6 18 15t12 11q6 3 12.5 7.5t12.5 9.5q4 4 13 9t14 13q7 4 16 8
t22 13z" />
    <glyph glyph-name="C" unicode="C" horiz-adv-x="1045" 
d="M19 511q0 11 2 35t5 33q2 8 3 18t3 21q3 12 4 22t4 19l13 66l33 85l43 77l59 102l58 75l39 44l77 75l79 59l68 41l70 38l61 25q4 3 23 8.5t28 7.5q31 13 66 16t68 3q134 0 211 -70.5t77 -204.5q0 -58 -15 -114q-2 -12 -7 -33.5t-7 -25.5q-6 -7 -7 -17t-6 -18
q-9 -24 -11 -34q0 -8 -6 -13q-2 -4 -5.5 -10.5t-7.5 -13.5l-8 -17q-4 -14 -12.5 -27t-15.5 -22l-20 -26q-9 -15 -20 -23l-20 -28q-6 -11 -16 -22.5t-18 -20.5t-12.5 -12t-0.5 3l-17 -18l-54 -39q-2 -3 -4 -3t-4 -2q-4 -6 -10.5 -9t-6.5 -5q-80 -49 -182 -49q-19 0 -43.5 3
t-46.5 12q-63 32 -87.5 86.5t-24.5 113.5q0 116 68 204.5t166 139.5q11 8 23.5 15t30.5 11q-2 0 6 4l13 5q8 3 24 3q5 0 10.5 -1.5t5.5 -6.5q0 -6 -3 -10.5l-5 -7.5q-13 -7 -22 -16q-13 -8 -22 -15.5t-20 -11.5q-9 -6 -17.5 -12t-19.5 -13q-4 0 -19 -12.5t-19 -17.5
q-56 -47 -82 -99q-23 -40 -37 -87t-14 -95q0 -34 9 -61q2 -4 9.5 -15.5t16.5 -21.5q21 -24 54 -42t60 -18q37 0 82 21t84 49q72 52 126 117v-3q5 14 15 27l9 9v-2q21 37 37 75t28 80q20 75 20 152q0 18 -1 32.5t-4 30.5q0 4 -0.5 7t-0.5 7v17l-6 21q-28 83 -93.5 118.5
t-150.5 35.5q-59 0 -113.5 -17t-105.5 -44h2q-6 -6 -12 -10q-12 -10 -20 -15t-12 -7h2q-15 -12 -33 -25.5t-34 -23.5q-7 -7 -18.5 -20t-26 -25t-25.5 -23.5t-19 -18.5l-53 -63q-5 -5 -11 -14.5t-11 -16.5q-4 -9 -10 -17t-10 -15q-12 -17 -22.5 -37t-19.5 -31v2
q-5 -11 -11.5 -21t-10.5 -23q-4 -11 -10.5 -21.5t-10.5 -21.5l-13 -40q-11 -26 -13 -43l-21 -88l-4 -24t-4 -23l-11 -47v-14q0 -9 -1 -17.5t-1 -15.5v-48q0 -53 10.5 -111t33 -110t58.5 -96.5t90 -72.5q34 -12 73 -20t77 -8q117 0 213 62.5t170 152.5q4 5 7 12t8 11l29 28
q0 14 9 25q12 10 12 12q4 18 17 18q16 0 22 -24v-12q-4 -5 -14 -25t-14 -26q-5 -2 -13 -13t-12 -21q-2 -2 -2 -2.5t-3 -1.5l-2 -3l-47 -56l-53 -51l-43 -32q-5 -5 -13.5 -10t-14.5 -9q-8 -9 -30 -19h2q-9 -9 -25 -14q-5 -2 -11 -4t-10 -2q-45 -22 -98 -33.5t-100 -11.5
q-70 0 -146 26q-32 11 -65 25t-53 31q-45 40 -82 94q-45 69 -61 147t-16 158v30z" />
    <glyph glyph-name="D" unicode="D" horiz-adv-x="1371" 
d="M77 131q0 21 8.5 35t21.5 28q30 26 77 32.5t82 6.5h34q6 0 10.5 -1t9.5 -1h9l65 -13q5 -3 10.5 -3t11.5 -4q13 -4 23 -4l57 -25l79 -38q12 8 23 16q16 11 30 24q2 2 13 13.5t18 17.5q20 25 40.5 50.5t33.5 45.5l4 -3l4 28q1 4 3.5 9l4.5 9q5 10 7.5 19t6.5 19q7 11 11 24
q2 11 4.5 23t8.5 23l13 49q7 39 14 81t16 79q8 43 14.5 85t14.5 82l33 105l37 87q2 5 12.5 26.5t17.5 29.5l-2 2q19 30 45.5 64t45.5 53q4 9 12.5 16t15.5 14l8 7q6 6 8 10q-6 0 -6 2q-2 2 -5 2t-5 6q-5 4 -7 4q-54 33 -115.5 49t-123.5 16h-28q-4 0 -8.5 -1t-8.5 -1
q-20 0 -22 -2l-79 -10q-13 -6 -29.5 -9.5t-28.5 -8.5q-17 -4 -31 -7t-29 -9q-2 0 -12 -2.5t-20 -6.5l-27 -8q-4 -2 -13 -8t-11 -6q-80 -38 -148.5 -93t-125.5 -140v4q-4 -8 -9.5 -16t-11.5 -20q-2 -4 -3 -5.5t-3 -5.5q0 -3 -2 -5.5t-2 -5.5q-4 -11 -15 -32t-13 -25l-25 -70
q-7 -13 -8 -23t-6 -21l-6 -29q-2 -8 -5 -13q0 -5 -3 -25.5t-6 -33.5v-17.5t-3 -16.5q0 -5 -1 -10t-1 -9v-12q0 -43 7 -87.5t25 -82.5q19 -33 47.5 -58.5t65.5 -45.5q0 -2 5 -2q2 -2 9 -2l2 -4q10 -4 17 -5t17 -5q2 0 6 -2q9 -5 16 -5q3 0 5.5 -1t4.5 -1q14 -5 21 -5
q8 -2 19 -6.5t11 -19.5q0 -19 -28 -19q-89 12 -154.5 52.5t-111.5 114.5q-21 39 -30.5 86t-16.5 96v73l7 68q2 3 7 29q3 6 3 19q3 4 6 20t3 21q2 8 4.5 19.5t6.5 20.5q0 2 1 3t1 4t3 5q10 18 15 29l16 31l39 71l34 47l42 50l53 47l58 42l38 23l105 56l89 32l96 30l85 15
q7 2 29.5 4t29.5 2h62q8 0 30 -2t33 -4q20 -2 45 -7.5t44 -13.5q35 -16 72.5 -34.5t60.5 -36.5q4 4 9 6q24 12 43 29l10 5h-2q7 6 25 11q9 4 12 6q8 10 26 10q10 0 14.5 -8t4.5 -15q0 -4 -1 -9t-10 -7q-6 -6 -26 -16t-27 -15q-11 -5 -23.5 -13.5t-19.5 -18.5q10 -10 22 -27
t25 -28q12 -13 17 -21q4 -6 15 -27.5t19 -42.5l4.5 -9l4.5 -9l6 -9q6 -15 10 -38q0 -2 1 -3.5t1 -4.5q0 -2 3 -5q5 -13 11 -37.5t6 -29.5l6 -40q2 -11 4 -20l4 -18l5 -73v-81l-7 -91q0 -6 -4.5 -34.5t-7.5 -43.5q-2 -10 -7 -32.5t-10 -35.5q-3 -5 -3 -9q-2 -11 -11 -43
t-14 -43l-10 -19v2q-12 -22 -14 -28q-31 -67 -80.5 -129.5t-110 -108.5t-130 -73.5t-146.5 -27.5q-46 0 -94 11t-90 27q-6 0 -16 3.5t-21 8.5l-8 5q-4 -5 -14 -7.5t-16 -6.5q-15 -7 -32.5 -13t-28.5 -11l-59 -17h2q-2 -5 -30 -9q-2 -2 -7 -2h-9q-16 -4 -35 -4h-33
q-45 0 -96 10q-18 9 -39.5 18t-40 23t-30 34t-11.5 46zM135 129q0 -11 12 -22q27 -30 69.5 -39.5t81.5 -9.5q42 0 77 7.5t71 20.5q12 5 31 11t19 8t-26 15t-39 17l-8 5q-5 2 -6 2t-7 3q-23 7 -25 9q-31 6 -59 13t-57 7q-47 0 -87 -10q-16 -4 -31.5 -11.5t-15.5 -25.5z
M385 160q-5 0 0 -4v4zM682 98q6 0 9 -2q2 0 2 -1t2 -1l27 -8q30 -9 83 -9q57 0 110 19.5t102 53.5q6 4 17 14t14 12q56 51 102 109l5 -2q2 4 8.5 19t10.5 25q9 16 22.5 43t24.5 44q2 2 3 8.5t4 16.5l10 26q2 4 2 9q4 11 10 36.5t6 28.5l20 113l7 102v48q0 5 -1 11t-1 10v10
l-7 75l-4 18t-4 19l-10 42q0 5 -6 26.5t-10 29.5q-14 45 -47 92.5t-66 83.5q-5 -5 -9.5 -11.5t-6.5 -10.5q-70 -68 -108 -167q-4 -11 -13.5 -34t-11.5 -31q-5 -11 -7.5 -18.5t-5.5 -17.5q3 6 -1.5 -13.5t-6.5 -25.5q-9 -47 -16.5 -97.5t-17.5 -97.5q-9 -51 -17 -99t-14 -93
l-24 -70q-2 -8 -10.5 -26t-12.5 -25v3q-20 -45 -52 -89t-58 -74q-7 -7 -21.5 -20.5t-18.5 -17.5q-7 -4 -15.5 -13t-14.5 -14t-9.5 -7t0.5 2q-12 -8 -17 -14.5t-13 -12.5l2 -3z" />
    <glyph glyph-name="E" unicode="E" horiz-adv-x="1029" 
d="M10 378q0 55 19.5 106.5t49.5 99.5t68.5 88t81.5 70q2 2 7 5q4 2 5 3.5t5 3.5l3 3l20 8l8 5q8 2 26 11l19 11l39 13t45 16q23 6 43 14t40 14q16 5 43 23h4q-23 9 -48.5 18.5t-43.5 19.5q-45 23 -74.5 58t-29.5 86q0 57 24 113q50 103 147.5 158.5t208.5 55.5
q74 0 142.5 -26t105.5 -89q17 -31 17 -67v-9q-2 -18 -18.5 -37.5t-40.5 -19.5q-12 0 -25.5 6t-13.5 26q0 30 39 30q7 0 11 -2h4v8q0 20 -8 37q-7 6 -10 16v-2q-2 2 -3 6t-6 8q-40 38 -90 54t-102 16q-55 0 -107.5 -21.5t-94.5 -58.5t-66.5 -87.5t-24.5 -108.5
q0 -45 14.5 -77.5t67.5 -45.5q4 -4 18.5 -9t20.5 -5q10 -4 23.5 -12t13.5 -21q0 -16 -7.5 -27.5t-15.5 -15.5q-6 -6 -12 -6l-18 -8q-21 -16 -56.5 -32t-59.5 -29q-26 -13 -57.5 -28.5t-54.5 -27.5h2q-2 0 -5 -2q-5 -4 -9 -4l-3 -2q-4 -4 -8 -9q-2 0 -8 -4
q-164 -114 -164 -296q0 -74 28 -140q5 -13 17.5 -37t23.5 -42l42 -43q-2 5 11.5 -8t23.5 -18q9 -6 17.5 -13t14.5 -12h-2q53 -26 108.5 -33.5t113.5 -7.5h21l68 4q-3 0 3 1t15.5 2t18 3.5t11.5 2.5q6 2 15.5 4.5t15.5 2.5q51 21 99.5 54t89 77t63.5 94t23 109
q0 49 -14.5 95.5t-43 83t-71 56.5t-95.5 20q-96 0 -176 -56.5t-132 -139.5q-4 -5 -12.5 -17t-8.5 -16l-14 -28q-3 -5 -4 -8.5t-3 -8.5l-4 -8q-2 -2 -2 -8q0 -4 -1 -8t-1 -6q-6 -8 -6 -10q-4 -9 -14 -13q-2 0 -7 -2q-21 0 -18 25l21 64q0 11 6 17v-2q6 12 8 13.5t4 5.5
q2 3 6 7l4 10q55 101 149.5 166.5t204.5 65.5q72 0 132.5 -32.5t96.5 -100.5q23 -38 32.5 -81.5t9.5 -88.5q0 -123 -72.5 -210.5t-184.5 -136.5q-110 -47 -233 -47h-28q-9 0 -32.5 2t-38.5 4h-11t-10 2q-4 0 -6.5 1t-6.5 1t-14 7q-4 2 -8 2l4 -2q-12 2 -20.5 3t-20.5 6
q-21 4 -44 14q-2 3 -21 8t-25 8q-5 0 -24 9q-32 12 -37 17q3 -2 -7.5 7t-16.5 14q-5 4 -19 17t-18 17l-5 -4q-47 47 -68.5 111t-21.5 134z" />
    <glyph glyph-name="F" unicode="F" horiz-adv-x="1092" 
d="M19 283q0 81 44 147t108 109q5 0 13 11q21 14 21 8q2 0 6 2q11 2 29 12l6 5l1 2q-27 51 -45 110.5t-18 122.5q0 78 23.5 147.5t61.5 132.5q2 2 7 9t9 17q0 4 6 11q3 2 17 19q5 5 9 14q8 8 10 8l19 20q12 11 16 11q10 9 16.5 15.5t13.5 9.5q7 4 12.5 11t13.5 11l54 38
q2 0 4 3q2 0 11 4v-2q5 4 13.5 8.5t12.5 7.5q41 17 91 34t93 25q11 2 22.5 3.5t15.5 1.5h61l91 -13l201 -39h8q12 -2 27 -3t20 -1h45q5 0 8 1t7 1h11q19 4 39.5 8t43.5 8q22 3 42.5 9.5t41.5 11.5q17 0 19 -18v-12q0 -58 -40 -94q-2 -2 -3 -2t-3 -2l-5 -3q-5 0 -14 -4
q-16 -14 -47.5 -26t-47.5 -21q-2 -2 -7 -5q-5 -2 -9.5 -6t-9.5 -8q-49 -33 -81 -85.5t-49 -106.5q-3 -9 -6.5 -24.5t-3.5 -19.5l-20 -130q20 0 51 -1t55 -1h110q16 -11 16 -28q0 -10 -4 -16t-18 -13h-216q-3 -18 -5 -39.5t-4 -38.5q-4 -20 -5 -40.5t-4 -37.5l-15 -78
q0 -5 -3 -9q0 -2 -2 -5.5t-2 -5.5q-3 -5 -4 -12t-3 -11l-4 -12v2q-5 -8 -12 -25t-9 -22l-41 -79l-32 -46q-7 -7 -11 -15q-9 -9 -18.5 -21.5t-14.5 -21.5q-5 -2 -12 -9.5t-17 -17.5l-18 -18q-10 -8 -28.5 -22.5t-22.5 -18.5l-49 -39q-2 -2 -4 -2t-3 -1t-6 -1q-2 -2 -5 -4.5
t-8 -7.5q-136 -70 -280 -70q-68 0 -142 19q-46 13 -90.5 35.5t-80 56t-55 77t-19.5 95.5zM60 283q0 -80 59 -136t130 -85q80 -15 157 -15q116 0 229.5 54.5t185.5 152.5q24 40 46.5 87.5t32.5 83.5q0 2 1.5 4t1.5 7q3 8 5 17t4 16q5 20 9 25h-2l40 234h-189q-23 0 -23 29
q0 6 3.5 14t8.5 10l8 6h198q3 7 5.5 15t5.5 13q7 25 15 54t14 54l34 87q0 2 1 3.5t1 3.5q4 18 11 31q2 4 2 6t2 6q0 2 4 4q21 32 46 61.5t49 48.5q5 2 12 7t9 7q5 2 10 7q2 2 4 2l119 53q2 2 7 4t7 8h-2q6 6 15.5 17.5t14.5 19.5q-5 -2 -15 -2q-1 -2 -5 -2h-8
q-32 -6 -69 -13.5t-71 -13.5l-89 -12h-71l-319 35q-82 0 -157 -28t-139 -77q-34 -38 -67 -84t-57.5 -95.5t-38.5 -100t-14 -96.5q0 -61 16 -119q5 -14 11 -27.5t13 -25.5q18 -35 25 -43q17 6 35 12q7 2 12 3t11 1q4 0 5 1.5t3 1.5q10 2 17.5 3t9.5 3l78 6h22q154 0 287 -72
q18 -4 18 -22q0 -4 -10 -12.5t-14 -8.5q-3 0 -7 2q-57 31 -128 50.5t-143 19.5q-67 0 -130 -17q-8 0 -18 -2t-17 -4q37 -32 91 -62.5t102 -44.5q6 -2 12.5 -2t15.5 -3q8 -2 14 -2q13 -2 23 -2t22 -2l22 -2t23 -1q4 -3 10.5 -8.5t6.5 -14.5q0 -10 -6.5 -13.5t-10.5 -3.5h-12
h-43.5t-42.5 2q-80 15 -149 47.5t-128 89.5h-6q-2 0 -4.5 -1t-4.5 -1q-10 -4 -10 -6l-14 -8q-7 -2 -11 -4q-69 -37 -118 -96.5t-49 -138.5zM923 494h-2h2z" />
    <glyph glyph-name="G" unicode="G" horiz-adv-x="1076" 
d="M15 192q0 32 10 56.5t24 42.5q24 38 60 61q49 35 118 50.5t137 15.5q25 0 51 -2t50 -10q114 -12 196 -81h-2q8 -10 8 -14q0 -20 -27 -20q-131 94 -278 94q-35 0 -67.5 -3.5t-65.5 -15.5q-31 -8 -62.5 -23.5t-57 -37.5t-43 -51.5t-17.5 -65.5q0 -57 46.5 -92.5t98.5 -46.5
q53 -12 114 -12h23q5 0 8.5 1.5t8.5 1.5q16 0 18 3l70 8l26 7q7 2 15 3t15 4q11 3 34 12q22 9 30 14q6 5 22.5 11.5t22.5 10.5q94 58 158 144l13 20q15 21 17 23l38 78q11 23 20 53.5t19 55.5q4 20 10.5 38.5t10.5 38.5q5 19 10.5 36.5t10.5 36.5l-27 -28q-11 -8 -19 -16
t-15 -14l-53 -41q-2 -2 -12 -7t-21 -11q-2 -2 -3 -2t-4 -3q-50 -28 -109.5 -46t-116.5 -18h-13q-4 0 -5 1t-3 1h-20q-2 0 -6 -2h-3q-2 0 -4 1t-5 1q-7 2 -15 2h-12q-136 21 -214 105t-78 225q0 22 2 44t6 47q0 5 1 6t1 3q2 5 5.5 13t3.5 12l9 27q2 6 4 15t6 13
q4 6 13.5 26.5t16.5 33.5q0 2 2 4l4 9q5 7 9.5 14.5t6.5 9.5q5 4 6 10t6 12q5 8 12 16t11 15l33 33l50 47q12 4 25.5 17t24.5 23l70 41l61 31l89 37q2 0 3 1t3 1q22 10 39 14q69 21 139 21h21q29 -2 56.5 -7.5t51.5 -17.5q46 -25 80.5 -64.5t34.5 -90.5q0 -62 -46.5 -97
t-101.5 -48q-18 0 -18 20q0 12 10 18q3 0 5.5 1t4.5 1q4 0 9 2l20 8q32 14 58 39t26 56q0 49 -40 83.5t-85 46.5q-47 13 -88 13q-61 0 -117 -16.5t-110 -44.5q-8 -5 -29.5 -16t-23.5 -15l-38 -27q-14 -6 -23 -14t-18 -14h-5q-13 -9 -10 -9q-58 -52 -102.5 -111.5
t-69.5 -124.5q-35 -84 -35 -165q0 -69 29 -135.5t90 -112.5l12 -6t14 -11q4 -2 13.5 -5.5t11.5 -7.5h-2q4 -2 13 -2q31 -7 60.5 -12.5t59.5 -5.5q42 0 95.5 16.5t92.5 33.5q7 5 25 16t31 17h-2l27 21t26 21q2 2 5 3t4 3l20 20l85 88v-3q4 14 11 19l9 10q12 11 30 11
q12 0 14 -8t2 -13q-2 -3 -2 -11v-8l-35 -150l-29 -101l-36 -85l-35 -69l-30 -51q-5 -12 -16.5 -26t-19.5 -23q-4 -9 -15 -17.5t-17 -14.5h2q-5 -4 -11.5 -9t-11.5 -10q-12 -15 -18 -19q-6 -3 -13 -6h2q-2 -2 -10 -7h2q-2 -2 -3 -4t-5 -4q-20 -13 -32.5 -23t-6.5 1
q0 -2 -5.5 -5.5t-9.5 -5.5q-13 -10 -16 -12q-4 -4 -12 -4q-39 -20 -91.5 -38.5t-97.5 -26.5q-30 -9 -62.5 -12t-59.5 -3q-28 0 -55 2t-55 6q-35 9 -69 24t-59.5 37t-41.5 52.5t-16 70.5z" />
    <glyph glyph-name="H" unicode="H" horiz-adv-x="1997" 
d="M35 275q0 89 48 162.5t105 126.5q-63 80 -104 168.5t-41 198.5q0 77 22 157q29 53 61 100t72 80q51 49 122.5 89.5t141.5 63.5q3 0 5 1t7 1q4 2 12 3t14 3q9 4 11 4q4 2 10.5 3t8.5 4l92 12l49 2h105l107 -4l188 -30q19 -7 35 -7h30q31 0 60.5 5t53.5 9h26q15 0 31.5 -3
t16.5 -24q0 -4 -0.5 -13.5t-4.5 -13.5l-10 -11q-2 -2 -5 -3t-5 -3l-4 -5l-85 -68q-53 -39 -83.5 -94.5t-40.5 -114.5q-2 -12 -6 -35.5t-4 -28.5l-16 -216q9 -2 16.5 -3.5t15.5 -3.5q23 -6 37 -6q19 -7 45.5 -15.5t46.5 -21.5h2l3 5q4 3 12 7.5t12 6.5l171 44q8 18 19.5 41.5
t22.5 49.5q12 25 25 53.5t24 51.5l56 93q5 10 12.5 23.5t10.5 16.5l26 24q2 5 10 14q0 -2 8.5 6t12.5 13l-2 4q2 0 10 8.5t12 15.5q5 4 9.5 9t7.5 8l40 36q28 21 64.5 39t74.5 18q45 0 74.5 -30.5t37.5 -75.5v-20q0 -55 -21.5 -102t-55 -85t-73 -69.5t-75.5 -54.5
q-19 -9 -35.5 -19.5t-18.5 -15.5l-37 -18l-38 -16t-23 -10q-4 -3 -34.5 -13t-44.5 -15q-4 -2 -11.5 -4t-13.5 -4q-2 -3 -11 -3q-5 -19 -11.5 -41.5t-11.5 -43.5q-7 -24 -13 -46.5t-11 -41.5q-4 -20 -7 -37.5t-7 -35.5q-3 -19 -7.5 -36.5t-8.5 -35.5q-2 -17 -4.5 -34.5
t-4.5 -36.5q-4 -17 -6 -35t-5 -37q-2 -17 -2 -36.5v-36.5v-33v-2q0 -2 1 -4t1 -5q3 -10 3 -18.5v-13.5q6 -33 26.5 -54t53.5 -21q40 0 65.5 28.5t42.5 56.5q2 6 7.5 20.5t11.5 21.5q4 13 15 34q5 14 10 26.5l7 17.5q4 12 21 12q18 0 18 -27l-27 -80q-12 -30 -33.5 -62
t-48.5 -59t-59 -43t-67 -16q-46 0 -73 26t-43 63.5t-20 80t-4 75.5v34q0 11 4 34q2 9 3 24.5t1 19.5q3 14 5.5 27t4.5 26q6 17 8 37.5t5 40.5l53 184l26 61q-22 -7 -41.5 -11t-38.5 -10q-19 -8 -39 -14.5t-40 -10.5q18 -35 18 -71t-16 -59.5t-53 -23.5q-33 0 -54 17.5
t-21 50.5q0 12 4.5 30.5t8.5 33.5q0 2 8 11q2 2 5.5 6.5t8.5 8.5l7 6q-22 15 -40 17l-68 12q-4 -22 -7.5 -42.5t-6.5 -43.5q-5 -23 -8 -46t-7 -43l-26 -107q0 -5 -5 -14.5t-9.5 -21t-9.5 -23.5t-8 -14v2q-26 -54 -57.5 -108.5t-69.5 -99.5q-91 -88 -208 -137t-252 -49
q-61 0 -121.5 17.5t-110.5 51.5t-80.5 85t-30.5 121zM77 275q0 -29 10.5 -59t28.5 -56q40 -62 116 -86.5t148 -24.5q36 0 71.5 3.5t70.5 9.5q196 56 301 246l2 5q0 2 2 4q3 0 3 3q0 2 3 5q1 4 4 7.5t4 7.5q4 8 8.5 14t4.5 10q0 8 7 21.5t11 20.5v-3q11 24 11 26l29 105
q5 26 12 55t11 57q4 31 8.5 58t10.5 55h-11.5t-13.5 2q-6 0 -11.5 1t-9.5 1h-112q-4 0 -10.5 -1t-13.5 -1q-5 -2 -15 -2h-15q-9 -2 -27 -4.5t-29 -5.5q-23 -5 -40 -5q-9 -3 -23 -5t-25 -6l-48 -15l-78 -25q-5 0 -27 -13t-35 -17q-4 -2 -12.5 -7.5t-17.5 -11.5q-4 -1 -5 -2.5
t-5 -3.5q-12 -4 -19.5 -8t-10.5 -8l2 -2q-17 -13 -35 -27t-36 -29q4 -2 9 -5t7 -3q47 -30 98 -47t107 -22q11 -2 38.5 -4t31.5 -2h103q26 0 26 -26q0 -11 -9 -16.5t-15 -7.5h-23q-4 0 -9 -1t-9 -1h-19q-2 -4 -15 -2l-26 4q-2 0 -5 1t-5 1q-8 0 -16 1.5t-14 1.5h-15
q-4 3 -33.5 5.5t-38.5 4.5q-61 12 -114.5 34.5t-97.5 55.5l-16 -14q-53 -50 -93.5 -112t-40.5 -135zM340 622l-2 4q-11 -12 2 -4zM1160 622q0 -11 10.5 -19t22.5 -8q8 0 16 8t12 17v14q0 10 -2 26.5t-16 27.5q-17 -15 -30 -30t-13 -36zM103 908q0 -78 24.5 -152t77.5 -134
q6 -6 15 -11q4 -4 11 -8q11 6 17 11.5t18 13.5q11 6 20.5 14t21.5 14l81 52q3 0 21.5 7t40.5 18q2 2 10 4t11 4q11 3 38.5 13.5t33.5 12.5l106 25l89 10l115 8l117 -3q5 27 9.5 52.5t8.5 52.5q6 27 10 55t9 56l25 88q2 7 9.5 28t11.5 28v-2q24 49 56.5 91.5t72.5 72.5
q16 11 30.5 25t32.5 25q-23 -8 -53.5 -12.5t-59.5 -4.5h-25t-30 4l-238 39q-15 0 -29.5 1t-29.5 3q-14 2 -27 2t-26 2h-16q-103 0 -215 -33.5t-199 -93.5q-11 -12 -30 -29t-23 -22l-14 -12q-4 -4 -7.5 -6.5t-5.5 -6.5q-56 -65 -85.5 -145t-29.5 -157zM1530 885
q-8 -15 -14 -30t-10 -28l49 16q53 25 106.5 55.5t104.5 66.5q29 22 56 49t49.5 58.5t38 65.5t15.5 67q0 30 -16.5 54t-48.5 24t-63 -21.5t-56 -40.5q-4 -2 -15 -13l-15 -15q-10 -17 -25 -37t-26 -36q-10 -12 -21.5 -30.5t-21.5 -35.5q-22 -31 -33 -53q-9 -16 -16 -30
t-13 -28q-4 -10 -12.5 -27.5t-12.5 -30.5zM1503 821q0 2 1.5 3t1.5 3l-5 -2z" />
    <glyph glyph-name="I" unicode="I" horiz-adv-x="1172" 
d="M6 300q0 92 55 170t127 122q64 40 141 58.5t156 18.5h49h7q-2 10 -2 20v17v16q0 65 21 128.5t49 114.5q5 13 12 26.5t11 18.5v-2q2 4 2 6.5t3 4.5q0 4 1 6l55 65q4 6 11.5 13.5t13.5 16.5l14 14t12 16l71 60q2 4 6 7q9 4 13 8q-4 -2 4.5 3t12.5 10q11 2 19 10
q26 16 50.5 29.5t64.5 29.5q7 0 38 12q6 2 12 3.5t10 4.5q5 0 15 4q4 2 6.5 2t7.5 2q67 14 136 14h28q43 -5 88 -15.5t70 -42.5q25 -25 25 -63q0 -25 -17 -46.5t-42 -21.5h-26q-1 0 -2 1t-3 1q-59 0 -94.5 -25.5t-62.5 -84.5q0 -2 -1 -3t-1 -4q-5 -7 -5 -10q-2 -2 -2 -5
q-3 -1 -3 -11q0 -2 -1 -5.5t-1 -5.5q-10 -16 -10 -21q-2 -9 -3.5 -19.5t-3.5 -22.5q-2 -10 -3 -19l-2 -18q-5 -44 -11.5 -86.5t-11.5 -86.5q-4 -47 -10.5 -89.5t-10.5 -85.5l-16 -73l-24 -84q-6 -6 -6 -11l-3 -5q-7 -17 -7 -23q-5 -6 -12 -20.5t-11 -18.5q-5 -12 -15.5 -28
t-12.5 -22q-4 -4 -10 -11t-12 -12q-13 -12 -17 -19l-52 -59l-49 -37q-13 -10 -22.5 -18t-24.5 -19l-67 -40l-66 -20q-2 0 -6 -3q-9 -5 -15 -5q-8 -4 -16 -5t-12 -4q-77 -23 -160 -23q-59 0 -118 11.5t-113 33.5q-45 13 -84.5 37.5t-68.5 56.5t-48.5 72.5t-19.5 88.5zM49 300
q0 -71 46.5 -121t102.5 -81q9 -2 25.5 -8t21.5 -10h-3q7 -3 14.5 -5t16.5 -5l35 -8q5 -2 23.5 -6.5t26.5 -4.5q24 -2 52.5 -4t54.5 -2q69 0 138.5 17.5t137.5 53.5q102 76 171 182v-2q5 7 13 26.5t10 23.5t5 15t8 21q0 3 2 7.5t2 7.5l19 75q7 46 14 95t16 96q7 49 15.5 98
t16.5 95l17 81q0 2 2 6q0 5 4 14q6 6 9.5 17t3.5 13q17 32 34 63t33 51q34 44 85 71t110 27h29q8 0 8 2q-2 0 -2 2v14q-6 9 -16 22t-21 17q-36 14 -81 18h-74q-9 -2 -20 -2t-18 -2q-12 -2 -21 -3t-19 -1q-8 -2 -17.5 -6t-18.5 -6q-12 -2 -19.5 -3t-15.5 -3q-10 0 -26 -6
q-19 -4 -26 -7q-5 0 -7.5 -1t-4.5 -1h2q-4 -5 -16 -8.5t-16 -3.5q-2 0 -7 -2t-16 -9l2 -5q-2 -2 -7 -4q-9 -4 -13 -4h-7v-2q-7 -2 -24.5 -12.5t-20.5 -15.5q-11 -5 -26.5 -17t-19.5 -17l-48 -47v2q-3 -4 -5 -10.5t-4 -8.5q-2 -3 -3 -5t-4 -4q-10 -15 -14 -19q-4 -3 -6 -8
q-56 -68 -90.5 -145.5t-34.5 -165.5v-25q0 -4 1 -5t1 -6v-25l67 -15l73 -24l77 -30l83 -42v-14q0 -21 -31 -21q-5 0 -9 5q-4 0 -4 6l-1 2q-13 6 -26.5 13t-17.5 9q-11 4 -35 16.5t-30 14.5q-11 2 -19 3t-19 5q-7 3 -17.5 6t-16.5 8q-19 0 -31 4q-6 2 -13.5 3t-11.5 4
q0 -3 1 -3t1 -2v-4q21 -55 60 -95.5t82 -70.5q7 -8 7 -21q0 -12 -6.5 -15.5t-12.5 -3.5h-15q0 2 -12 15q-52 37 -97 91.5t-72 116.5q-3 0 -6 2t-7 2h-43q-94 0 -192 -28q-2 0 -4 -3q-14 -8 -30.5 -16.5t-38.5 -24.5q-68 -41 -118.5 -109.5t-50.5 -144.5z" />
    <glyph glyph-name="J" unicode="J" horiz-adv-x="810" 
d="M15 257q0 65 21.5 118.5t54.5 102.5q36 44 71.5 82t79.5 70q-18 43 -31 94.5t-13 102.5q0 110 47 218q2 11 10.5 30t10.5 23l37 64l39 57l47 55l62 57l58 48l86 48h-3q11 4 19 10q7 5 16.5 10t15.5 9h-3q4 5 12 5q102 47 212 47q36 0 70 -4.5t74 -19.5q25 -11 49 -35
t24 -55q0 -28 -16.5 -45.5t-49.5 -17.5q-3 0 -5 1t-7 1q-6 2 -25 2q-33 0 -57.5 -19t-44.5 -46q-12 -16 -20.5 -29t-14.5 -27q-1 -4 -1 -6.5t-2 -6.5q0 -2 -4 -4q-4 -7 -6.5 -16t-0.5 -7l-15 -78q-5 -15 -7.5 -29.5t-4.5 -27.5q-8 -52 -16 -108.5t-17 -111.5
q-8 -58 -16.5 -113.5t-13.5 -107.5l-31 -140q0 -5 -10 -32t-14 -34v2q-3 -5 -6 -11.5t-5 -18.5q0 -6 -2 -10v4q-8 -18 -10 -18h4q-2 -4 -6.5 -14.5t-10.5 -14.5v2q-2 -5 -2.5 -9t-3.5 -8l-8 -19q-12 -18 -27.5 -40t-23.5 -39l-47 -50q-4 -4 -17.5 -19.5t-20.5 -21.5
q-52 -47 -114 -77t-136 -30q-111 0 -171 75t-60 182zM53 257q0 -39 13.5 -79.5t38 -70.5t60.5 -47t81 -17q43 0 87.5 15t83 43t71 61.5t53.5 73.5q3 4 5 8.5t6 12.5l8 18l38 89q9 33 16.5 67t17.5 65q11 66 24 140t26 145q13 73 26.5 145.5t28.5 139.5l26 96q0 3 2 5
q2 3 2 5t3 6q2 5 3 8.5t3 8.5l5 6q19 32 34 60t30 46q17 17 34 33t47 28q26 7 52 7q2 0 4.5 -1t6.5 -1h30q11 0 18.5 6t7.5 17q0 15 -18.5 23t-31.5 12q-30 6 -54 8.5t-49 2.5h-42t-38 -5q-5 0 -27 -4q-6 0 -15 -1t-21 -1v-4q-8 -4 -17.5 -5.5t-19.5 -8.5l-35 -10
q-6 -5 -25.5 -11.5t-31.5 -8.5q-2 0 -4 -2t-5.5 -4t-5.5 -4q-4 -5 -12 -8t-6 1q-2 -4 -17.5 -10.5t-28.5 -11.5l3 -4q-3 -4 -5 -4h-1q-85 -58 -158.5 -143t-106.5 -176q-2 -5 -4.5 -12.5t-4.5 -15.5l-10 -32l-12 -72q0 -4 -1 -10.5t-1 -10.5q-2 -10 -2 -20v-17
q0 -78 26 -154l9 -17q0 -2 2 -4q6 4 9 5.5t7 5.5l49 34l111 55q9 5 36.5 19t38.5 18l96 32q21 0 21 -21q0 -8 -6 -15l-79 -28q-10 -5 -23 -10.5t-24 -9.5t-24 -9.5t-25 -9.5q-11 -4 -23 -12.5t-25 -14.5q-15 -7 -25.5 -14.5t-18.5 -11.5q-12 -6 -20 -13.5t-19 -13.5
q-6 -4 -18.5 -12t-18.5 -12q19 -27 34 -48.5t36 -37.5q2 -6 16 -19t17 -13q9 -7 9 -18t-7 -14.5t-12 -3.5q-9 0 -11 2q-33 25 -61 55.5t-53 71.5q-53 -41 -93 -93q-51 -50 -83.5 -109.5t-32.5 -129.5z" />
    <glyph glyph-name="K" unicode="K" horiz-adv-x="1939" 
d="M28 233q0 87 41.5 151t106.5 119q-16 57 -22.5 115.5t-6.5 123.5l5 101l17 102q0 5 9.5 37.5t15.5 47.5q37 94 89.5 179.5t117.5 148.5q5 4 15.5 12.5l21 17t20 15t11.5 8.5l65 48q5 4 28 15.5t41 15.5q37 18 85.5 30t90.5 12q72 0 128 -27.5t105 -75.5q7 -8 16.5 -20.5
t19.5 -33.5q12 -19 21 -41.5t19 -44.5q10 -33 16.5 -60.5t10.5 -56.5q3 -15 5 -37t2 -27v-96l-11 -102l-25 -140l-38 -136l-36 -95l-41 -84l-42 -66l-61 -81l-35 -39l-81 -77l-75 -57l-68 -47q0 -2 -2 -2t-3 -1t-3 -1q-14 -4 -30.5 -13t-22.5 -13q-61 -23 -125.5 -40.5
t-131.5 -17.5h-27q-95 8 -159.5 56.5t-76.5 150.5v26zM1321 532q-4 16 -8 34.5t-9 31.5q-38 -15 -71 -15q-25 0 -51.5 6t-47.5 19.5t-35.5 35t-14.5 51.5q0 40 27 62t65 22q52 0 90 -35.5t61 -78.5q2 2 5.5 5t9.5 9q29 29 48 56q6 4 8 11.5t7 12.5v-2l103 329l31 84l12 16
l6 11q4 13 8 13q34 60 87.5 105t121.5 45q38 0 70.5 -12.5t55.5 -43.5q9 -13 13.5 -27.5t4.5 -34.5q0 -23 -14 -45.5t-44 -22.5q-50 0 -50 47q0 17 11 29t28 16h4q2 0 2 2h2v2q-15 19 -34 33t-40 14q-60 0 -99.5 -39.5t-64.5 -87.5q-7 -12 -17.5 -30.5t-15.5 -21.5h5
q-5 -14 -9 -28t-9 -26q-5 -15 -9.5 -29t-8.5 -25q-7 -22 -14 -44.5t-11 -44.5q-8 -22 -13 -44.5t-9 -42.5q-2 -5 -11 -20t-13 -27q-9 -26 -24 -52.5t-27 -44.5q-16 -26 -40.5 -52t-48.5 -47q16 -53 31 -106.5t34 -105.5q16 -53 31.5 -105t32.5 -106q2 -4 3 -9t3 -10
q3 -7 5 -12t4 -9q5 -9 5 -11q10 -15 25.5 -30.5t34.5 -15.5q31 0 62 31.5t47 57.5q0 2 2 6q2 6 3 7t4 5q0 5 6 11q2 13 6.5 23t17.5 10q24 0 24 -24q0 -15 -6 -28.5t-13 -20.5v2q-27 -55 -77.5 -95.5t-116.5 -40.5q-39 0 -67 25.5t-47 57.5q-2 0 -2 7q-2 2 -2 5t-4 7v-2
q-5 4 -5 13q-2 6 -5 19t-5 17l-17 82zM73 233q0 -49 18 -83t48 -57t69 -33.5t81 -10.5q38 0 71.5 4.5t66.5 8.5q93 29 175 81.5t150 125.5q9 6 32 31t28 34q5 6 21 30.5t18 29.5l41 68q4 5 15.5 30.5t15.5 33.5q3 6 6.5 17t7.5 23.5t8.5 23.5t4.5 13q4 11 6.5 24t6.5 27
q5 13 9 27t8 27q5 17 7 34t8 34q4 20 6 37t7 34q2 17 3 36.5t4 37.5q2 18 3 37.5t5 38.5v67q0 2 -2 3.5t-2 3.5v21q0 2 -1 4t-1 8q0 4 -1 9t-1 9l-5 45l-15 73q-10 8 -10 26q-2 0 -2 2v6q-3 0 -3 4q-2 3 -2 7t-2 8q-3 4 -5.5 9t-2.5 9q-31 64 -90 115t-136 51
q-65 0 -126.5 -28.5t-112.5 -69.5l-29 -28q-5 -2 -9 -7q-5 -2 -9.5 -6.5t-9.5 -8.5q-5 -8 -13 -16.5t-15 -17.5q-10 -9 -17 -17t-14 -14q-2 -2 -8.5 -11t-16.5 -18.5t-17 -20.5t-9 -15q-25 -32 -45 -69.5t-34 -69.5q0 -8 -3 -10q-2 -5 -3.5 -8.5t-3.5 -8.5q-1 -4 -6 -18
t-5 -16l-27 -91q-2 -5 -6.5 -33t-4.5 -37q-2 -8 -4 -38t-2 -41v-24q0 -53 4.5 -104.5t21.5 -104.5q44 24 101 45t108 34q45 11 95 14t94 3h22q5 0 23 -1t27 -3q7 -2 14.5 -7.5t7.5 -9.5q0 -24 -22 -26h-27q-5 0 -8 1t-9 1h-30q-92 0 -184 -21.5t-181 -68.5h3
q-5 -4 -9.5 -6.5t-9.5 -4.5q19 -58 53 -115.5t74 -111.5q4 -3 4 -13q0 -27 -24 -27q-15 0 -20 9q-37 44 -69.5 105.5t-58.5 122.5q-48 -38 -83.5 -96.5t-35.5 -116.5zM1133 695q0 -34 34 -49.5t66 -15.5q23 0 45 8h-2l5 2q0 3 -1.5 4.5t-1.5 5.5l-6 13q-18 25 -42.5 46.5
t-55.5 21.5q-17 0 -29 -9.5t-12 -26.5zM1283 638h6q0 5 -8 2z" />
    <glyph glyph-name="L" unicode="L" horiz-adv-x="1473" 
d="M6 144q0 32 13 57.5t32 44.5l5 3l4 5q28 19 62 31.5t70 17.5h13q4 0 7 1.5t8 1.5q25 5 51.5 6t50.5 1q52 0 99.5 -5t93.5 -12q43 -9 83 -21.5t86 -28.5q4 3 6.5 9.5t4.5 8.5q42 47 57 116q0 7 5 17v2q0 2 1 2t1 2q0 3 2 7q4 105 11 211.5t13 211.5l13 86l12 64l28 67
q0 4 2 6q3 6 8.5 19t7.5 17q29 47 56 81.5t53 64.5q40 34 85.5 61.5t99.5 54.5q5 0 12.5 2t9.5 4q51 21 97 30.5t85 9.5q53 0 91 -10q94 -32 138 -101.5t44 -159.5q0 -73 -21.5 -133.5t-52.5 -114.5q-33 -48 -74 -96l-29 -31q-65 -59 -142.5 -95.5t-162.5 -47.5
q-30 -6 -68 -9.5t-69 -3.5q-35 0 -35 28q0 24 30 24q12 0 24 1t25 3q12 2 27 2t27 3q7 2 17 3t18 3q9 2 19 4t18 4l15 6q2 0 4 1.5t4 1.5q9 0 16 4q33 11 68.5 26.5t63.5 39.5q78 60 122.5 142t62.5 175q3 19 4 34t1 36q0 91 -48.5 151.5t-150.5 60.5q-41 0 -82 -10t-82 -26
q-23 -11 -44 -21.5t-46 -27.5q-53 -36 -94.5 -78.5t-60.5 -95.5q-5 -6 -13 -25t-8 -24l-20 -67q-3 -5 -9.5 -32t-8.5 -38q-2 -12 -3 -40t-1 -33l-6 -271q0 -10 -1.5 -31.5t-4.5 -30.5q-13 -92 -58 -183q-4 -4 -4 -11q-15 -23 -27.5 -43.5t-25.5 -40.5q20 -11 39.5 -16
t38.5 -14q32 -14 68 -28t70 -25q11 -4 26.5 -7t26.5 -7q15 -7 29.5 -9.5t26.5 -6.5q3 -2 26 -5.5t41 -5.5q3 0 5.5 -1t4.5 -1h33q27 0 57.5 6.5t30.5 44.5q0 29 -34 37q-16 2 -37 8t-39 16t-29.5 24.5t-11.5 40.5q0 33 22 51t55 18q11 0 25.5 -5.5t14.5 -23.5q0 -19 -9 -26
h-38q-11 0 -11 -14q0 -11 10.5 -16t18.5 -8q0 -2 4 -2h16q7 -1 17 -1q45 -8 65 -33t20 -66v-16q-6 -43 -33.5 -62.5t-66.5 -23.5q-9 0 -24 -5q-2 0 -2 -1.5t-2 -1.5h-5h-52l-82 10l-93 11l-290 98l-53 -40q-2 -3 -4 -3t-3.5 -1t-3.5 -1h2q-2 -2 -7.5 -5t-11.5 -6l-17 -9
l-72 -33l-80 -26l-57 -15l-89 -15q-13 -2 -28.5 -2h-26.5h-36q-30 2 -61 11.5t-56.5 25.5t-44 42t-18.5 65zM60 144q0 -28 18 -45t42 -25.5t51 -12t47 -3.5h27q2 0 7 1t12 1l82 8q12 5 25.5 7t27.5 7l34 12q3 2 15 6q5 0 12 2.5t14 4.5q9 2 18 6v5q8 4 28.5 15t27.5 15
q-4 0 11.5 5t19.5 7t6 5.5t7 5.5h-3l9 5q-46 12 -89 29q-26 10 -49.5 17t-49.5 16h-6.5t-9.5 2q-14 5 -16 5t-3 0.5t-3 0.5q-8 1 -14 1h-15t-18 2q-3 0 -7.5 1.5t-9.5 1.5h-61q-2 0 -22 -2.5t-31 -3.5q-18 -4 -40.5 -11.5t-44 -20.5t-35.5 -32.5t-14 -37.5zM433 88v6
q-8 -6 0 -6z" />
    <glyph glyph-name="M" unicode="M" horiz-adv-x="2221" 
d="M821 742q4 39 8.5 84.5t10.5 85.5v9q0 5 0.5 9.5t0.5 6.5v58q0 43 -4 92t-16 94q-9 33 -24.5 71.5t-35.5 70.5q-45 54 -107 88t-126 34q-77 0 -141.5 -33t-115.5 -85.5t-89 -117t-55 -125.5q-41 -132 -41 -274v-36v-10.5t2 -19.5q3 -19 5.5 -40.5t4.5 -30.5
q9 -62 27.5 -125t49 -119.5t75 -104t104.5 -77.5q4 -1 5 -0.5t3 -0.5h-2q12 -4 19.5 -7t19.5 -8q4 -2 12.5 -3t15.5 -4q2 -2 12 -2q2 0 3 -2q16 -2 31.5 -5.5t33.5 -5.5q11 0 18 -10.5t7 -18.5q0 -22 -25 -28h-11q-38 0 -77 7t-73 25q-89 43 -149 110.5t-98.5 152.5
t-53.5 179t-15 184q0 86 11.5 166t40.5 162q25 67 68.5 132t100.5 116t126 83t151 32q53 0 104.5 -17.5t98.5 -46.5q18 -12 37 -31t34 -35q72 -88 100.5 -198.5t28.5 -220.5v-21l-17 -194l-120 -553q74 186 151.5 373t150.5 374l97 177q4 10 18 29.5t17 29.5q2 5 18 26
t20 30q31 29 77.5 63.5t101.5 34.5q54 0 91 -41.5t48 -86.5q4 -23 4 -43.5v-41.5v-27l-157 -885q68 164 136 338t136 336l58 115q3 4 11 15.5t13 18.5q17 20 17 22q-2 -2 7.5 10.5t14.5 22.5q2 4 5 9t8 9q5 6 9 12q33 32 81.5 63.5t92.5 31.5q43 0 70.5 -14.5t43 -40.5
t22 -60t6.5 -69v-10l-13 -102l-22 -133l-118 -434q-4 -28 -10.5 -61t-10.5 -60q0 -12 -1 -32.5t-3 -30.5v-30q0 -13 4 -26q0 -5 2 -18t7 -13q13 0 38 17q44 25 68 64.5t35 91.5q8 11 30 11q28 0 28 -27q0 -30 -16 -60q-31 -55 -77.5 -105.5t-118.5 -50.5q-53 0 -72.5 31
t-19.5 76v16l8 98l30 165l126 502q5 25 8.5 51t7.5 52q0 2 1 19t3 27v9q0 32 -7.5 60.5t-44.5 28.5q-38 0 -76.5 -27.5t-59.5 -59.5l-7 -6q-7 -9 -16.5 -19t-13.5 -14q-12 -20 -26.5 -45t-24.5 -44q-24 -45 -45 -89.5t-42 -92.5q-53 -130 -105.5 -266t-104.5 -269l-47 -91
q-2 -5 -11.5 -21.5t-11.5 -21.5q-16 -24 -40.5 -46.5t-57.5 -22.5q-18 0 -26 17t-8 33v8t3 11q38 194 83.5 398t85.5 397q4 40 9.5 81t10.5 79q6 18 6 40v41v34q-6 38 -17.5 73.5t-50.5 35.5q-22 0 -45.5 -13t-36.5 -22l-22 -22q-4 -4 -12 -19q-14 -11 -23 -23t-11 -14v2
q-15 -25 -31.5 -54t-30.5 -56q-33 -68 -67 -134t-66 -134q-59 -147 -119.5 -299.5t-121.5 -303.5l-43 -85q-2 0 -6 -8.5t-9 -19.5l-8 -9q-3 -3 -1.5 -3t-1.5 -2q-6 -12 -14 -21.5t-25 -13.5h-25q-4 0 -11.5 1t-12.5 1q-9 0 -15 2v15z" />
    <glyph glyph-name="N" unicode="N" horiz-adv-x="1673" 
d="M1331 113q0 9 1 27t3 31v11q5 33 9.5 66t11.5 58l179 646q2 9 2 20t2 17q3 16 6 31l6 30q2 10 3 27t1 24v23q0 24 -3.5 50.5t-13.5 47t-30 33.5t-49 13q-42 0 -88.5 -23.5t-75.5 -54.5l-12 -12q-5 -4 -5 -5t-4 -6l-8 -10v3q-16 -24 -29.5 -49t-28.5 -51
q-25 -50 -52 -103.5t-52 -105.5q-66 -160 -136 -325.5t-138 -324.5q-11 -27 -22.5 -56t-22.5 -51q-6 -6 -16 -22t-15 -21q-12 -16 -24 -29.5t-33 -13.5q-4 0 -8.5 1t-9.5 1q-8 5 -15.5 5h-13.5l19 101l150 606q6 45 15 94.5t15 95.5q0 25 2.5 54t2.5 53q-3 57 -7 105t-22 95
q-6 19 -19.5 47.5t-26.5 52.5v-2q-48 60 -124 97.5t-148 37.5q-87 0 -156.5 -46t-126.5 -111q-32 -41 -58.5 -80t-38.5 -79q0 -9 -2 -12q-3 -6 -6 -16t-6 -16q0 -26 -6 -32v2q-4 -23 -10 -46.5t-11 -47.5q-2 -25 -5.5 -50.5t-5.5 -51.5v-49l5 -101q4 -25 9 -51.5t9 -50.5
q5 -19 8 -35.5t7 -34.5q0 -3 2.5 -7.5t6.5 -8.5q3 -2 7 -13q4 -6 9.5 -18t3.5 -14q32 -73 95 -140.5t137 -95.5q2 0 12.5 -2.5t14.5 -4.5q7 -2 18.5 -4.5t13.5 -2.5q6 0 12 -1t13 -1q11 -2 21 -2t17 -2q9 -5 15.5 -13.5t6.5 -12.5q0 -17 -7.5 -23.5t-18.5 -6.5
q-18 0 -37 2.5t-39 6.5q-2 0 -4 1t-4 1q-19 6 -34.5 13.5t-31.5 11.5q-31 17 -53.5 29.5t-41.5 27.5q-7 7 -15 13t-17 10q-39 40 -74.5 97.5t-60.5 122.5q-5 13 -16 40.5t-11 31.5q-2 19 -5 45t-8 47q0 13 -1.5 23t-3.5 20l-7 47v105l12 114q0 5 4.5 27.5t6.5 33.5
q9 47 26 94.5t36 92.5q67 114 178 203q47 32 100 51t112 19q82 0 156 -33t133 -85q13 -12 27 -34q4 -7 9.5 -13.5t11.5 -12.5q50 -77 72 -163q11 -45 15 -90t4 -92v-26q0 -17 -1 -38.5t-4 -43.5q-3 -14 -4 -25.5t-1 -23.5l-59 -285l-90 -352l7 -2q40 103 87.5 218t90.5 220
q32 77 63.5 156.5t63.5 154.5l78 155q-7 -8 -1 1t11 14q21 30 37 53.5t24 42.5l21 31q2 2 6 3.5t6 3.5q2 3 4 3q45 38 96 62t100 24q48 0 82 -21.5t56.5 -53.5t33 -75t10.5 -84v-21q-2 -13 -3 -22t-4 -20q-2 -12 -4 -21t-2 -19q-3 -22 -8.5 -41.5t-9.5 -37.5q-5 -18 -7 -35
t-7 -32l-151 -503q-7 -38 -14 -77t-13 -77q-2 -13 -3 -31t-2 -31v-15q0 -19 1.5 -33t7.5 -21q2 0 2 1.5t2 1.5q12 2 22.5 3t21.5 14q42 30 68 69q16 24 27.5 54.5t22.5 52.5q2 13 8.5 16.5t13.5 3.5q22 0 22 -24v-9q-4 -14 -9 -32t-13 -35q-14 -30 -35 -59.5t-45.5 -53.5
t-57 -40t-66.5 -16h-13q-42 6 -55.5 37t-13.5 68v8z" />
    <glyph glyph-name="O" unicode="O" horiz-adv-x="1346" 
d="M51 311q-8 32 -16.5 67.5t-13.5 72.5q-2 2 -2 4v7v10v33q0 113 39 223q0 3 10 19q2 5 3.5 8.5t3.5 7.5q0 2 1 3t1 4q7 15 19.5 37.5t10.5 17.5q11 18 27 44.5t26 44.5l69 78l56 53l55 49l66 47q4 4 13.5 8t16.5 4q5 2 12 4.5t12 7.5l23 11q2 0 3 1t3 1q14 5 30.5 11
t30.5 8q6 0 10 2q2 0 6 4q21 22 50.5 42.5t64.5 38t69.5 33.5t64.5 27q26 10 55.5 12t60.5 2h40q62 -7 115 -31q36 -18 63 -38.5t48 -42.5l20 -18q57 -80 81.5 -172.5t24.5 -199.5v-31l-8 -81q0 -5 -6 -19l-14 -69q-4 -10 -5 -16t-4 -8h3q-11 -21 -18 -44.5t-19 -43.5
q-4 -10 -10.5 -24.5t-13.5 -30.5q-5 -15 -12.5 -31.5t-12.5 -28.5l-58 -83l-49 -63l-44 -45l-63 -64q-2 -3 -15 -12.5t-24 -17.5q-9 -9 -17 -13q-4 -2 -9 -5.5t-10 -7.5q-11 -7 -25.5 -12.5t-18.5 -7.5l-13.5 -9t-15.5 -9q-8 -5 -16 -8.5t-15 -9.5l-61 -19l-70 -24
q-8 -2 -23.5 -5.5t-25.5 -5.5q-4 0 -8 -1t-8 -1q-11 -2 -31.5 -4t-24.5 -2h-30q-120 0 -225 44t-176 132q-20 25 -38.5 60t-37.5 75zM116 503q0 -48 6.5 -92.5t24.5 -85.5q47 -131 153 -199t241 -68q15 0 40.5 1t44.5 3q90 20 166 60q4 0 26.5 11t26.5 15l55 32h-2
q8 4 14.5 10t16.5 13q6 4 13.5 11.5t14.5 12.5l58 56l54 60q5 5 10 11t9 12q10 12 18.5 24.5t17.5 23.5q5 6 10 15.5t9 18.5q7 12 13 20t6 13q5 4 13 24.5t13 28.5q5 5 12.5 27t9.5 26q7 11 10 30.5t3 22.5l10 76q0 12 1 21.5t4 21.5q2 11 2 22t2 21v79q0 4 -1 8.5t-1 8.5
l-5 33q-2 17 -4.5 36.5t-4.5 37.5q0 3 -0.5 13.5t-2.5 14.5q-4 5 -4 12q-5 5 -10.5 20.5t-7.5 24.5q-41 82 -115 145.5t-169 63.5q-45 0 -85 -10.5t-80 -26.5q-3 0 -4 -3t-4 -3q-5 -4 -12 -8t-26 -15l-37 -23h28t23 -5q21 -4 21 -22q0 -30 -27 -30h-37q-6 0 -8 1t-6 1h-33
q-4 0 -15.5 -3.5t-19.5 -8.5q-6 -4 -6 -5q-2 -2 -3 -4.5t-3 -4.5q-11 -11 -18 -22t-9 -15q-12 -18 -23 -38.5t-24 -45.5q-2 -3 -3 -6t-3 -7q-7 -10 -7 -12q-11 -38 -16.5 -72.5t-5.5 -69.5q0 -39 10 -83t32.5 -81t56.5 -61t79 -24q32 0 60.5 17t52.5 40.5t43 56.5t32 64
q0 4 3 15q4 13 4 17l9 60q3 12 14 17.5t17 5.5q11 0 21.5 -7.5t10.5 -26.5q-7 -51 -27 -107t-52.5 -101t-80 -75t-109.5 -30q-61 0 -104 28.5t-72.5 73t-43.5 98.5t-14 103q0 78 23 148.5t64 134.5q-7 -2 -9 -3t-7 -3q-48 -26 -94.5 -59.5t-86.5 -75.5q2 2 -2 -2.5t-9.5 -13
t-12.5 -16.5t-11 -12l-7 -6h-2q-5 -4 -10 -11.5t-7 -15.5q-5 -6 -9.5 -11t-6.5 -8q-5 -13 -9.5 -20.5t-10.5 -15.5l-8.5 -17t-8.5 -15q-4 -4 -6 -12q-2 -5 -5 -10t-5 -10q-2 -6 -2 -8.5t-3 -4.5q-2 -2 -2 -4q-3 0 -3 -7q-22 -57 -31 -117q-2 -9 -6 -33t-7 -28q0 -6 -2 -16.5
t-2 -16.5q-2 -13 -2 -19.5v-14.5v-15zM259 937l3 -4q4 6 4 8t-7 -4z" />
    <glyph glyph-name="P" unicode="P" horiz-adv-x="1506" 
d="M17 320q0 77 41.5 137.5t101.5 100.5l51 19q22 6 43 15q5 3 14 4.5t21 6.5q5 0 7 1t7 1t8 2q-17 36 -26.5 80t-9.5 83q0 71 23.5 136t61 120t87 101.5t105.5 80.5q6 0 10 2q0 4 7.5 7.5t11.5 7.5q6 3 19.5 9t19.5 10h-2q2 2 20 8q5 2 8.5 2t7.5 8q5 2 11 4l12 4q7 2 11 4
l86 33l82 22l89 13q3 0 6 1t8 1q12 2 25 2h17h70q7 0 23.5 -1t29.5 -3q12 -2 19 -2l62 -11q5 0 23 -5t26 -9q29 -14 60.5 -29.5t51.5 -29.5q59 -39 90.5 -104.5t31.5 -143.5q0 -45 -9 -91.5t-25 -86.5q-2 -11 -13.5 -32.5t-15.5 -25.5v2q-20 -37 -47 -74t-59.5 -65
t-71.5 -45.5t-85 -17.5q-19 0 -37.5 2.5t-38.5 8.5q-2 0 -3.5 1t-4.5 1q-14 4 -24.5 12t-10.5 21q0 28 33 28q48 -16 89 -16q56 0 99 34.5t78 79.5q37 48 56 105t19 112q0 82 -42 163v-2q-54 92 -154.5 132.5t-203.5 40.5h-20q-5 0 -11 -1t-10 -1q-13 0 -17 -2
q-9 -2 -12.5 -1t-5.5 1l2 -2q-8 0 -28.5 -3t-24.5 -5l-85 -25q-24 -8 -44 -14.5t-45 -15.5q-8 -3 -23 -7q-5 -2 -10.5 -5.5t-9.5 -3.5q-4 -2 -12.5 -5.5t-10.5 -5.5h2l-14 -4h2q-2 0 -3 -2q-5 -5 -9 -5h2q-10 -5 -17.5 -9.5t-11.5 -6.5q-14 -10 -29.5 -20.5t-27.5 -20.5
q-6 -7 -18 -16h2q-6 -4 -9.5 -6.5t-7.5 -7.5l-37 -37q-5 -4 -12 -11.5t-9 -11.5q-52 -56 -84.5 -128.5t-32.5 -149.5v-30q0 -5 1 -6.5t1 -6.5v-8q2 -6 3 -17t1 -16q0 -6 3 -16.5t5 -16.5l4 -6v3q4 -3 4 -4.5t2 -4.5q0 -12 12 -16h10q5 0 8.5 1t8.5 1q17 2 36.5 4t38.5 2
l84 -6q4 0 26.5 -3t33.5 -6q77 -13 156 -53q5 -4 10 -10.5t5 -17.5q0 -30 -22 -30h-6t-7 3q-2 2 -19 10.5t-21 12.5q-28 13 -64 20.5t-69 11.5q-25 6 -53 9t-56 3h-45l-28 -8v-2h4q0 -2 5 -6q50 -60 113.5 -87.5t130.5 -37.5q19 -6 19 -28q0 -23 -28 -23q-95 7 -178 53.5
t-134 126.5q-46 -10 -91.5 -31.5t-83.5 -52t-62 -70.5t-24 -87q0 -77 53 -140.5t124 -88.5q12 -6 26 -8q2 -3 12 -3q2 0 4 -2q19 -5 31 -7q18 -6 30 -6q10 -2 20 -2q6 -2 15 -2h14q9 -2 18.5 -2h21.5q93 0 179 38q19 6 41.5 17t39.5 22q53 36 88.5 77.5t61.5 95.5
q10 9 15 23q4 5 6 14t6 17q7 10 12.5 24.5t9.5 18.5q31 119 61 247q17 64 31.5 127t32.5 121l22 75l49 101q2 7 9.5 22t11.5 19q18 26 40.5 54t49.5 48q5 4 15 8.5t18 4.5q26 0 26 -25q0 -10 -10 -17q-29 -26 -53.5 -51.5t-45.5 -62.5q-7 -8 -7 -14q-3 -6 -5 -13.5t-5 -13.5
q-5 -8 -9 -18q-5 -12 -8 -27t-8 -27q-5 -13 -7 -26.5t-8 -24.5q-10 -46 -18.5 -98.5t-19.5 -101.5q-12 -54 -21 -104t-16 -97q0 -4 -6 -24q-5 -23 -7 -32t-4.5 -18.5t-2.5 -5.5q-18 -47 -43 -99.5t-54 -89.5q-8 -9 -21 -23t-17 -19l-25 -24q-5 -8 -12.5 -14t-11.5 -10
q-4 -3 -22 -18.5t-23 -20.5q-17 -11 -49 -27t-64 -33q-111 -51 -225 -51h-33q-45 4 -85.5 12.5t-81.5 22.5q-94 30 -156.5 106.5t-62.5 178.5z" />
    <glyph glyph-name="Q" unicode="Q" horiz-adv-x="1351" 
d="M376 -84q-28 -23 -42 -45q-43 -29 -92.5 -49t-108.5 -20q-37 0 -75.5 21t-38.5 66q0 27 13 45.5t32.5 32.5t43 23.5t42.5 13.5q21 4 41 4h42h33h11t14 -2q12 -2 24 -3t16 -1l12 -4q9 -4 11 -4l10 8q6 6 12 17t11 21q-41 11 -87 29.5t-73 41.5q-22 18 -39 32.5t-32 32.5
q-4 6 -13.5 17.5t-15.5 24.5q-5 4 -11.5 13t-8.5 14q0 2 -2 9.5t-5 11.5q-32 61 -44.5 121.5t-12.5 127.5q0 107 31 205.5t84 185.5q69 89 155 162t196 113q4 0 22.5 6t24.5 10q2 0 12.5 1t12.5 3q78 71 161 112t193 41q104 0 178.5 -43t121 -112.5t68 -158t21.5 -178.5v-32
l-7 -86q0 -3 -4 -25t-9 -33q-3 -13 -8 -32.5t-10 -31.5l-32 -88l-40 -98l-57 -78l-63 -83l-71 -68v2q-4 -4 -23.5 -22t-31.5 -31l-6 -4t-8 -5q-4 -5 -9.5 -8.5t-9.5 -7.5q-6 -4 -12 -9q-11 -9 -34 -21.5t-35 -16.5q-60 -33 -132 -53.5t-145 -20.5q-59 0 -135 16
q-3 -5 -9 -16q-4 -8 -13 -31q67 -22 142.5 -46t145.5 -44l44 -16q11 -2 20 -4t22 -4q11 -4 21 -5.5t23 -3.5q3 -4 9 -4q4 0 10.5 -0.5t10.5 -0.5q19 -3 24 -3h43q143 0 208 129h22l-3 -3q-2 -4 -2 -11q-3 -6 -3 -10v-6q-24 -72 -71.5 -124t-120.5 -68q-15 -3 -30.5 -3h-34.5
h-19q-11 0 -32.5 1.5t-27.5 4.5q-23 4 -32 6q-8 3 -17 5t-13 4zM75 -109q0 -20 20.5 -26.5t35.5 -6.5q45 0 92.5 20.5t82.5 53.5q-10 3 -20.5 4.5t-16.5 5.5q-12 2 -21.5 4.5t-20.5 3.5h-9h-29.5t-28.5 -1q-21 -5 -53 -19t-32 -39zM494 113q-5 -8 -9 -18.5t-9 -17.5l31 -4
q4 0 6 -1.5t7 -1.5h16q3 0 8.5 -1t13.5 -1h17q86 0 170.5 32.5t157.5 79.5q3 2 7 7t9 7q10 7 25 21t13 12l11.5 11.5t14.5 13.5q18 19 25 29l54 62q4 5 4 7q12 16 26 32.5t26 25.5v-2q6 12 13 25t14 27v-3q8 12 16.5 25.5t14.5 28.5v2q0 4 2 7q3 4 5.5 11t2.5 5q0 4 4 7v-2
q5 11 13 33q2 5 2 6t3 5q0 2 2 6q4 14 5.5 23.5t5.5 21.5q2 10 3.5 20.5t3.5 22.5q0 7 2 11q0 5 1.5 6t1.5 5q0 7 1 10t1 7q5 19 5 23v13.5t2 21.5q0 11 1 23.5t3 17.5v28q0 67 -13 142q-7 48 -26 97t-48.5 93t-71.5 72.5t-92 41.5q-19 4 -35.5 5t-33.5 1q-67 0 -126 -22.5
t-114 -58.5h38.5t34.5 -6q22 -7 22 -25q0 -28 -27 -28q-5 0 -8.5 1t-6.5 1h-35q-13 0 -33.5 -1t-26.5 -1q-4 0 -5.5 -1t-6.5 -1q-4 -3 -11 -5.5t-10 -2.5q-8 -7 -13 -14q-6 -7 -9 -11q-4 -7 -14.5 -20.5t-14.5 -23.5q-68 -108 -68 -229q0 -49 11 -88q17 -55 61.5 -101.5
t112.5 -46.5q51 0 93 37.5t64 86.5q11 26 15.5 53t9.5 55v11q0 5 1.5 10.5t1.5 11.5q0 30 30 30q6 0 16.5 -6t10.5 -17v-17q0 -54 -16 -103q0 -2 -1.5 -4t-1.5 -5q-10 -42 -26 -63v2q-31 -61 -83 -99t-114 -38q-74 0 -135 44t-87 116q-22 65 -22 131q0 74 22.5 143.5
t62.5 131.5q-9 -4 -13 -4q-74 -37 -141.5 -87.5t-116.5 -118.5q-7 -9 -7 -12q-4 -6 -7.5 -12.5t-8.5 -15.5l-6 -13q-40 -72 -62.5 -151.5t-22.5 -159.5q0 -154 76 -289q33 -58 75.5 -99.5t97.5 -59.5q5 -2 11 -3t10 -3q7 -3 13 -6q7 12 16.5 29.5t15.5 29.5q7 9 15.5 22
t12.5 25q2 2 6.5 9.5t9.5 18.5q4 9 8 11v-2q7 11 18 16h-3l3 2q4 5 8 5h-4q32 33 65 50.5t84 29.5h17q9 2 18.5 -8.5t9.5 -22.5q0 -26 -23 -28q-50 -6 -91.5 -31.5t-67.5 -72.5q-4 -5 -11.5 -10t-11.5 -7h4zM520 1122q2 0 4 1t4 1l-2 5l-8 -7h2zM474 73q0 2 2 4h-2v-4z" />
    <glyph glyph-name="R" unicode="R" horiz-adv-x="1561" 
d="M17 289q0 96 50.5 173t137.5 123l33 18q4 0 9 6q7 0 17 5l25 12q-4 24 -8 52t-4 47q0 124 65 253l12 23q4 4 7 7.5t5 8.5q4 6 6 12l42 49q4 8 13 18t14 15l42 42l65 46l72 43l75 36q4 3 25.5 11t28.5 12q27 14 59 22t62 12q40 9 85.5 12.5t77.5 3.5q53 0 100.5 -5.5
t94.5 -18.5q105 -32 176 -101t71 -185q0 -78 -30 -138q-36 -62 -101.5 -106.5t-126.5 -68.5q-3 -3 -9.5 -4.5t-10.5 -3.5t-7.5 -2t-8.5 -2l-21 -6q-15 -4 -28.5 -7.5t-27.5 -5.5l-56 -9q-3 0 -3 -1t-2 -1h-2h2l-4 -4q15 -5 37 -16.5t28 -15.5h-3q44 -20 68 -56t39 -74
q2 -5 6.5 -18t4.5 -17q9 -52 21 -103t26 -105q2 0 2 -2q0 -6 2 -9q4 -9 6 -19.5t5 -17.5q0 -7 8 -14l6 -8q0 -9 9 -27v2q3 -2 3 -3t2 -3l6 -10v3q9 -21 30 -42.5t45 -21.5q27 0 45.5 22.5t30.5 46.5q0 2 1 3t1 3l7 14q4 9 11 21t20 12q28 0 28 -33q0 -20 -12 -38v2l-6 -11
q-21 -40 -62 -75t-92 -35q-26 0 -46.5 11.5t-40 30.5t-31 39.5t-19.5 37.5q0 4 -5.5 23t-11.5 28q-5 11 -7 21t-6 19q-5 12 -7 21t-5 21q-11 53 -22 102.5t-22 100.5q-1 11 -6 19q-9 19 -9 27q-9 18 -26 39t-44 32q-4 5 -24 17t-25 14q-10 6 -17.5 16.5t-7.5 29.5
q0 20 14 32.5t33 16.5q3 0 12 4l6 3l165 39h4q5 0 7 4q2 0 3 1t2 1q18 5 22 5v2q71 27 111.5 88t40.5 135q0 33 -9.5 67t-24.5 64v-3q-49 83 -145.5 117.5t-190.5 34.5h-18q-7 -2 -19.5 -3t-19.5 -1q-10 -2 -21 -2h-17q-12 -2 -20.5 -5t-20.5 -5l-43 -7q-28 -8 -51 -20
q-6 -2 -10.5 -3t-10.5 -3q-9 -4 -18 -6t-19 -7q-9 -5 -17.5 -7.5t-16.5 -2.5q-15 -6 -39.5 -17t-34.5 -15h3q-9 -5 -16 -11t-14 -10q-6 -5 -13 -10t-13 -9q-2 -3 -6 -5q-11 -5 -13 -7q-6 -3 -16 -13t-14 -15q-88 -75 -142 -177t-54 -214v-16q0 -2 1 -14.5t3 -18.5v-8t2 -11
l1 -14q58 14 119 14q64 0 118 -14t111 -39q2 0 3 -3t3 -3q7 0 11 -6h-2q16 -8 27 -8q4 -4 6.5 -11.5t2.5 -11.5q0 -26 -34 -26q-62 30 -121 48t-127 18q-24 0 -49.5 -3t-50.5 -10q46 -65 124 -116t159 -68q11 -2 16.5 -10.5t5.5 -12.5q0 -30 -31 -30l-68 16q0 2 -2 2
q-6 0 -8 4q-8 4 -19 7t-19 5q-7 0 -26 12h2q-132 54 -188 178q-8 -6 -15 -8q-4 -4 -11 -5t-11 -3q-81 -38 -140 -107t-59 -160q0 -93 57 -150t146 -77q35 -6 75 -6q81 0 171 33t154 85q20 18 44.5 49t36.5 50q7 12 16 30.5t15 25.5q2 11 6.5 31t8.5 25q5 14 10 31t9 35
q2 9 4 17t4 17q11 47 17.5 96t19.5 96q8 48 18 97t18 94l21 80l27 75q2 4 6 10q5 5 8 12t9 15q2 2 2 3t3 3v-2q23 47 55.5 88t72.5 67q11 6 23 12.5t23 12.5q5 4 7.5 3t9.5 3l5 2q2 2 5.5 2t8.5 2l17 8q-4 -12 -10 -20l-15 -18l-11 -7v2l-7 -16q-19 -15 -36.5 -36t-35.5 -38
q-24 -23 -40 -55q-5 -10 -11.5 -23.5t-6.5 -14.5l-22 -60q-5 -17 -7 -31t-6 -28q-8 -29 -12 -57q-5 -39 -12.5 -79.5t-11.5 -76.5q-5 -41 -10.5 -80t-9.5 -76l-18 -88q-2 -4 -8.5 -26t-12.5 -33l-5 -10t-5 -11q-3 -4 -4 -7l-3 -9q-11 -12 -11 -18v2q-8 -12 -8 -19
q-8 -11 -17 -28.5t-14 -27.5l-41 -57v2l-11 -24q-2 -2 -2 -3t-3 -5q-4 -6 -11.5 -16t-5.5 -6q-73 -70 -169 -113t-205 -53h-45q-67 0 -125.5 20t-102.5 55.5t-69.5 90t-25.5 123.5z" />
    <glyph glyph-name="S" unicode="S" horiz-adv-x="1108" 
d="M451 770q52 0 105 -14.5t97 -43t72.5 -73t28.5 -103.5q0 -53 -23 -98.5t-63 -78t-89 -52.5t-101 -20q-58 0 -104.5 25.5t-77.5 69.5q-7 7 -13 16.5t-6 26.5q0 8 8.5 18t20.5 10q16 0 22 -12t10 -23v2q20 -33 59 -55t79 -22q42 0 80.5 14.5t70.5 41t51 60t19 75.5
q0 45 -21.5 77.5t-56 53.5t-74.5 32t-83 11q-68 0 -140.5 -26t-129.5 -71t-95.5 -105t-38.5 -132q0 -103 67 -172t156 -108q48 -21 97 -29.5t100 -8.5q165 0 292 102q26 20 48.5 42t43.5 45q41 44 68 103.5t38 116.5q12 65 12 130v19l-15 280v65q0 6 1.5 13.5t1.5 14.5v18
l17 96q0 5 5 20t9 22q16 45 45.5 85t67.5 71.5t83 51.5t94 20q42 0 80 -19t62 -51l13.5 -22.5t7.5 -32.5q0 -29 -21.5 -44.5t-47.5 -15.5q-50 0 -50 42q0 7 9 13.5t14 10.5q10 0 19 4l12 12l-4 4q-17 21 -44.5 32t-52.5 11q-36 0 -68 -13t-61.5 -35.5t-55 -50.5t-39.5 -59
l-8 -19q0 -2 -1 -3.5t-1 -3.5q0 -7 -2 -9q0 -2 -1 -2t-1 -2q-7 -47 -7 -89v-12q4 -49 7.5 -96t7.5 -94q6 -48 9.5 -95.5t8.5 -93.5v-102q0 -6 -1.5 -13.5t-1.5 -11.5v-8q-9 -67 -31.5 -126.5t-61.5 -107.5q-5 -5 -19 -23q-14 -17 -16 -19l-56 -56l-60 -49l-46 -34
q-5 -2 -23.5 -14t-22.5 -16q-101 -48 -205 -56h-10q-2 0 -5.5 -1t-7.5 -1h-29q-98 0 -185.5 29t-159.5 82q-4 0 -6 7q-14 7 -14 11q-31 27 -58 67t-38 85v-4q-2 4 -2 12q0 2 -2.5 4.5t-2.5 6.5q-4 15 -4 27q0 2 -1 4.5t-1 4.5v56q0 7 2 11q22 108 93.5 193.5t169.5 131.5
q4 3 20.5 8t23.5 8q33 13 67 19.5t71 6.5z" />
    <glyph glyph-name="T" unicode="T" horiz-adv-x="1045" 
d="M19 283q0 87 45 158.5t114 116.5v-2l8 8q10 8 21 8q8 3 19.5 9t19.5 14h1q2 0 5 3q-7 13 -17.5 35.5t-16.5 39.5q-15 37 -23.5 78t-8.5 79q0 93 38 179.5t98 160.5l40 38q10 6 25.5 21t18.5 17l66 45l60 33q4 5 16 10.5t22 9.5q56 24 116 31h13q5 0 8 1t7 1h49l75 -9
l231 -61q15 -6 32 -6h28q68 0 127 28h-2q2 2 19.5 8.5t23.5 8.5q14 8 27 8q25 0 38 -15t13 -40q0 -35 -33 -57l-13.5 -9t-21.5 -12q-12 -7 -23.5 -14.5t-37.5 -18.5h2q-4 -5 -13 -10l-10 -11q-4 -5 -14 -11t-8 -3q-38 -31 -68.5 -67t-48.5 -76q-2 -7 -8 -25q-2 -12 -9 -20h2
q-5 -20 -10 -39.5t-9 -40.5l-33 -329q0 -2 -4 -24q-3 -6 -4 -15.5t-3 -16.5q0 -6 -5 -15q-4 -13 -4 -20q-4 -14 -12.5 -32.5t-10.5 -24.5l-28 -56l-45 -71l-52 -66q-6 -10 -20 -25.5t-24 -23.5q-7 -6 -26 -22q-7 -7 -13.5 -11t-10.5 -8q-154 -125 -358 -125
q-61 0 -128.5 17.5t-123.5 51.5t-92 87t-36 127zM75 283q0 -59 32 -101.5t81.5 -70t105.5 -40.5t109 -13q66 0 127.5 14t115.5 44q68 38 120.5 90.5t82.5 127.5q2 2 2 5t3 4q0 3 4 9t6 8q2 4 2 5t2 7q0 2 2 6l30 91q10 46 18 95.5t19 100.5q8 51 17 101.5t19 97.5l28 93h4
q0 -3 -1 1.5t1 9.5q5 12 9.5 26t10.5 18v-2q23 59 59 107t78 80q10 4 28 20q7 4 19 12.5t8 3.5q9 7 21 13t26 16q8 4 17.5 10t19.5 11q-23 -9 -49.5 -19t-48.5 -14q-31 -4 -61.5 -8t-63.5 -4h-22.5t-20.5 2q-8 2 -28 4t-24 2l-198 43q-13 0 -36 4q-7 2 -12.5 2t-16.5 2h-53
q-2 0 -16 -1t-23 -3q-33 -7 -66.5 -22t-67.5 -36q-27 -16 -62 -47t-58 -50q-52 -67 -90 -147.5t-38 -160.5q0 -58 19.5 -112.5t54.5 -99.5q11 0 28 4q10 4 17 4t15 2q7 0 30 4q6 0 9.5 1t7.5 1h76h13.5t15.5 -2q4 0 12 -1t12 -1l100 -14l116 -33q4 -4 10.5 -13.5t6.5 -13.5
q0 -28 -32 -28l-80 22q-12 2 -25.5 3t-25.5 5q-23 2 -54 12h-22t-18 2q-23 0 -43 5h-17h-31.5t-32.5 -2q-14 -5 -21 -5q-5 -4 -10 -4h-11l-2 -2l16 -14q47 -30 101.5 -53t105.5 -32q2 0 21.5 -2.5t29.5 -4.5q12 0 19.5 -7t7.5 -20q0 -30 -31 -30q-72 5 -141.5 27.5
t-130.5 60.5q-10 5 -23.5 14.5t-18.5 14.5l-31 32l-4 -2q-2 0 -4 -4q-6 -3 -22.5 -9.5t-20.5 -8.5q-64 -34 -113.5 -99t-49.5 -144zM1319 1293l-2 2q0 -4 -6 -4q-4 -2 -10 -8q6 3 10 5.5t8 4.5z" />
    <glyph glyph-name="U" unicode="U" horiz-adv-x="1737" 
d="M522 233l8 61l14 78l43 128l127 305l27 95q1 6 7 30t9 35q2 11 5 42.5t3 46.5l2 8v28q0 133 -104 191q-29 14 -68 25t-69 11q-64 0 -120 -26q-54 -19 -100.5 -60t-83.5 -88q-68 -87 -105 -191.5t-37 -212.5q0 -87 28.5 -179.5t79.5 -162.5q19 -23 45 -44.5t48 -35.5h-4
l14 -6q9 -5 22.5 -11t24.5 -11q10 0 24 -4q12 -4 24.5 -11.5t12.5 -24.5q0 -7 -6 -17t-21 -10q-125 24 -206.5 113.5t-116.5 200.5q-9 51 -15 101.5t-6 103.5v31l9 79q0 5 4 32t8 40q21 76 65 156.5t107.5 146t140.5 107.5t164 42q44 0 82 -12t78 -30q24 -12 41 -25t30 -25
q53 -43 68.5 -105.5t15.5 -129.5v-18l-7 -82q0 -5 -0.5 -26.5t-6.5 -34.5q-4 -15 -12 -41.5t-13 -33.5h5q-26 -68 -55.5 -138.5t-56.5 -141.5q-28 -74 -55 -138l-14 -48q-6 -10 -8 -22.5t-7 -25.5q0 -4 -2 -14.5t-4 -19.5q-4 -18 -4 -28q0 -5 -1.5 -7t-1.5 -7q-3 -11 -3 -19
v-11q0 -26 8 -45q13 -44 57 -66.5t87 -22.5q47 0 93.5 26.5t85.5 59.5l17 16q5 6 17.5 19t19.5 17q7 11 15 21t17 21l33 39q11 19 26 42t25 35v-2q37 71 78 151q25 59 52.5 127.5t56.5 134.5q28 68 55.5 134t55.5 134l48 96q0 9 8 14q11 12 20 27q46 63 116 106q26 17 58 17
q31 0 50 -13.5t19 -46.5q0 -32 -21 -51.5t-44 -38.5q-9 -5 -14 -10.5t-15 -17.5q-11 -11 -22 -26t-19 -29l-15 -21v2q2 4 -3 -6l-9 -18q-6 -12 -11 -18.5t-6 -11.5q-12 -24 -18 -44q-4 -10 -7 -20.5t-8 -19.5q-6 -16 -11.5 -32.5t-10.5 -30.5q-4 -17 -8.5 -34t-9.5 -30
q-11 -43 -19.5 -90.5t-18.5 -93.5q-12 -60 -26 -121t-24 -119q-2 -14 -4.5 -34t-6.5 -37q-2 -19 -3 -36.5t-3 -37.5v-49q0 -16 10.5 -39t29.5 -23q24 0 45.5 19.5t33.5 36.5q7 6 11 14t13 12q2 4 8.5 17.5t8.5 19.5q4 9 14 31q2 6 5 13q7 12 13 24q5 4 20 4q31 0 31 -30
q-2 0 -2 -3v-7q-2 -2 -12 -24t-20 -37q-2 -2 -2 -4q-26 -51 -71 -99t-109 -48q-34 0 -55 12.5t-34 36t-17.5 50t-4.5 54.5v13l14 128l104 436l55 164l41 88q4 12 14 28.5t14 20.5q2 5 6.5 16.5t9.5 15.5q12 22 18 26q11 15 22.5 28t28.5 26q2 0 6.5 5t4.5 7l7 3q8 4 15 12
q7 9 13.5 16t6.5 12q0 2 -8 2q-11 0 -21.5 -6t-19.5 -12q-19 -18 -40 -36.5t-35 -37.5q-8 -5 -17.5 -20t-9.5 -17l-98 -194q-24 -53 -48 -113l-48 -120q-26 -59 -50 -119t-43 -114l-78 -140l-58 -84l-49 -66l-49 -47q-47 -47 -106 -78t-132 -31q-36 0 -70.5 13t-64.5 34
q-41 28 -63 76t-22 101v9z" />
    <glyph glyph-name="V" unicode="V" horiz-adv-x="1588" 
d="M394 49q0 9 6 15t16 13h2l7 7q6 2 26.5 10.5t24.5 12.5q46 24 87.5 56.5t73.5 78.5l1 3l5 7q3 5 6 8.5t7 5.5q3 5 7 15t8 19q6 11 11.5 21t10.5 19v-2l15 34q4 8 9 23t11 25q5 11 8 23l6 24q5 11 10 25.5t9 25.5l4 28t7 31l15 61q5 29 7 65t4 62v16v26v49l-2 117
q-2 12 -4.5 21t-4.5 21q-6 12 -7 20t-4 19q0 2 -4 17q0 5 -1 7.5t-1 5.5q-3 4 -3 7t-2 7q-2 6 -2 10q-6 21 -19 49.5t-28 47.5q-39 51 -100.5 85t-123.5 34q-84 0 -158.5 -42t-126.5 -108q-4 -7 -14.5 -19t-16.5 -16q0 -1 -1 -4.5t-1 -5.5q-5 -14 -8 -16l-16 -34t-15 -34
q-4 -7 -5 -16.5t-5 -18.5q-7 -9 -9.5 -19.5t-4.5 -14.5q-2 -11 -4 -19.5t-4 -17.5q-5 -10 -6 -18.5t-3 -17.5q-3 -11 -4.5 -22t-3.5 -22q-2 -12 -3 -22t-1 -20v-36q0 -11 -1 -21.5t-1 -17.5l4 -81q0 -2 1 -11.5t2 -20.5t4 -22.5t5 -17.5q7 -31 16.5 -60t20.5 -57
q21 -52 59.5 -103.5t92.5 -87.5q11 -12 25.5 -22t23.5 -12q4 -2 9 -2l15 -7q4 -2 10 -4.5t10 -4.5l4 -5q7 -4 13 -9.5t6 -16.5q0 -29 -25 -29q-10 0 -10 2q-93 32 -157.5 93t-110.5 142l-4 10q-6 11 -12.5 21.5t-6.5 15.5q0 2 -1 3.5t-1 3.5q-3 5 -4 8.5t-4 7.5
q-5 13 -9.5 26t-6.5 18q0 8 -1 22t-5 24l-6 23q-2 12 -3.5 22.5t-3.5 22.5q-2 10 -3 22.5t-1 27.5q0 4 -1.5 6.5t-1.5 6.5v55q0 78 13 159t44 155q8 20 17.5 40.5t20.5 38.5q7 10 12 20.5t9 17.5q5 3 17.5 22.5t17.5 27.5q122 150 320 150q85 0 165 -37q69 -31 114.5 -86
t72 -118.5t38.5 -135t12 -147.5v-25l-6 -95l-22 -113l-28 -111l-28 -82l-49 -106l-57 -98h-7q-2 -5 -7.5 -18t-5.5 -15q-32 -38 -76 -71.5t-90 -62.5h28q44 0 86.5 5.5t81.5 18.5q4 2 19 8q19 4 24 9l79 41h-4q4 3 25 12h-3q6 4 12 7t13 8q9 5 17 11t16 14q9 7 18 13t18 13
t18.5 15t20.5 15l41 35q18 19 42 45t41 42q20 25 45 56.5t45 58.5q7 14 18.5 31.5t18.5 29.5q10 14 20 31t18 28v-2q5 11 12 23.5t14 25.5q7 11 13.5 25t13.5 27q4 10 8.5 21.5t9.5 22.5t9 24t10 24q5 12 7 25t6 24q4 13 6.5 27t8.5 24q0 17 4 31q3 6 4 11.5t3 14.5
q-67 16 -117 57.5t-80 107.5q-11 23 -17.5 48t-6.5 44q0 52 31 83.5t84 31.5q32 0 74 -18q30 -18 50 -48t31.5 -64t16 -70.5t4.5 -66.5v-24q0 -5 -1 -7t-1 -6v-10h11l53 8q32 0 32 -28q0 -24 -26 -34q-15 -4 -40.5 -5.5t-38.5 -1.5q-5 -15 -10 -42q-4 -12 -5 -24t-4 -22
l-34 -105l-42 -111l-78 -139l-76 -112l-95 -108l-87 -84q-5 -4 -28.5 -21t-38.5 -30q-35 -23 -81.5 -51t-92.5 -52q-7 0 -32 -8t-31 -13q-49 -15 -96.5 -23.5t-96.5 -8.5h-29q-4 0 -18.5 1t-21.5 5q-4 2 -10 2h-11q-9 2 -31.5 12t-22.5 29zM1248 1201q0 -23 20 -63
q21 -46 59.5 -77t85.5 -34q0 3 2 5.5t2 6.5v21q0 26 -4 60.5t-16 67.5t-33.5 55.5t-54.5 22.5q-26 0 -43.5 -18t-17.5 -47z" />
    <glyph glyph-name="W" unicode="W" horiz-adv-x="2061" 
d="M350 40q-4 5 -7 10.5t-3 9.5q0 20 11 27t27 11q0 2 2 2t5 3l12 4q2 2 7.5 3t11.5 6q13 9 20 15q96 55 153 154q6 11 16.5 28.5t14.5 26.5l47 111q4 11 9.5 28t9.5 34q5 17 9 32t11 32l4 30t6 31t5 31t7 30q0 13 1.5 31.5t3.5 32.5q2 16 2 32.5t2 31.5v73q-2 6 -3 20.5
t-1 22.5q-2 11 -2 26.5v19.5q-6 41 -16.5 86t-30 85.5t-46.5 76t-63 56.5q-25 11 -56.5 20.5t-60.5 9.5q-59 0 -108.5 -24.5t-87.5 -62t-70 -84t-50 -96.5q-3 -4 -8 -20.5t-7 -23.5q-5 -11 -9 -27q-2 -14 -5.5 -27t-3.5 -17q-2 -10 -4 -20.5t-5 -22.5q-2 -11 -3 -22.5
t-3 -24.5q0 -2 -1.5 -5t-1.5 -6q-3 -13 -3 -25.5v-18.5v-37q0 -96 21.5 -188.5t61.5 -171.5q13 -27 36.5 -54.5t51.5 -57.5q5 -4 18 -14q6 -4 16 -10t15 -11h-2q11 -5 25.5 -14t14.5 -27q0 -27 -26 -27h-12q-77 40 -129 105t-85 142v5q-12 17 -12 29q-5 11 -12.5 29.5
t-9.5 25.5q-2 0 -2 2v10q-5 12 -7 36t-4 37q-2 11 -3 22t-4 23q-5 21 -5 43q-3 0 -3 2v11v59q0 60 8.5 123.5t24.5 121.5q21 64 57 129.5t86.5 118.5t113.5 87t136 34q117 0 208 -65.5t132 -172.5q2 -5 4 -14q5 -19 8 -21q5 -12 9 -32t4 -24q0 -11 1 -22t3 -23q3 -10 3 -22
t3 -24v-9q0 -5 0.5 -9t0.5 -8v-27q0 -6 -0.5 -12.5t-0.5 -12.5v-17q0 -10 -1.5 -26.5t-4.5 -35.5q-2 -10 -2 -19v-13l-25 -130l-28 -101l-41 -114l-54 -105q0 -7 -8 -17q-6 -12 -17.5 -29t-13.5 -25q-33 -57 -80 -103t-100 -84h4q12 -4 23 -4h22q72 0 138.5 38.5t113.5 89.5
q11 12 17 21l13 13q9 11 17.5 19t8.5 10l53 82v-2q13 17 24 36.5t22 37.5q5 11 15 31.5t16 37.5q5 11 14 25t6 10h-4l24 55q7 15 11.5 29t6.5 18q9 29 22 68q4 18 10 36t10 34q5 18 7 35.5t8 36.5q4 19 7.5 36t8.5 37q0 14 1 28.5t4 29.5l7 62v11q0 4 1 7t1 8v22
q0 46 -4.5 87t-19.5 81h3q-13 12 -13 28q-8 20 -8 27q0 34 28 34q12 0 27 -8t26 -12q24 -14 38 -28.5t28 -24.5q8 -9 17 -19.5t16 -23.5q5 -4 6 -6t6 -7q2 -2 2 -5q0 -5 2 -7q0 -6 4 -6q18 -31 29.5 -57.5t17.5 -48.5q0 -2 1 -5t1 -5t2 -4q2 -11 7 -32t9 -26l12 -96
q2 -11 3 -31t1 -25v-99l-10 -115l-22 -123q0 -3 -4 -22q-4 -16 -9 -35t-10 -28q-26 -75 -67.5 -149.5t-88.5 -126.5q-28 -29 -57.5 -47t-67.5 -25q8 -2 18 -2h20q51 0 100.5 21.5t94.5 47.5h-2q9 7 24.5 16t25.5 16h-2q19 15 40 32t40 32q25 21 53 49.5t52 51.5
q11 9 25.5 25.5t25.5 29.5q24 27 49 57q9 14 18 27.5t22 29.5q11 12 18.5 26.5t17.5 26.5v-2q13 23 20 35t13 22q9 15 17.5 29t17.5 27v-2q10 21 17.5 44.5t18.5 42.5q0 2 1 3.5t1 3.5q5 11 10.5 26t9.5 32q5 16 12 29t12 26q2 4 3.5 17.5t6.5 27.5q3 16 7 26q4 16 5 41.5
t1 42.5q-2 0 -4 -1t-4 -1h-13q-4 -2 -12.5 -2h-13.5q-62 0 -126 25.5t-107 75.5q-18 21 -29 48t-11 56q0 61 41.5 94.5t97.5 33.5q30 0 60.5 -12.5t49.5 -26.5q48 -41 83 -99t44 -122q15 8 35.5 22.5t39.5 24.5l21 22q6 5 20.5 15t11.5 10q0 3 3 3q2 0 4 2q4 2 10 2
q15 0 22 -9.5t7 -15.5q0 -12 -1.5 -15.5t-5.5 -8.5q-47 -50 -119 -94q-3 -4 -8 -4q-2 0 -4.5 -1t-5.5 -1q-4 -3 -7 -5t-8 -4h2l-15 -9q-4 -82 -26.5 -169t-59.5 -157q-4 -11 -12.5 -27t-16.5 -30.5t-13.5 -27t-7.5 -14.5q-17 -33 -39.5 -69t-40.5 -69l-115 -138l-112 -118
l-81 -64l-74 -56q-2 -3 -4 -3t-8 -2q-6 -4 -16 -8.5t-17 -9.5q-40 -19 -94.5 -38.5t-95.5 -19.5q-14 0 -34.5 4.5t-40 11t-32 19.5t-12.5 35q0 31 24.5 41t48.5 14q14 0 18 2q49 17 91 69.5t64 101.5q2 7 4.5 18.5t7.5 19.5q0 2 4 12q2 4 2 6l15 46q4 13 8 28t9 29
q4 14 5.5 37.5t5.5 34.5q2 19 3.5 40.5t5.5 34.5v32.5t3 32.5q0 14 1 36t4 32v63q-3 11 -4 31.5t-1 32.5q-3 18 -3 37.5v31.5q-2 14 -3.5 28t-3.5 28q-2 13 -3 27.5t-3 27.5q0 2 -4.5 19t-9.5 25q-8 29 -22 57t-38 48l-10 14q8 -39 11.5 -79t3.5 -78v-17l-9 -112l-26 -152
l-32 -120l-62 -170l-78 -146l-45 -84q-4 -5 -20 -23q-4 -7 -10.5 -16t-11.5 -15q-13 -13 -14 -19q-19 -26 -40 -45t-41 -38q-51 -47 -115.5 -75t-138.5 -28q-38 0 -77 11.5t-74 28.5h-4zM1551 1219q0 -16 2 -28.5t8 -18.5q30 -54 80.5 -74t97.5 -20h14q13 0 26 -1t27 4
q0 9 -1 21.5t-3 17.5q-26 99 -105 152h2q-2 0 -3.5 1t-3.5 1q-7 0 -10 2h3q-10 5 -12 5q-7 5 -20.5 8.5t-23.5 3.5q-30 0 -54 -22.5t-24 -51.5z" />
    <glyph glyph-name="X" unicode="X" horiz-adv-x="1625" 
d="M26 298q0 116 72 187q0 4 7 11l4 7v2l16 6q8 4 14 11q-4 10 -4 14q0 2 -1 3.5t-1 4.5q0 4 -1 5t-1 3q-2 2 -2 10v8l-2 -4q-20 78 -20 159q0 64 13 134t32 128q2 10 9.5 30.5t12.5 30.5l8 18l8 16l8 16l9 20q0 2 2 4t2 5q4 4 6.5 8t6.5 8q5 10 9.5 18.5t8.5 12.5
q33 43 80 88q65 61 148.5 91t179.5 30q135 0 214 -70.5t107 -199.5q9 -42 12.5 -88.5t3.5 -87.5q0 -6 -1 -13t-1 -12v-53q7 15 15 33t17 37q6 14 17 41t18 38q8 15 21 36.5t21 33.5v-2q4 12 18.5 30t20.5 27q10 17 26.5 35t33.5 29q47 38 106 61t126 23q48 0 91 -13.5
t68 -42.5l2 -4q9 -20 14.5 -32.5t5.5 -23.5q0 -36 -24.5 -51.5t-53.5 -15.5t-29 31q0 16 11.5 21t28.5 10h3q3 0 3 1t3 1t5 3q0 5 -14 16q-17 24 -50 33t-64 9q-132 0 -222 -99q-6 -6 -18.5 -22t-12.5 -21l-43 -58v2q-9 -17 -16 -31t-17 -31q-8 -15 -16.5 -29.5t-15.5 -27.5
q-10 -19 -17.5 -38t-13.5 -35q-8 -18 -15.5 -36t-14.5 -36h196q15 0 21 -10t6 -18t-6 -17.5t-21 -9.5h-221l-5 -20v-25.5t-2 -22.5q0 -4 -1.5 -13t-1.5 -14v-63v-27.5t3 -31.5q0 -13 1 -29t4 -27q2 -8 3 -19t4 -17q2 -12 3 -19.5t3 -17.5q0 -6 5 -24.5t9 -27.5
q9 -35 28 -73.5t47 -71t62 -55t74 -22.5q42 0 84 29t68 67q9 14 14 31.5t10 31.5q0 1 2 2.5t2 4.5q0 5 2 10l12.5 12.5t14.5 8.5q12 0 19.5 -10.5t7.5 -23.5q-3 -11 -10 -33t-13 -36q-31 -69 -92 -111.5t-134 -42.5q-90 0 -155.5 54.5t-95.5 137.5q-5 11 -9 28.5t-4 22.5
q-2 8 -4 16.5t-4 20.5q-3 9 -4.5 19.5t-3.5 17.5l-18 170q-7 -13 -12.5 -27t-16.5 -31q-10 -24 -25 -52.5t-24 -50.5l-33 -63v2q-5 -10 -13.5 -21t-13.5 -18q-4 -5 -11 -13t-7 -10q-12 -20 -32 -40t-38 -39q-72 -62 -162 -106t-190 -44q-68 0 -122.5 23.5t-93.5 62.5t-61 93
t-22 119zM82 296q0 -50 18 -94t50 -75t75.5 -50t96.5 -19q52 0 98.5 13t90.5 36q21 9 40 23t41 30q26 20 48.5 41t43.5 46l11 12q4 5 8.5 10.5t8.5 11.5t12.5 16.5t6.5 8.5q4 5 6 9q7 12 14.5 23.5t9.5 15.5q11 24 27.5 54.5t28.5 51.5q8 21 18 47.5t21 50.5q10 23 23 51.5
t21 49.5v47h-158q-9 0 -17.5 9.5t-8.5 17.5t8.5 18t17.5 10h158v64q-2 18 -3 43.5t-1 43.5q-2 21 -2 46v43l-7 34q-4 17 -4 34q-2 2 -2 15q0 4 -2.5 5t-2.5 5q-4 10 -4 14q-2 5 -3 9.5t-3 9.5l-4.5 9t-2.5 7q-8 14 -21 37t-26 43q-38 47 -82 73.5t-108 26.5q-104 0 -195 -60
t-146 -145q-41 -56 -52 -91q-5 -12 -15.5 -38t-12.5 -32q-9 -20 -13 -36q-4 -11 -5 -19t-3 -17q-2 -4 -5.5 -29.5t-3.5 -36.5v-9q0 -5 -1 -10.5t-1 -10.5q-3 -13 -3 -19.5v-10.5v-34q0 -73 14 -142q0 -4 2 -8q4 -17 12 -23q39 14 83.5 23.5t82.5 9.5h25v-4q-3 0 0.5 1
t11.5 1h15t17 -2q2 0 4.5 -1t5.5 -1q5 -2 10.5 -2h10.5q9 -2 35.5 -7.5t38.5 -9.5q10 -4 23 -7t26 -9q15 -5 29 -6.5t25 -5.5q22 -4 22 -29q0 -9 -8 -18t-23 -9l-113 31l-41 6q-12 2 -22 4.5t-21 4.5q-2 0 -5 2t-8 2q-12 2 -21.5 2h-14.5h-20q-40 0 -76.5 -5t-74.5 -20
q27 -61 76 -108t110 -64q4 -2 21.5 -5.5t23.5 -3.5q11 -2 15.5 -13t4.5 -15q0 -9 -9 -19.5t-26 -10.5q-4 0 -9 2q-4 3 -8 3t-7 2q-11 0 -18 6q-72 23 -130.5 72.5t-92.5 115.5l-4 -3q-36 -37 -56 -76.5t-20 -89.5zM731 303v3v-3z" />
    <glyph glyph-name="Y" unicode="Y" horiz-adv-x="1281" 
d="M372 150q0 34 17 68t59 34q57 0 57 -54q0 -40 -52 -40q0 11 -5.5 20.5t-16.5 13.5q-4 -12 -6 -27t-2 -26q0 -28 12.5 -45t34.5 -27.5t46.5 -14t49.5 -3.5q133 0 236 107q0 -2 5 6.5t10 13.5v-2q4 6 10 17.5t7 13.5q6 10 8.5 14.5t4.5 9.5q4 7 6.5 12t8.5 11q4 7 6 16
t6 21q2 7 7.5 20t10.5 20q31 117 62 248t63 253l49 138q3 10 13.5 30.5t14.5 31.5q7 13 16.5 30.5t13.5 23.5q5 4 10 12t9 15q12 16 12 18l31 36q-16 -5 -21 -10l-22 -19l-25 -40q-5 -6 -11 -16.5t-11 -17.5q-4 -10 -9.5 -18.5t-10.5 -13.5v3q-16 -32 -29.5 -62t-29.5 -61
q-16 -34 -34 -69.5t-31 -66.5l-93 -156l-70 -103q-4 -4 -22 -23.5t-26 -29.5q-2 -2 -6 -6.5t-10 -11.5l-19 -24q-11 -10 -25 -18t-27 -15q-8 -5 -12 -8t-10 -7q-25 -18 -60.5 -29.5t-68.5 -11.5q-22 0 -38 7q-38 5 -78 28q-7 0 -7 19q0 9 2.5 11.5l4.5 4.5q2 0 10.5 7.5
t16.5 14.5l9 8q2 2 4 2q6 8 16 18.5t17 17.5l14 14l9 11q4 11 14 23.5t18 21.5q5 5 8 9t5 6v-2q4 10 7 18.5t6 14.5l15 24v-2q8 19 17.5 37.5t18.5 37.5l30 88q4 9 5 18.5t5 21.5q2 11 4 20.5t7 18.5q0 -2 0.5 6.5t1.5 21.5t4 25t3 21q0 3 1 5.5t1 6.5q2 6 2 14v12v28
q0 65 -14 127t-48 110t-85 76.5t-124 28.5q-79 0 -139 -32.5t-99.5 -87t-60.5 -123.5t-21 -140q0 -80 30 -162t91 -143q34 -29 74 -44.5t83 -23.5q15 -13 15 -25q0 -22 -22 -24q-25 2 -51 7.5t-47 18.5q-60 27 -101 71t-66.5 97.5t-38.5 113.5t-13 118v26l7 61q0 2 1 12.5
t3 17.5q17 67 48 123t75.5 98.5t104 66.5t131.5 24q96 0 181.5 -45t128.5 -139q19 -44 25.5 -93.5t6.5 -95.5v-13l-6 -69l-7 -77l-23 -79l-28 -77l-21 -41q-3 -12 -7.5 -21l-6.5 -13l-12 -23l-3 -9t-3 -7q-5 -4 -5 -8.5t-2 -6.5t-2 -4q-4 -4 -5.5 -7t-7.5 -9q-9 -12 -17 -22
l-68 -81l-54 -52q12 -2 25.5 -3t24.5 -1q47 0 88 22t76 53l41 40q4 5 7 9t5 9q11 12 21.5 27t21.5 27q11 15 23 34.5t24 36.5q11 18 23 36t23 35v-2l192 369q2 9 11.5 27.5t14.5 22.5q24 34 53.5 58.5t75.5 24.5q14 0 25.5 -3t21.5 -8q18 -4 18 -17q0 -14 -4 -19l-59 -59
q-8 -14 -12 -18q-5 -6 -12 -16t-5 -5q-2 -5 -12.5 -22t-15.5 -22l-12 -22q0 -2 -2.5 -4t-2.5 -4l-27 -66q-3 -6 -8 -19q-4 -14 -4 -18q-8 -49 -17 -98.5t-19 -98.5q-18 -116 -39 -226l-25 -91l-31 -78l-24 -55q-4 -5 -14.5 -23.5t-14.5 -25.5q-18 -27 -41.5 -52.5
t-47.5 -49.5q-56 -45 -118.5 -69.5t-134.5 -24.5h-25q-69 4 -119 37t-50 113z" />
    <glyph glyph-name="Z" unicode="Z" horiz-adv-x="1417" 
d="M26 56q0 28 18 45t44 30l108 35q11 5 22 9.5t22 8.5q9 4 21 10.5t20 10.5t21 14t25 14h-2q21 14 47 29h-2q10 7 21.5 15t24.5 17q11 9 21.5 17.5t22.5 17.5q9 7 20.5 16t22.5 19q10 12 22.5 23.5t22.5 18.5q10 12 21.5 25t22.5 27q13 11 25.5 26.5t22.5 26.5
q10 15 20.5 32t23.5 32q20 26 33.5 45.5t29.5 42.5q-25 0 -51.5 2t-51.5 2q-10 2 -12 10.5t-2 13.5q0 13 6.5 22t19.5 9h131q18 25 35.5 51.5t33.5 51.5q18 24 37 52.5t38 53.5l61 74l307 269q-2 0 -3 -1t-3 -1h-2q-39 -16 -78 -30t-75 -25h1q-1 -3 -28 -9q-5 -3 -15 -3
q-27 -6 -51 -6h-12l-102 15l-299 67q-12 2 -24.5 3.5t-24.5 4.5q-11 2 -22 3t-23 3h-35q-67 0 -136 -21.5t-125 -60.5t-91 -96t-35 -128q0 -54 23 -100t63 -77t90.5 -48t104.5 -17q103 0 176 59.5t73 169.5q0 4 -1 5.5t-1 5.5v42q0 27 29 27q13 0 22 -8.5t11 -14.5
q2 -16 2 -30v-30q0 -65 -24.5 -118t-66.5 -88.5t-99.5 -55.5t-120.5 -20q-61 0 -123.5 21t-110 58t-77.5 93t-30 124q0 77 35.5 141.5t88.5 109.5q93 81 221 122q66 19 131 19h20l64 -6l88 -19l225 -65q2 -3 32 -8q10 -3 22 -3q4 -2 22 -4t22 -2h23q61 0 126 19q12 4 25 7
t24 9q21 8 49 17q21 9 53 9q19 0 32.5 -4.5t25.5 -19.5q9 -8 9 -26q0 -11 -11 -19q-72 -61 -147.5 -124.5t-147.5 -124.5q-12 -12 -22 -21t-18 -21l-17.5 -21t-18.5 -17l-62 -84l-47 -66q-11 -20 -23 -32t-24 -31h182q12 0 19 -9t7 -20q0 -20 -10 -26q-2 0 -2 -1t-2 -1
l-2 -2h-227q-14 -20 -29.5 -44t-30.5 -42q-14 -23 -28.5 -43.5t-26.5 -41.5l-95 -103l-85 -86l-59 -49l-70 -51l-108 -56l-82 -40l-109 -39l-10 -8q-2 -2 -4 -2h21q47 12 99.5 27t106.5 28q51 16 103.5 28.5t103.5 27.5l77 11l64 2h59l82 -11l327 -80q11 -5 19.5 -5h18.5
q32 0 61.5 16t47.5 45q17 29 17 64q0 20 -11.5 35.5t-27.5 22.5h-8q-18 0 -32.5 -5t-30.5 -12q-3 0 -6 -3t-5 -4q-5 -5 -13 -5q-4 -4 -16 -4q-30 0 -30 28q0 9 6.5 15t11.5 10q24 14 54.5 26t58.5 12q53 0 80 -32.5t27 -85.5t-28 -98.5t-77 -63.5q-51 -24 -99 -24h-49l-73 7
l-332 66h-21t-18 2q-8 0 -20 1t-16 4h-7q-2 0 -4 2h-28l-62 -7l-109 -21q-36 -12 -72 -20t-72 -17q-35 -12 -72.5 -21t-71.5 -17q-9 -2 -24 -2q-29 0 -48.5 13t-19.5 43z" />
    <glyph glyph-name="bracketleft" unicode="[" horiz-adv-x="585" 
d="M147 -184h-15t-14 -2l-67 -8h-4q-19 0 -26 2h-6q-5 0 -7 3l317 1472h6q5 0 6 1.5t3 1.5h20h6l63 -5q4 -5 11.5 -5h14.5q19 0 41 6.5t38 24.5q10 10 20 29q2 8 3 19t13 11q11 0 13 -10q-2 -2 -2 -7q0 -3 -2 -7q-13 -49 -38.5 -88.5t-82.5 -39.5h-10l-70 11l-290 -1358h3
q46 11 83 11q29 0 45.5 -11t22 -29t5 -41.5t-4.5 -44.5q0 -1 -1 -7.5t-3 -8.5q-5 -7 -11 -7q-7 0 -12 7v2v10q0 4 3 6q2 34 -20 48t-51 14z" />
    <glyph glyph-name="backslash" unicode="\" horiz-adv-x="943" 
d="M941 19q0 -13 -10 -16t-17 -3h-8q-50 17 -95.5 46t-82.5 63q-3 2 -10.5 12t-17 18t-16.5 14.5t-11 8.5q-4 4 -10.5 13t-15.5 19.5t-15 20t-10 14.5q-4 4 -11.5 16t-17.5 26t-18.5 28t-10.5 18q-6 12 -21 43.5t-21 40.5l-277 649q-5 4 -17.5 25t-20.5 33q-63 102 -170 156
q-11 4 -23 9t-12 18t15 18h6q17 0 24 -5q9 -5 24 -13t27 -15q7 -4 26.5 -18t23.5 -18q30 -21 57.5 -47t51.5 -54q5 -6 14.5 -17t18 -22.5t17 -22.5t10.5 -13l63 -96l66 -128l225 -557q2 -6 18.5 -29t20.5 -34q4 -5 15.5 -25.5t15.5 -25.5q38 -51 84.5 -82t105.5 -55
q10 -4 10 -13z" />
    <glyph glyph-name="bracketright" unicode="]" horiz-adv-x="587" 
d="M2 -264q4 10 4 18q13 50 38.5 90t82.5 40h8l72 -13l293 1364h-4q-18 -5 -41.5 -7.5t-44.5 -2.5q-56 0 -65 42t1 91v4q0 4 1 6.5t1 4.5q4 4 12 4q12 0 12 -4l2 -5q-2 -2 -2 -10q0 -4 -2 -7q0 -32 20 -47t52 -15h13.5t16.5 4l64 6h5h13q2 -2 4 -2h4q0 -2 2 -2h8h7
l-315 -1481q-2 -3 -9.5 -4.5t-8.5 -1.5h-19h-7l-64 8q-4 4 -12.5 4h-12.5q-20 0 -38 -6t-35 -17q-15 -19 -18 -28q-3 -2 -4 -6.5t-4 -7.5q-2 -4 -3 -15t-12 -11q-13 0 -15 7z" />
    <glyph glyph-name="asciicircum" unicode="^" horiz-adv-x="1056" 
d="M32 872q5 9 27.5 41t53.5 79t66.5 100t65.5 100.5t53.5 81t28.5 41.5q43 58 89 109t112 51q53 0 98 -38.5t80 -90.5l321 -461q12 -26 12 -52q0 -35 -15.5 -57t-40.5 -22q-22 0 -32 13.5t-25 32.5q-7 10 -31.5 45.5t-59.5 84t-74 103.5t-73 104t-57.5 83t-27.5 46
q-18 17 -36.5 34t-38.5 17q-34 0 -60 -31.5t-45 -57.5q-3 -3 -25 -37t-53.5 -81.5t-68 -102.5t-67.5 -103t-53.5 -80t-24.5 -37q-15 -22 -26 -34t-32 -12q-24 0 -39 23t-15 55q0 19 2 28t11 25z" />
    <glyph glyph-name="underscore" unicode="_" horiz-adv-x="1276" 
d="M43 -420q2 10 7.5 19t17.5 9h1153q9 0 13 -9t1 -19q-2 -9 -7 -18.5t-18 -9.5h-1157q-4 0 -8.5 9.5t-1.5 18.5z" />
    <glyph glyph-name="grave" unicode="`" horiz-adv-x="281" 
d="M259 1064h-101l-150 190h161z" />
    <glyph glyph-name="a" unicode="a" horiz-adv-x="868" 
d="M26 205v19q0 3 1 12t1 11q0 5 4 19q3 7 3 15l14 48l16 45l26 44l36 51l35 42l36 37l48 35l39 28l46 21l45 20q2 0 12.5 3.5t14.5 5.5q36 6 69 6q80 0 135 -51q7 -7 15 -18t15 -21h1l18 61q5 12 13 12h92q6 0 6 -10v-3l-145 -515q-2 -6 -2 -19q0 -41 36 -41q21 0 38.5 11
t30.5 23q0 2 6 7q2 2 6 4l24 30l80 112v-2q2 0 2 -3.5v-7.5v-9q0 -24 -2 -35q-3 -34 -19.5 -60.5t-40.5 -51.5q-27 -29 -62 -50.5t-79 -21.5q-31 0 -58.5 14.5t-47.5 35.5q-2 2 -8 9.5t-8 9.5q0 3 -3.5 7t-5.5 4v3l-42 -33q-5 0 -14 -4.5t-12 -6.5q-91 -47 -196 -47h-21
q-40 2 -77.5 15t-66.5 41q-48 55 -54 132v17zM152 247q0 -53 22 -110t83 -77q12 -4 21 -4h20q60 0 112 26.5t93 71.5q0 2 2 4q0 2 1 2t1 2q4 4 8.5 11t6.5 7q6 4 10 13.5t6 11.5l20 42l21 51l19 68l7 42q2 2 2 16.5v19.5v9q0 67 -33 115t-105 48q-30 0 -66 -7q-2 -2 -4 -2
t-2 -1t-3 -1h-2q-92 -33 -146 -102q-1 -7 -8 -16t-9 -11l-24 -40l-25 -51l-14 -47q0 -2 -4 -14.5t-4 -17.5q-2 -3 -3 -14t-1 -17q-2 -6 -2 -11v-17z" />
    <glyph glyph-name="b" unicode="b" horiz-adv-x="665" 
d="M15 148l43 279l316 1307q4 19 6 38.5t2 39.5q0 9 -2 27t-18 18q-19 0 -39 -24.5t-27 -37.5q-5 -5 -12 -23.5t-7 -22.5q-11 -12 -23 -12q-23 0 -23 24q0 5 2 13q7 18 15.5 35t20.5 30q22 32 57.5 55.5t74.5 23.5q28 0 52.5 -12t31.5 -42q2 -4 4.5 -11t2.5 -9v-7v-42
l-9 -67l-280 -1196q51 57 122.5 93t148.5 36q80 0 124.5 -43t51.5 -124v-29q0 -113 -54.5 -209t-140.5 -160q-54 -45 -119 -70.5t-138 -25.5q-27 0 -56 4t-54.5 15t-43.5 30t-27 47q-2 11 -2 20v19v13zM122 133q0 -84 85 -84q59 0 120.5 28t101.5 73q24 26 42 57t34 62
q17 42 28 83.5t11 88.5q0 55 -27.5 104.5t-91.5 49.5q-51 0 -96.5 -25.5t-82.5 -64t-61.5 -85t-32.5 -91.5l-25 -120l-5 -65v-11z" />
    <glyph glyph-name="c" unicode="c" horiz-adv-x="614" 
d="M43 139q-8 19 -14 41.5t-3 46.5q2 133 90 249q6 5 16 16t15 15q3 6 15 18.5t14 13.5l55 44l46 33q4 2 12.5 6t13.5 6q71 31 141 31q23 0 48.5 -4.5t47.5 -15.5t37 -30.5t15 -46.5q0 -32 -19 -53.5t-47 -32.5q-4 -2 -19 -7q0 -2 -2 -2h-9q0 11 3.5 23.5t3.5 22.5
q0 101 -95 101q-60 0 -104.5 -37.5t-72.5 -82.5q-2 -5 -7.5 -13.5t-8.5 -13.5q-4 -5 -12.5 -23.5t-14.5 -23.5q0 -4 -4 -13.5t-6 -14.5l-16 -58q-2 -3 -6 -25t-6 -28q0 -17 -1 -34.5t-1 -37.5q0 -55 20 -103t86 -48q17 0 33 5t33 10q5 0 14 4l8 5l45 21l116 66q4 9 15 9
q4 0 4 -2q0 -7 -7 -16q-39 -53 -95 -98q-38 -25 -83.5 -43.5t-90.5 -18.5q-111 0 -181 86q0 2 -6 9.5t-6 11.5q-4 6 -5 16t-5 16z" />
    <glyph glyph-name="d" unicode="d" horiz-adv-x="854" 
d="M4 203q0 61 21.5 119t56 111.5t80 98.5t95.5 77q34 19 75.5 33t83.5 14q35 0 74.5 -9.5t63.5 -35.5q4 -4 12.5 -14t14.5 -14l2 2l283 1187q0 4 2 22.5t2 29.5q0 2 2 10t2 12v3q0 11 -4 31t-19 20q-11 0 -26 -19t-25 -32q-11 -12 -18.5 -27.5t-16.5 -34.5q-2 -11 -23 -11
q-20 0 -20 26q0 4 -2 5t2 3q25 59 66.5 104.5t109.5 45.5h16q51 -8 71 -60v-6v-4q0 -2 2 -2v-11v-45l-9 -66l-367 -1612q-2 -10 -2 -19.5v-23.5q0 -11 3.5 -23.5t17.5 -12.5q16 0 37 16t32 31l90 123q3 2 6 4.5t5 4.5v-2v-16q0 -18 -2 -36t-11 -34q-33 -66 -82 -111
t-124 -45q-40 0 -63.5 24t-25.5 64q-59 -49 -132 -73.5t-145 -24.5h-31q-81 6 -130.5 64t-49.5 139zM135 242q0 -24 4.5 -53t17 -52.5t30.5 -41.5t46 -25q12 -5 19 -6.5t19 -1.5q79 0 146.5 46t95.5 121q5 11 13 31.5t10 24.5l22 89l12 67v17v26t-4 25q-10 51 -50 81t-91 30
q-89 0 -155.5 -58.5t-98.5 -136.5q-17 -47 -26.5 -91.5t-9.5 -91.5z" />
    <glyph glyph-name="e" unicode="e" horiz-adv-x="614" 
d="M23 245q0 14 1.5 28t3.5 30q2 5 4.5 16.5t2.5 14.5l16 44l17 40l20 35l28 39l38 42l38 36l46 37l33 21q6 6 16 10q4 0 14 4t12 8q4 2 12.5 4t12.5 5q42 12 91 12h15q67 -4 105 -38.5t38 -102.5q0 -36 -13.5 -68.5t-37.5 -58.5q-4 -4 -12.5 -11t-12.5 -10q-4 -4 -15 -11
t-13 -9l-39 -22l-50 -23l-44 -14l-65 -16q-4 0 -18.5 -2t-19.5 -2q-2 0 -17 -3t-21 -3h-6h-7l-44 6l-2 -6v-20v-12q0 -5 1 -15t1 -12l4 -38q0 -4 2 -12t4 -12q12 -38 30.5 -66t56.5 -37q24 -4 47 -4q33 0 66 9q4 0 12 3.5t11 6.5q4 2 13.5 7t15.5 9l32 23l30 24l101 96h2
q0 -26 -9.5 -48.5t-19.5 -39.5q0 -2 -7 -8t-7 -13q-4 -2 -11 -10t-10 -10l-26 -23l-43 -28q-2 -2 -8.5 -6t-10.5 -6q-26 -16 -61 -25q-4 -2 -14 -4t-12 -2l-42 -4h-9h-18h-14l-30 2q-3 0 -10.5 1t-11.5 3q-83 20 -132.5 86t-49.5 153zM198 331h5h6q6 0 18.5 1.5t14.5 1.5
q4 0 17.5 1t17.5 3l43 8q5 0 15.5 3t14.5 5q2 4 11 6t11 4q36 16 62 40.5t38 62.5q13 36 13 65q0 24 -8 45t-29 32q-4 2 -6.5 3.5t-8.5 3.5q-25 6 -44 6q-46 0 -81 -23.5t-61 -59.5l-9 -13.5t-9 -14.5q-5 -4 -11.5 -14t-6.5 -14l-23 -47l-17 -49l-15 -51v-2z" />
    <glyph glyph-name="f" unicode="f" horiz-adv-x="538" 
d="M-182 -481q0 33 21.5 54t53.5 21h11q0 -12 1 -31t1 -28q0 -11 8 -24.5t28 -13.5q37 0 63.5 38t39.5 73q2 5 5 23.5t3 20.5l162 863h-166q-6 0 -12.5 7.5t-6.5 13.5q0 8 6.5 19t12.5 11h175l165 902q0 5 4 20t9.5 31t10.5 34t7 27q3 6 9.5 21.5t11.5 32t11 31t8 20.5
q18 43 45 85.5t61.5 79t77 59t95.5 22.5h20q37 -3 55.5 -28.5t18.5 -63.5v-18q-12 -49 -66 -49q-6 0 -19 -2t-13 6q4 19 6.5 32t2.5 31t-5.5 28t-26.5 10q-39 0 -59.5 -24.5t-38.5 -52.5q-3 -2 -6 -11t-3 -13l-43 -110l-224 -1100h154q2 0 6.5 -3t6.5 -3q8 -12 8 -24
q0 -6 -4 -13.5t-17 -7.5h-163l-143 -691q0 -4 -3 -18.5t-8.5 -34t-12 -39t-10.5 -28.5q0 -5 -5 -19t-11.5 -29.5t-13 -29t-9.5 -18.5q-13 -33 -32 -64t-40.5 -56.5t-52.5 -41.5t-68 -16h-16q-37 8 -61.5 30t-24.5 59z" />
    <glyph glyph-name="g" unicode="g" horiz-adv-x="798" 
d="M47 -327q0 42 25.5 75.5t71.5 33.5q25 0 41 -13.5t16 -39.5q0 -30 -35 -46q-8 0 -12 -3q-17 -14 -17 -40q0 -32 25.5 -41t52.5 -9q76 0 127.5 44t88.5 112q0 5 5 13t6 12q4 7 10 23.5t8 19.5l66 256l-123 -64q-4 -2 -16.5 -8t-20.5 -9q-26 -12 -53.5 -15.5t-55.5 -3.5
q-56 0 -106.5 19t-82.5 64q-19 27 -28.5 56.5t-13.5 59.5v19q0 41 8.5 74.5t18.5 71.5q12 32 31 63.5t45 62.5q45 60 105 104.5t126 75.5q65 29 127 29q47 0 84.5 -16t68.5 -48q10 -16 19 -30h2l21 63q0 12 13 12l72 4h5q9 0 9 -8v-3l-198 -768l-27 -76q-4 -4 -12 -24
t-12 -24q-36 -71 -89.5 -121t-129.5 -74q-24 -4 -45.5 -8t-45.5 -4q-40 0 -78 12q-44 13 -70.5 42.5t-26.5 74.5zM158 209q0 -31 8 -59q12 -34 34 -64t54 -39q23 -7 52 -7q37 0 79 9q122 45 177 160q2 9 8.5 22.5t8.5 14.5l19 65l18 92l6 50v9q0 68 -33 110t-104 42
q-52 0 -91 -16q-52 -21 -90 -52t-68 -77q-3 -4 -8.5 -14.5t-9.5 -13.5q-3 -10 -12.5 -26t-9.5 -21l-25 -60q0 -3 -2.5 -11t-2.5 -12q-8 -42 -8 -80v-22z" />
    <glyph glyph-name="h" unicode="h" horiz-adv-x="838" 
d="M392 1739q9 37 9 80v18q-2 7 -4.5 17t-14.5 10q-8 0 -15 -5.5t-13 -9.5q-20 -18 -33 -42t-25 -52q-9 -12 -23 -12q-26 0 -26 25q0 8 3.5 16t8.5 14q24 51 67.5 94t104.5 43q52 0 67 -33t15 -78v-18l-8 -69l-368 -1634l-8 -23q10 6 16.5 16.5t14.5 21.5q2 7 9 14t11 16
q6 8 12 18l144 278l46 78q3 4 11 17t13 17q38 47 86.5 79t110.5 32q56 0 79.5 -37.5t23.5 -90.5v-13l-7 -59l-65 -247q-6 -24 -9 -46t-3 -41q0 -17 4 -41t24 -24q19 0 38.5 17.5t29.5 27.5l87 102l20 21v-14q0 -51 -30 -93.5t-62 -75.5q-25 -21 -60.5 -37t-69.5 -16
q-51 0 -68 30t-17 77v30t4 29l81 321l8 65v10q0 19 -5 35.5t-27 16.5q-23 0 -40 -7q-30 -18 -54.5 -42t-45.5 -54q-8 -6 -23 -28.5t-15 -27.5l-165 -313q-5 -5 -16 -24.5t-17 -29.5q-25 -32 -57.5 -60t-77.5 -28q-12 0 -31.5 4t-19.5 26v26z" />
    <glyph glyph-name="i" unicode="i" horiz-adv-x="397" 
d="M70 116q0 9 2.5 23.5t2.5 18.5l87 336q7 17 7 33.5v34.5v13q0 6 -1.5 16t-9.5 10q-4 0 -7.5 -3t-8.5 -6q-3 -3 -4 -3t-3 -2l-4 -4l-103 -96q-2 0 -4.5 -3t-4.5 -6l-9 -2q0 -2 -4 -2v4q4 7 13 25.5t13 24.5q3 4 13.5 23t14.5 24q0 4 11 18t15 18l12 11q24 21 47.5 41.5
t55.5 20.5q39 0 60.5 -31t21.5 -66v-4l-12 -80l-93 -329q-4 -14 -5.5 -26.5t-1.5 -25.5q0 -17 4.5 -38.5t27.5 -21.5q15 0 29 9t22 20q5 5 14 13.5t9 13.5l95 122l8 7v-2v-14q0 -47 -19 -85.5t-50 -72.5q-30 -30 -67 -51.5t-84 -21.5q-53 0 -71.5 25.5t-18.5 77.5v13z
M207 926q0 26 19 46t49 20q28 0 46.5 -20t18.5 -46q0 -30 -20 -51t-45 -21q-30 0 -49 22t-19 50z" />
    <glyph glyph-name="j" unicode="j" horiz-adv-x="348" 
d="M-233 -264q0 26 16 44.5t46 18.5q27 0 27 -26q0 -11 -2.5 -19t-2.5 -20q0 -15 8 -31t28 -16q17 0 34 19t21 30l39 93l49 143l136 556q3 10 4 20t1 18q0 9 -1 19t-10 10q-6 0 -13.5 -6t-11.5 -10l-92 -87q-6 -5 -9.5 -8t-7.5 -3q-5 0 -5 4t2.5 6.5t2.5 8.5q4 5 12.5 21.5
t10.5 19.5q24 44 65.5 86t94.5 42h13q32 -8 40.5 -35t8.5 -55v-17q0 -8 -1 -26t-4 -21l-127 -530l-39 -103l-38 -78q-2 -2 -9.5 -19.5t-12.5 -26.5q-30 -45 -71.5 -75t-95.5 -30h-17q-32 5 -60.5 25.5t-28.5 57.5zM224 939q0 24 16.5 42t40.5 18q27 0 44 -18t17 -42
q0 -25 -17 -45t-42 -20q-26 0 -42.5 20t-16.5 45z" />
    <glyph glyph-name="k" unicode="k" horiz-adv-x="833" 
d="M306 1377l74 211l43 102l55 102q3 6 10.5 20t14.5 20q35 54 83 87t113 33q45 0 78 -20t33 -68q0 -38 -28 -57.5t-62 -19.5v34q0 21 -8 42t-39 21q-27 0 -55.5 -23.5t-40.5 -48.5l-29 -63l-76 -217l-257 -1072q21 18 39.5 22.5t43.5 4.5q38 0 68 -15q10 -5 18 -12t15 -12
h2l2 3l102 124l33 34q24 23 57 39.5t66 16.5q43 0 62 -23.5t19 -62.5q0 -27 -16 -50.5t-49 -23.5h-8l-8 2v53q0 12 -7.5 25t-16.5 16h-9q-21 0 -38.5 -13t-31.5 -26l-36 -34q-4 -6 -11.5 -15.5t-16.5 -22t-17 -21.5t-10 -11q-7 -12 -17.5 -27t-10.5 -17l23 -42l96 -192
q0 -4 10.5 -18.5t14.5 -22.5q4 -4 13 -13.5t9 -14.5q6 -8 16.5 -16.5t24.5 -8.5q25 0 44.5 28t27.5 46q4 9 14 38t15 38v2q0 4 2 7q3 2 5 4q9 10 9 17l2 3q5 -15 6 -26.5t1 -24.5q0 -71 -44 -134t-117 -80h-16q-54 0 -82 26t-46 70q-5 5 -7 17t-5 16q-4 9 -7.5 28t-3.5 21
l-19 135q-11 31 -26 55q-23 -20 -48.5 -36t-59.5 -16q-29 0 -55.5 14t-37.5 46l-2 -4l-63 -288q-11 -45 -37 -64.5t-70 -23.5h-18v4zM246 403q0 -16 14.5 -22.5t28.5 -6.5q22 0 41.5 10t31.5 24q-12 15 -28.5 23t-35.5 8q-15 0 -33.5 -8t-18.5 -28z" />
    <glyph glyph-name="l" unicode="l" horiz-adv-x="329" 
d="M10 127q13 67 25 137t21 137l320 1360l6 60v13q0 19 -1 36.5t-19 17.5q-12 0 -21.5 -8.5t-15.5 -17.5l-8 -7q-17 -16 -26.5 -35.5t-17.5 -43.5q-9 -10 -21 -10q-19 0 -19 24q0 12 7 23q24 53 62 91.5t99 38.5q71 0 86 -53q2 -4 3.5 -12.5t1.5 -13.5v-43q-3 -17 -5 -33
t-4 -35l-348 -1517l-17 -99v-24q0 -10 4.5 -29t21.5 -19q12 0 25 8.5t25 17.5q30 31 51 63q17 30 36 58t39 57v-20q0 -40 -18.5 -82t-48 -80t-68 -62.5t-80.5 -24.5q-52 0 -73.5 30t-21.5 79v18z" />
    <glyph glyph-name="m" unicode="m" horiz-adv-x="1383" 
d="M80 58q0 10 1 24t1 16l102 396l10 50v8q0 10 -4 20.5t-16 10.5q-14 0 -20 -6l-119 -122h-3v5l15 43q4 27 23 53q18 25 42.5 45.5t47.5 38.5q16 12 31.5 18.5t35.5 6.5q37 0 56.5 -29t19.5 -66v-12l-18 -93l-82 -328q-2 -6 -4.5 -16t-2.5 -18v-5h2h3l2 2q0 3 1 3t1 2
q4 2 7 6.5t6 4.5l202 356l40 58q2 4 14.5 17t17.5 17q4 6 20 22.5t20 20.5q26 23 57 39.5t70 16.5q47 0 75.5 -26t28.5 -73v-8l-11 -80l-73 -328l-8 -50q2 2 4 4.5t4 4.5l5 4l41 67l139 264l48 71l36 47q0 2 8.5 11.5t14.5 13.5q34 33 77.5 57.5t90.5 24.5q51 0 70 -33
t19 -78v-20t-3 -18l-87 -400q-2 -5 -2 -13q0 -35 31 -35q19 0 34.5 13t26.5 26q0 2 7 9l5 7l89 121q2 1 9.5 12t12.5 15h3v-4v-15q0 -39 -16.5 -72.5t-42.5 -65.5q-29 -46 -75 -81t-102 -35t-75 45q-5 4 -5 17v34l16 126l61 287q3 9 3 18v17v16q-3 15 -8.5 28t-21.5 13
q-14 0 -26 -8t-23 -16q-4 -2 -14 -10.5t-13 -10.5q-4 -4 -13.5 -14t-13.5 -12l-37 -47l-50 -77l-141 -271q-3 -4 -14.5 -21.5t-17.5 -27.5q-9 -13 -20.5 -25t-25.5 -26q-18 -14 -37.5 -23.5t-38.5 -9.5q-14 0 -28.5 4t-16.5 20q0 4 -1 13.5t-1 11.5v5v6v24q0 10 2 17l86 386
q0 3 3 16t3 23q2 8 2 24v14q-2 13 -8 25t-22 12q-11 0 -26 -10t-26 -18q-12 -13 -22 -22t-20 -19q-6 -4 -14.5 -15.5t-10.5 -13.5l-55 -78l-161 -290q-4 -4 -13.5 -20.5t-14.5 -22.5q-23 -34 -55.5 -64t-74.5 -30q-33 0 -41 11.5t-8 39.5v7z" />
    <glyph glyph-name="n" unicode="n" horiz-adv-x="933" 
d="M80 53l2 43l106 422q4 4 5 13.5t3 16.5v12q0 12 -5 20.5t-15 8.5q-16 0 -22 -8l-119 -121h-3v-2q-2 0 -2 4q5 16 10 31.5t9 32.5q28 57 82 100q2 2 10.5 7t10.5 7q17 12 35 21.5t42 9.5q37 0 57 -30t20 -64v-7l-12 -78l-93 -367q-3 -7 -1.5 -8t1.5 -4l4 3l201 332l56 80
l58 67l28 23l24 19q3 0 6 3t7 4q22 12 44.5 19.5t47.5 7.5q54 0 74.5 -34t20.5 -81v-2q-2 -4 -2 -15v-7l-21 -101l-54 -222l-13 -70v-21v-2q0 -16 5.5 -31t24.5 -15q10 0 21 7t24 14q4 3 9.5 7.5t7.5 6.5q5 4 13.5 12t10.5 10l105 125l5 7v-12q0 -29 -12.5 -60t-31.5 -56
q-5 -4 -12 -13t-7 -11l-28 -32q-2 -2 -11.5 -12t-13.5 -12q-31 -21 -63 -36t-70 -15q-43 0 -62.5 24.5t-19.5 66.5v3v17l4 43l75 357q3 2 4 11.5t1 13.5v14q0 12 -4.5 31.5t-24.5 19.5q-14 0 -24 -7t-23 -15q-4 -2 -12.5 -8.5t-10.5 -8.5q-4 -4 -13.5 -12.5t-10.5 -10.5
l-33 -36l-50 -67l-198 -329l-30 -47q-3 0 -6 -3.5t-6 -5.5q-19 -19 -41 -35t-49 -16t-36 13t-9 36v4z" />
    <glyph glyph-name="o" unicode="o" horiz-adv-x="741" 
d="M26 264q0 49 19 98q0 4 3 15.5t5 14.5q0 5 4.5 14.5t7.5 11.5l26 40l34 38l37 38l69 55l46 31q6 2 12 8q9 4 14 9q37 15 75 23.5t75 8.5h16q5 0 15 -1t12 -3l34 -4q4 0 14 -3.5t14 -5.5t13.5 -5.5t11.5 -3.5q47 -23 79.5 -59t47.5 -88q0 -4 2 -12t4 -12v-12q0 -5 1 -9.5
t1 -6.5v-3v-33l-2 -36l-8 -38q-2 -3 -5.5 -13t-5.5 -15q-2 -6 -6.5 -17.5t-6.5 -11.5l-19 -35l-28 -44l-34 -42l-43 -43l-32 -27l-36 -26l-30 -13l-35 -19l-38 -11l-31 -11q-6 0 -15 -2t-14 -2q-4 0 -12.5 -1t-13.5 -1h-18h-14q-7 0 -20 1t-18 1l-30 6h-5h-4q-2 0 -2 2
q-92 35 -136 117q0 2 -3.5 8.5t-3.5 8.5q0 4 -4.5 13t-4.5 14l-8 30q0 4 -2 13.5t-2 14.5q-2 4 -2 10.5v7.5v17zM150 215v-10q4 -39 17 -76.5t53 -58.5q32 -19 76 -19h10h9q16 2 29.5 3.5t27.5 5.5q4 0 14.5 4t12.5 6l34 16q3 0 12.5 6t14.5 8q29 18 51.5 42t40.5 50
q4 4 8 15t6 13l19 42q2 2 6 13.5t4 15.5q3 5 6.5 18t3.5 18l9 39v48v15q0 56 -15.5 106t-70.5 76q-36 15 -73 15q-58 0 -115 -34q-4 -3 -12 -7t-11 -6q-4 -2 -15 -9.5t-13 -9.5l-25 -24q-2 0 -8.5 -5t-8.5 -11q-2 -2 -6.5 -8.5t-7.5 -8.5q-2 -3 -6.5 -10.5t-6.5 -9.5
l-17 -30l-21 -47l-16 -48l-10 -58l-6 -53v-11v-21z" />
    <glyph glyph-name="p" unicode="p" horiz-adv-x="704" 
d="M-212 -418q0 26 26 26q6 0 12.5 -2.5t17.5 -2.5q38 0 69 30.5t42 65.5q2 5 7.5 15.5t5.5 12.5l206 827l-164 -118q7 31 23 57.5t35 47.5q30 23 59 44.5t61 34.5l59 190l36 80q2 4 8.5 21.5t11.5 23.5q39 60 88.5 92.5t119.5 32.5h22t25 -4q27 -8 41.5 -29.5t14.5 -48.5
q0 -52 -54 -78q-12 -4 -22 -4v2q1 12 1 22.5v20.5q0 22 -8.5 41t-36.5 19q-32 0 -58 -19t-44 -41q-3 0 -3 -4q0 -2 -2 -4l-11 -23q-4 -7 -10 -21.5t-6 -16.5l-64 -216q26 5 48 7t48 2q31 0 60 -3t55 -16q78 -26 131 -94.5t53 -154.5q0 -77 -31.5 -149t-78.5 -132
q-2 -5 -10.5 -12.5t-10.5 -12.5q-45 -44 -101 -76t-121 -32q-53 0 -90 30t-62 73q0 2 -4 13.5t-4 18.5l-2 4l88 15h2v-30q0 -16 9 -30q14 -42 71 -42t99 29.5t70.5 74.5t42.5 100t14 103q0 34 -6 68t-18 66q-26 63 -69 100.5t-117 37.5h-10q-4 0 -10 -1.5t-11 -1.5
q-2 0 -10 -1t-13 -1q-2 0 -6 -1t-6 -1q-5 -2 -9 -2t-6 -4l-208 -849q-5 -18 -6.5 -33t-1.5 -34q0 -33 14.5 -57.5t53.5 -24.5q27 0 61 17q7 4 12 6t16 2q23 0 23 -22q0 -20 -12 -24q-26 -11 -51.5 -19.5t-50.5 -8.5q-54 0 -81 32t-44 76q-32 -40 -68 -74t-94 -34
q-18 0 -37 2.5t-19 25.5z" />
    <glyph glyph-name="q" unicode="q" horiz-adv-x="695" 
d="M401 -313v27.5t2 23.5l84 348l-2 -2q-4 -2 -19 -15t-18 -16q-21 -13 -44.5 -23.5t-49.5 -23.5q-58 -27 -118 -27q-29 0 -54.5 6.5t-48.5 16.5q-71 33 -100 94.5t-29 139.5q0 23 3 47.5t10 52.5q9 30 19.5 61.5t25.5 57.5q56 84 151 144t193 60q103 0 169 -74q2 0 8 -9.5
t9 -13.5q9 0 9 -8h2l101 429q8 36 33.5 57.5t62.5 28.5h30q17 0 45 -4.5t44 -21.5q4 -4 11 -8.5t7 -11.5q0 -13 -18 -13q-11 0 -23.5 3.5t-25.5 3.5q-45 0 -60 -54l-299 -1246q-2 -2 -3 -11t-1 -14t-1 -15.5t-1 -14.5q0 -16 6.5 -34t26.5 -22h6q31 0 49 20t29 38
q15 25 26 52t21 53q10 -23 10 -52q0 -51 -28.5 -98.5t-78.5 -60.5q-12 -4 -21.5 -4h-16.5q-133 0 -133 133zM111 215q0 -33 8 -66t21.5 -60t40 -42t65.5 -15q48 0 100 21q55 24 100.5 64.5t66.5 97.5q2 5 5.5 15t7.5 10l40 185q4 8 4 17v18q0 98 -89 138q-39 13 -80 13
q-51 0 -94 -26.5t-74 -64.5q-18 -20 -35.5 -42.5t-28.5 -46.5q-3 -8 -12.5 -29.5t-12.5 -25.5q-7 -22 -14.5 -43.5t-13.5 -43.5q-5 -18 -5 -37v-37z" />
    <glyph glyph-name="r" unicode="r" horiz-adv-x="720" 
d="M98 56l2 26l105 392l10 62q3 0 3 11v17v2v6v13q0 4 -4.5 13t-8.5 9t-8.5 -2t-10.5 -4l-149 -143q-5 -5 -9 -5h-2v2q0 10 4 19q0 2 2.5 5.5t2.5 5.5q2 4 7 11t5 9q2 4 5.5 13.5t5.5 11.5l30 34l30 31l34 27l26 18q0 3 5 4.5t9 5.5q23 13 53 13q38 0 59 -30t21 -67v-6
l-5 -42l-80 -320l108 231l49 84l42 53l16 19q3 4 11 13t12 11q31 25 65 40.5t73 15.5q21 0 30 -2q27 -7 46.5 -28t21.5 -50v-8q0 -29 -14 -53t-44 -35q-2 0 -3 -1t-7 -1q-3 -2 -6 -2l-51 -11l25 58q4 22 4 32v8q-2 15 -16.5 26t-29.5 11q-14 0 -26 -7t-24 -17q-2 -2 -4.5 -3
t-4.5 -3q-4 -2 -6 -7l-24 -28l-41 -52l-57 -103l-149 -327q-5 -6 -10.5 -12.5t-10.5 -14.5q-27 -35 -68 -35q-14 0 -20 2q-20 4 -24.5 19.5t-4.5 29.5v5z" />
    <glyph glyph-name="s" unicode="s" horiz-adv-x="562" 
d="M17 162q0 34 26 60q8 11 22.5 19t32.5 8q20 0 33 -14.5t13 -36.5q0 -36 -39 -42q-2 0 -3.5 -2t-3.5 -2q-16 -15 -16 -30q0 -19 16 -40q37 -45 103 -45h6h20l25 8l33 6q2 0 11.5 2.5t14.5 4.5q25 12 45 33.5t26 52.5q3 8 3 27q0 44 -23 74q-4 4 -16 17l-24 15l-98 65
q-2 1 -6 4q-11 4 -11 8q-2 0 -4 4q-2 0 -2 2q-5 2 -11 9t-8 9q-38 45 -38 103q0 41 20 77.5t54 59.5q28 20 67 36q4 2 15 4.5t15 4.5q5 2 16 4t12 2l35 4h25q3 0 11.5 -1t12.5 -1q2 -2 5.5 -2t6.5 -2q66 -13 91 -66q9 -24 9 -47q0 -65 -58 -65q-19 0 -33.5 10t-14.5 29
q0 26 18 44l7 7l2 2h2q0 2 -2 4q-24 55 -90 55q-41 0 -83 -22q-18 -9 -34.5 -26t-16.5 -42q0 -24 13 -45.5t28 -37.5l8 -7q2 -2 6 -5l117 -77q2 -2 9.5 -8t11.5 -10q65 -54 65 -138q0 -42 -20.5 -80.5t-50.5 -66.5q-3 -5 -10 -10t-10 -7l-27 -13q-2 -2 -12 -7.5t-14 -7.5
t-12.5 -5.5t-10.5 -3.5q-5 -2 -17 -6.5t-14 -4.5l-32 -6q-5 -2 -12 -2q-6 -2 -14 -2h-7h-20q-53 0 -98 18.5t-70 63.5q-3 0 -4.5 4.5t-3.5 4.5q-18 38 -18 71z" />
    <glyph glyph-name="t" unicode="t" horiz-adv-x="425" 
d="M32 111q0 5 1.5 15.5t3.5 15.5l123 476h-137v51h151l71 281v15q0 18 -4.5 30.5t-22.5 12.5q-17 0 -29.5 -9.5t-22.5 -20.5q0 -2 -6 -7q-2 -3 -2 -6l-51 -80q0 -2 -4.5 -7.5t-6.5 -9.5t-8 -10.5t-11 -6.5q-7 0 -11 6.5t-4 10.5q0 22 11 40l21 44q0 5 5.5 13t7.5 13
q26 41 63 69.5t84 28.5q89 0 89 -96v-21t-1 -16l-13 -75l-52 -199h137v-51h-150l-114 -440q0 -2 -1.5 -16.5t-4.5 -22.5v-26q0 -13 2 -30.5t20 -17.5q12 0 23.5 6t19.5 13q6 4 14 10t10 9l38 41l71 89q4 9 12 13v-8v-2q0 -29 -8 -50q-3 -4 -5.5 -12t-4.5 -8l-30 -48
q-3 -2 -12 -13t-13 -19q-22 -28 -48 -41q-51 -45 -115 -45q-48 0 -67 25.5t-19 72.5v13z" />
    <glyph glyph-name="u" unicode="u" horiz-adv-x="959" 
d="M174 122v15l22 112l61 225l9 64q3 3 3 16q0 16 -6 31.5t-23 15.5q-13 0 -26 -8t-26 -14q-2 -2 -8 -7.5t-9 -7.5q-2 -4 -9.5 -9t-9.5 -7l-43 -45l-86 -114v5q0 42 20 78q4 4 7 16t3 15l24 33l30 34l35 37q2 0 8 5.5t10 7.5q26 23 59 36t68 13q49 0 68 -24.5t19 -69.5v-15
v-22l-85 -378q0 -2 -1 -10t-1 -13v-15q0 -19 4.5 -35.5t28.5 -16.5q11 0 22.5 7t21.5 14q6 3 13.5 9.5t11.5 8.5q0 2 5 7.5t7 5.5l35 34l51 66l212 338q0 4 10.5 16.5t15.5 18.5q12 21 34 39q17 16 37.5 25.5t41.5 9.5q26 0 35.5 -13t9.5 -38v-7l-7 -34l-109 -430l-6 -31v-5
q0 -11 4.5 -21t15.5 -10q19 0 26 11l124 118l2 2v-2l-12 -43l-4.5 -9l-4.5 -9q0 -1 -3 -7t-6 -10q-18 -33 -44 -58.5t-59 -46.5q-15 -11 -33 -18.5t-36 -7.5q-40 0 -60.5 29t-20.5 67v9l11 73l96 370v6v4l-3 -4q-2 0 -2 -2l-208 -334l-48 -68l-63 -70l-17 -20
q-27 -23 -65 -41.5t-78 -18.5q-51 0 -75 32.5t-24 80.5v9z" />
    <glyph glyph-name="v" unicode="v" horiz-adv-x="772" 
d="M188 84l21 416q0 3 -1 6t-1 7v9v10t-2 9q-2 19 -11.5 42.5t-33.5 23.5q-10 0 -20.5 -10t-21.5 -18q-5 -4 -9 -11.5t-6 -9.5l-71 -103q0 -9 -9 -9q-2 0 -2 5v4v5q0 5 1 9.5t1 6.5q0 5 2.5 11.5t2.5 8.5l15 34l10 26l24 42q3 0 5 4.5t4 6.5q56 60 136 60h14
q33 -4 52.5 -26.5t26.5 -55.5t7 -61v-13l-28 -417l109 78l91 80l58 63l51 65l27 47l13 29l9 25q0 2 3.5 13t3.5 15q2 11 3 19.5t1 21.5q0 27 -12.5 51.5t-43.5 24.5q-20 0 -36.5 -7t-32.5 -14q-4 -2 -10 -7t-10 -5q-3 -6 -9 -11t-9 -5l-47 -45q0 4 2 7q3 7 3 10t2 5
q5 10 9.5 20.5t8.5 24.5q7 10 16 18.5t15 14.5q23 16 55 27q8 0 13 4q10 2 23.5 3t25.5 1q43 0 85.5 -24.5t47.5 -78.5v-8q0 -20 -7 -36q0 -2 -5 -11q-3 -4 -3 -8l-13 -34q0 -4 -7.5 -16t-9.5 -17q-4 -5 -12.5 -17.5t-13.5 -15.5l-105 -128l-87 -89l-99 -79l-155 -105l-2 4
q-11 -6 -20 -6q-15 0 -20.5 13t-7.5 24q-4 12 -4 18.5v19.5v9z" />
    <glyph glyph-name="w" unicode="w" horiz-adv-x="1153" 
d="M572 171l17 228l-89 -184l-47 -67q-2 -4 -13 -19.5t-15 -21.5l-17 -16q-34 -38 -77.5 -64.5t-94.5 -26.5q-58 0 -88 35t-30 92v10l13 85l67 283q3 4 3 21q0 13 -6.5 28.5t-23.5 15.5t-31.5 -11t-28.5 -23q-2 -4 -13 -16l-10 -9l-58 -82v4q0 3 2.5 14t2.5 15q8 38 25 74
t44 66t62 47.5t76 17.5h22q27 -8 37 -34t10 -52v-9q-3 -10 -4 -24t-1 -16l-79 -390q-3 -5 -3 -9v-15v-7q0 -17 6 -35t22 -23q23 0 44 11t40 24q2 3 4.5 6.5t5.5 3.5l28 31l29 37l48 72l165 322l40 68q7 10 19.5 18t23.5 8q21 0 28.5 -20t7.5 -36v-3q-2 -6 -2 -16v-13
l-49 -328q-2 -5 -3.5 -27.5t-1.5 -30.5v-22v-29.5t5 -32.5q4 -19 13 -33t28 -14q34 0 68 18.5t58 39.5q3 4 11 13t12 11q7 4 19.5 16.5t16.5 18.5q4 5 13.5 17.5t9.5 14.5l38 64l26 49l22 59l16 59q0 4 2 18.5t4 21.5q0 5 1 12.5t1 10.5v13v19.5t-4 19.5q-4 26 -19 48
t-42 22q-26 0 -46 -14.5t-36 -33.5l-13 -13t-11 -12l-31 -41l-1 -4v7q0 51 28 91t77 62q28 13 65 13q40 0 72.5 -21.5t41.5 -66.5q3 -11 3 -37v-12q0 -4 -1.5 -13.5t-1.5 -13.5q-2 -5 -5.5 -21.5t-5.5 -21.5q0 -9 -7.5 -26.5t-7.5 -21.5l-46 -101l-51 -95l-38 -58
q-2 0 -12 -13.5t-14 -19.5q-16 -20 -31.5 -36t-35.5 -33q-37 -26 -82.5 -42t-90.5 -16q-69 0 -93.5 34t-31.5 99v27v11z" />
    <glyph glyph-name="x" unicode="x" horiz-adv-x="906" 
d="M21 96q0 33 19.5 59.5t55.5 26.5q9 -2 17.5 -2t17.5 -4l-2 -2q-16 -14 -28.5 -29.5t-12.5 -37.5q0 -27 20.5 -40.5t43.5 -13.5q22 0 39.5 10t37.5 23q4 2 10.5 8t7.5 6l28 31l143 186l-38 194q0 4 -2 9q-4 10 -4 14q-4 7 -8 14.5t-8 13.5q-20 33 -58 33q-25 0 -46 -25
q-5 -4 -10.5 -10t-7.5 -10l-38 -43q-2 0 -7 -5.5t-7 -7.5q-4 -2 -9.5 -6.5t-8.5 -4.5h-4q14 47 41 87q28 39 65.5 60.5t83.5 21.5q40 0 65 -16t45 -49q0 -4 5 -8q0 -4 5 -15l4 -8l31 -115l82 103l41 45q2 0 13 11t16 14q10 8 23 16t28 16q32 23 77 23q38 0 63.5 -26.5
t25.5 -65.5q0 -38 -21 -59.5t-57 -21.5l12 26q5 10 5 19v17q0 49 -52 49q-24 0 -41.5 -11t-37.5 -26q-5 -4 -13 -10t-8 -8l-37 -41l-106 -135l46 -226q0 -2 3 -10.5t6 -12.5q8 -27 25.5 -48t42.5 -21q16 0 28.5 7.5t23.5 18.5l19 19l35 45l12 10q9 11 24 16v-3q-4 -2 -4 -5
q-2 -4 -2 -10q-22 -68 -67 -111t-117 -43q-75 0 -106 63q-2 0 -5 7.5t-3 9.5q-3 4 -4 9t-3 5l-43 158l-91 -123l-40 -45q-2 -4 -10.5 -14t-14.5 -14q-2 -2 -12.5 -7.5t-15.5 -10.5q-11 -10 -32 -19q-39 -21 -78 -21q-46 0 -81 24.5t-35 71.5z" />
    <glyph glyph-name="y" unicode="y" horiz-adv-x="894" 
d="M122 -298q0 49 27 89t66 65q5 5 13 8t8 5l45 26l239 82l61 282l-43 -73l-33 -47q0 -2 -10 -12.5t-14 -15.5q-48 -53 -106 -82t-130 -29q-91 0 -114 88q0 3 -2 9t-2 10q0 2 -1 4t-1 7v9v39l4 41l78 311q8 16 8 40q0 12 -4 27.5t-23 15.5q-12 0 -32 -16q-2 -2 -4 -3t-4 -3
q-4 -2 -6 -7l-105 -103l-7 -7h-4v7q0 14 9 27q2 7 5 12t5 5q0 2 2 7.5t2 9.5q2 6 7 9l30 38l45 41q0 2 6.5 8t10.5 8q18 18 42.5 27.5t51.5 9.5q45 0 66 -25.5t21 -70.5v-11q-2 -4 -2 -14.5v-13.5l-94 -399q-2 -10 -2 -30v-11q5 -31 18 -40q10 -5 24 -5q49 0 91 24.5
t75 61.5q3 5 13 17t13 15l40 58l67 116l35 86l49 160q0 3 3 6l4 6q30 66 104 66q12 0 32 -2t37.5 -8.5t32 -16.5t14.5 -26v-5q0 -6 -7 -6h-4q-10 0 -20.5 2t-17.5 2h-13q-40 -6 -60 -49q-2 -4 -8 -17t-6 -19q-3 -4 -5.5 -13t-2.5 -13l-101 -461h2l3 2l54 31l50 39l100 87
l2 2q0 -14 -6 -27q-5 -32 -26 -58.5t-47 -52.5q-5 -2 -14 -6.5t-12 -8.5l-38 -28l-84 -50l-37 -98l-31 -65l-43 -68l-35 -49l-34 -33q-3 -2 -14.5 -13t-17.5 -15q-30 -25 -66 -36t-73 -11q-60 0 -104.5 29.5t-44.5 95.5zM169 -298q0 -46 33.5 -61t70.5 -15q54 0 91 26t63 69
q4 6 11.5 21.5t12.5 17.5q0 7 7 24.5t9 21.5l38 114l-202 -70l-37 -19q-2 -2 -13 -7.5l-15 -7.5q-29 -21 -49 -51.5t-20 -62.5z" />
    <glyph glyph-name="z" unicode="z" horiz-adv-x="802" 
d="M222 75q-19 0 -30 -2l-34 -5l-40 -10q-2 0 -13 -2.5t-17 -6.5q-18 -2 -30.5 -12.5t-27.5 -21.5v8q0 20 5 33.5t12 31.5q2 6 4 11.5t2 7.5l22 32l109 123l245 241l-152 78l-35 17q-2 0 -6 3h-7q-2 0 -2 2q-12 4 -39 4q-17 0 -22 -2q-24 -7 -42.5 -26t-18.5 -43v-4
q0 -2 2 -4q0 -6 2 -8v-2q0 -3 2 -3l37 15q4 4 9 4h12q19 0 27.5 -17t8.5 -34q0 -25 -18 -36t-37 -11q-41 0 -69 32t-28 68q0 51 39 80.5t82 42.5q20 4 39.5 7t38.5 3t32.5 -2t30.5 -4q5 -2 16 -4.5t12 -4.5l42 -14l63 -29l61 -34l2 2l28 22l33 17q5 0 12.5 5t13.5 7
q36 16 75 16q13 0 19.5 -1t17.5 -1q25 -6 44.5 -23.5t19.5 -48.5q0 -28 -13.5 -45.5t-33 -30.5t-45.5 -20t-45 -9q-11 -2 -22.5 -2h-25.5h-8l-37 2q-3 0 -18 2.5t-21 4.5q-2 0 -12 3.5t-15 3.5l-296 -297l-35 -40l19 10l32 8l38 7q2 0 14 2.5t19 2.5h6h19q58 0 109 -20
l11 -4q2 -2 6 -2l76 -48q4 0 11.5 -4.5l12.5 -7.5q30 -13 65 -13t58.5 14t23.5 53q0 38 -23.5 50.5t-56.5 12.5h-8l-124 -19v2q56 69 143 69q48 0 85 -31.5t37 -81.5q0 -28 -12 -56q-37 -69 -121 -84q0 -2 -6 -3t-11 -1h-12h-30q-6 0 -17 1t-17 3q-5 0 -13.5 1t-13.5 3
t-15.5 5.5t-12.5 3.5l-103 39q-5 0 -19 3t-21 6q-30 10 -74 10zM558 552q6 -8 14 -8q17 -8 36.5 -12t37.5 -4q25 0 38 4t27 12t14 26q0 13 -13 20.5t-24 10.5h-9q-35 0 -64.5 -15.5t-56.5 -33.5z" />
    <glyph glyph-name="braceleft" unicode="{" horiz-adv-x="264" 
d="M100 88q0 3 2.5 15.5t4.5 23.5q9 29 17.5 64.5t14.5 67.5q9 41 11 82t-17 77q-4 18 -17 29t-28 20q-18 16 -48 27q-5 6 -18.5 7.5t-11.5 7.5q0 4 4.5 4t8.5 5q20 10 37 15.5t36 18.5q54 31 81.5 87t40.5 110q6 36 10.5 67t11.5 67q2 7 4 19t3 15l40 143l24 64q2 3 9 18
t11 23q39 70 98.5 127t132.5 85h13q17 0 28 -11v-8q0 -7 -11 -7q-53 -20 -89 -47.5t-62 -77.5q0 -3 -4 -13t-6 -14q-2 -2 -2 -4t-2 -7t-2 -12l-105 -391q0 -4 -8.5 -23.5t-13.5 -26.5q-25 -74 -80.5 -134t-126.5 -90v-2q59 -24 96 -74t42 -115q2 -9 3 -26t-1 -21l-9 -75
l-60 -358q0 -2 -1 -12t1 -14q-6 -89 60 -136q2 0 8 -4.5t8 -4.5q4 -3 10 -6t11 -3q7 -7 5 -10q-2 -10 -10.5 -13.5t-17.5 -3.5q-16 0 -29 8.5t-23 14.5q-8 0 -13 8q-85 79 -94 201v20t-4 17l7 72z" />
    <glyph glyph-name="bar" unicode="|" horiz-adv-x="192" 
d="M147 -374h-107v1718q0 7 3 12h104q0 -10 1 -14v-15q0 -16 -1 -26v-1675z" />
    <glyph glyph-name="braceright" unicode="}" horiz-adv-x="429" 
d="M-196 -347q0 9 7 9q52 18 89.5 47t56.5 82q6 4 9.5 13.5t3.5 11.5q4 6 8.5 19t4.5 15l101 383q0 5 7 20.5t9 21.5q31 71 74.5 124.5t112.5 89.5q4 3 15 8.5t15 5.5q3 0 11 3t12 3q-49 27 -79 75t-32 107q-2 6 -2 24v20l6 75l54 345q2 5 3 21.5t1 20.5q3 67 -34 112
q-3 0 -5 2q-5 4 -3 6q-2 0 -6.5 6t-9.5 6l-24 11q-2 0 -3 1t-3 1t-7 2q-10 5 -4 12q0 10 9 12q4 7 23 7q12 0 21 -6.5t21 -12.5q15 -12 28.5 -24.5t25.5 -30.5q26 -25 39 -62.5t17 -76.5q0 -7 1 -21t1 -19l-4 -74l-22 -134q0 -6 -2 -14q-4 -13 -4 -17q-6 -36 -13.5 -70
t-17.5 -69q-15 -65 -7.5 -119.5t64.5 -86.5q0 -4 8.5 -7t13.5 -9q3 -2 7 -2q5 -2 9 -2q4 -3 7 -4t1 -5t-9.5 -6.5t-11.5 -2.5q-19 -6 -37 -14t-35 -17q-68 -30 -98.5 -86t-44.5 -121q-6 -33 -13 -68.5t-11 -64.5q-2 -4 -2 -12t-2 -12l-4 -14l-37 -141l-25 -61q0 -2 -9 -20
t-14 -23q-28 -64 -80.5 -113.5t-115.5 -80.5q-8 -4 -18.5 -10t-21.5 -6q-9 0 -19.5 5t-5.5 12z" />
    <glyph glyph-name="asciitilde" unicode="~" horiz-adv-x="1139" 
d="M329 622q72 0 140.5 -17.5t136 -37t138.5 -37t146 -17.5q33 0 61.5 3.5t63.5 21.5q14 14 25.5 34t23.5 39t23 32t28 13v-6q-2 -6 -4 -7q-3 -3 -3 -5q0 -1 -2 -1q-20 -50 -44 -96.5t-60.5 -81t-85 -58t-116.5 -23.5q-75 0 -144 21t-136 44.5t-135 44.5t-140 21
q-63 0 -99.5 -24.5t-58.5 -51.5t-31 -51t-19 -24h-14q17 56 39 103.5t57 82.5t85 56.5t125 21.5z" />
    <glyph glyph-name="dieresis" unicode="&#xa8;" horiz-adv-x="1139" 
 />
    <glyph glyph-name="copyright" unicode="&#xa9;" horiz-adv-x="1264" 
d="M40 704q0 134 53.5 255.5t145.5 215t214 149t259 55.5q111 0 204.5 -40t161 -111t107.5 -167t40 -205q0 -134 -55 -256t-147 -214t-214.5 -148t-254.5 -56q-110 0 -205 38.5t-164 108.5t-107 165t-38 210zM91 710q0 -101 34.5 -187.5t98 -150.5t149 -100t185.5 -36
q124 0 236 50t194.5 135.5t133 197.5t50.5 232q0 101 -35.5 188.5t-98 149t-149.5 98.5t-185 37q-125 0 -235.5 -49.5t-193.5 -136t-133.5 -196t-50.5 -232.5zM308 654q0 45 6 86t24 83q68 172 218 283q103 82 229 82q79 0 124 -40t45 -119q0 -84 -36.5 -156.5t-94.5 -128.5
q-34 -30 -72.5 -48.5t-87.5 -18.5q-122 0 -122 125q0 60 39.5 110.5t88.5 84.5q2 2 14 6.5t16 8.5q11 5 23.5 9t18.5 4t6 -6l-6 -7l-64 -44q-43 -25 -70.5 -77.5t-27.5 -105.5q0 -41 26.5 -66.5t61.5 -25.5q51 0 90 27q153 101 153 281q0 80 -33.5 124.5t-117.5 44.5
q-60 0 -109 -26t-92 -66q-30 -30 -58 -60.5t-54 -69.5q-43 -65 -64.5 -145.5t-21.5 -159.5q0 -104 49 -175t157 -71q88 0 159 54t113 126q2 6 7 6q9 0 9 -8v-3q0 -2 -2.5 -6t-4.5 -8q-45 -75 -119 -130.5t-170 -55.5q-22 0 -40 4t-42 9q-91 25 -129.5 103t-38.5 166z" />
    <glyph glyph-name="registered" unicode="&#xae;" horiz-adv-x="1264" 
d="M40 706q0 132 54 253.5t148 215t214.5 148t255.5 54.5q109 0 203.5 -40t162 -110t107.5 -164.5t40 -206.5q0 -134 -53.5 -256t-146 -215.5t-215 -149t-256.5 -55.5q-110 0 -205 39.5t-164 110.5t-107 166.5t-38 209.5zM91 708q0 -101 34.5 -188t98 -150.5t150 -100
t186.5 -36.5q113 0 214.5 43.5t186.5 115.5q0 2 6 8t9 8q-24 0 -40.5 14t-28 33t-21.5 39.5t-14 39.5l-27 135q0 2 -2 13t-5 17q-5 11 -10 21.5t-13 14.5l-50 28q-13 4 -13 18q0 17 12 23t25 11q36 8 73.5 17t66 25.5t47.5 45t19 75.5q0 45 -20.5 75.5t-49.5 50.5
t-67.5 28.5t-76.5 8.5q-110 0 -213 -51t-158 -149q-36 -69 -36 -139q0 -26 6 -45h2h3q4 0 7 2q5 0 9 2q13 2 25.5 2h21.5q41 0 78.5 -10.5t76.5 -27.5q6 -7 6 -13q0 -15 -14 -15h-3q-36 19 -70.5 28.5t-75.5 9.5h-17h-23q-3 -2 -9 -2q-5 0 -8 -2v-3l5 -6q3 -2 3 -3t2 -3
t2 -4q0 -6 2 -6q26 -41 66 -58.5t83 -29.5q10 -2 10 -11q0 -15 -12 -15h-11q-5 6 -17.5 8.5t-14.5 2.5q-56 17 -87 43.5t-58 75.5q-56 -16 -97 -60t-41 -106q0 -69 46.5 -104.5t111.5 -35.5q54 0 110 23q60 19 100 65t58 107q2 7 8.5 30.5t6.5 27.5l41 201l19 73q0 5 5 15
t7 15q17 46 52.5 87t80.5 58q-2 -10 -6.5 -16t-9.5 -12q-5 -4 -21 -23t-21 -24q-18 -18 -29 -41.5t-18 -49.5q-2 -7 -6.5 -21t-4.5 -19l-34 -239l-4 -17q-4 -18 -8 -26q-4 -12 -12 -26.5t-14 -24.5q-45 -87 -120 -138.5t-177 -51.5q-77 0 -135 42.5t-58 124.5q0 58 31 100.5
t80 71.5q12 5 25.5 9t23.5 10q-4 16 -5 30.5t-1 29.5q0 83 45 157t114 120q34 27 87 49q46 17 94.5 27t98.5 10q42 0 87 -10t81 -31t59 -55.5t23 -84.5q0 -72 -53 -120t-123 -67q-8 -2 -31 -6t-30 -7q-2 0 -6.5 -2t-6.5 -2l-4 -4l4 -2l48 -20q16 -10 28.5 -32.5t21.5 -42.5
l38 -156q2 -2 5 -8l5 -9q10 -24 25 -46.5t43 -22.5q13 0 18 9q2 2 7.5 9t8.5 7q5 9 18 25.5t13 20.5q108 154 108 343q0 44 -7 85q-17 86 -58 156t-102.5 121.5t-138.5 78.5t-160 27q-125 0 -235.5 -49.5t-194.5 -136t-134.5 -197.5t-50.5 -233z" />
    <glyph glyph-name="acute" unicode="&#xb4;" horiz-adv-x="382" 
d="M166 838h-117l133 224h149v-2l-4 -8z" />
    <glyph glyph-name="paragraph" unicode="&#xb6;" horiz-adv-x="763" 
d="M403 725q-49 0 -90.5 6t-81.5 21q-45 15 -82.5 44t-62 66.5t-32 83.5t1.5 97q12 75 66 138q64 87 168 137t202 55h177h75l-366 -1735h-47l360 1686h-112l-359 -1686h-46z" />
    <glyph glyph-name=".notdef.107" unicode="&#xc0;" horiz-adv-x="1675" 
d="M10 160q7 22 22 40t36 18q23 0 34 -16t11 -33q0 -30 -27 -30q-9 0 -15 1.5t-15 -1.5v-9t2 -12v4q15 -24 37.5 -39t50.5 -23.5t56.5 -10.5t51.5 -2q46 0 94.5 7.5t87.5 27.5q36 18 67 42t59 54q10 8 26.5 27t18.5 24l45 65v-3q45 85 89 167.5t86 171.5q-2 0 -2 -1t-2 -1
q-4 -2 -15.5 -4t-18.5 -2q-42 -11 -85 -25t-84 -33h2q-2 -2 -8 -2q-29 0 -29 27q0 6 6.5 13t11.5 12q23 8 46.5 18.5t47.5 19.5q-2 0 6.5 2t16.5 5q13 4 25 7t18 5q22 6 46.5 10.5t46.5 6.5q27 43 55 91t50 87l72 95l71 89l58 58l66 57l65 40q-4 3 -9.5 7.5t-9.5 8.5
q-6 4 -17 11.5t-7 5.5q-80 59 -186 83q-72 15 -150 15q-4 0 -13 -0.5t-16 -0.5h-19q-19 -2 -36.5 -5t-35.5 -6l-20 -3l-18 -4t-14 -2q-141 -39 -270 -134q-7 -5 -21.5 -16.5t-19.5 -16.5q-11 -10 -26.5 -26t-26.5 -28q-4 -4 -22 -25t-22 -30q-28 -36 -46.5 -70t-35.5 -71
q-23 -58 -38.5 -124t-15.5 -134v-26q7 -64 26 -131q16 -44 36.5 -89.5t45.5 -82.5q2 -5 9 -15.5t12 -14.5h-2q4 0 4 -10q0 -19 -21 -19q-8 0 -17 7h3q-9 5 -11 9.5t-8 14.5q-4 4 -7.5 13.5t-8.5 14.5v-3q-5 5 -5 9q-5 10 -7 15.5t-5 7.5l-33 68l-27 73l-16 73l-10 86
q0 3 -1 3.5t-1 6.5v81l8 76q0 5 6 30t10 37q27 104 85.5 187.5t135.5 146.5q52 38 109.5 68.5t119.5 52.5q0 -2 8 0t14 4q11 2 19 7q10 4 16 5t10 4q23 5 45.5 11t46.5 11q13 2 28 4q10 2 22 2t22 2h98l78 -6q6 0 18.5 -2.5t24.5 -8.5q8 -2 14 -2q141 -31 257 -122
q11 4 26 11t25 15l75 27l86 20q19 0 19 -18q0 -12 -12 -17l-49 -14q-20 -12 -46 -23t-46 -16q-4 -2 -17.5 -10t-19.5 -10q13 -10 24 -24t21 -26q5 -8 16.5 -20.5t16.5 -17.5q52 -76 77.5 -158.5t25.5 -182.5l-8 -105q19 -4 36.5 -8.5t32.5 -8.5q12 -6 20 -10.5t8 -15.5
q0 -25 -33 -25l-72 17q-20 -86 -36 -180.5t-35 -180.5l-14 -103v-58q0 -5 6 -21.5t12 -21.5q42 27 70 75t48 90q8 9 11 9q16 0 16 -26q-4 -25 -12 -43v2q-4 -6 -6.5 -11t-2.5 -12q-9 -19 -25 -40.5t-34.5 -40.5t-40.5 -33.5t-44 -14.5q-31 0 -47 14.5t-25 34.5t-11 45t-2 45
v22q0 5 1 11t1 16q5 24 5 28q21 101 41.5 203.5t41.5 204.5q-7 2 -22.5 2h-21.5h-22q-47 0 -94 -9t-92 -22h-2q-2 0 -3.5 -1t-5.5 -1q-7 -3 -18 -7.5t-9 -4.5l-7 -6q17 -19 25.5 -37t8.5 -43q0 -43 -24 -82t-68 -39q-40 0 -61.5 30t-21.5 64q0 37 12.5 61.5t36.5 49.5
q-3 2 -4.5 1t-8.5 4q-32 13 -67.5 21.5t-68.5 14.5q-2 0 -7 1t-9 1q-7 0 -11 2q-36 -66 -68.5 -131t-65.5 -127l-66 -110l-54 -63l-38 -41q-78 -74 -166 -117t-198 -43q-37 0 -78 6q-27 9 -56.5 19t-52 26.5t-39 40.5t-16.5 58v10zM1088 481q0 -16 5 -32t25 -16t28.5 24
t8.5 43q0 32 -26 52l-5 -4q-16 -14 -26 -31t-10 -36zM937 682h6q5 -3 11 -3q33 -6 66.5 -14.5t71.5 -26.5q2 0 6 -1l8 -4t7 -3l9 -4q9 -6 11 -6q12 8 33.5 17t34.5 15q2 0 4.5 1t8.5 1q12 5 27 9t23 6l80 15h10q12 2 26 3t20 1h9h17.5t25.5 -2h18.5t13.5 2q2 26 5.5 51.5
t5.5 52.5v20q0 28 -3.5 59.5t-7.5 59.5q-18 66 -62.5 131t-94.5 110q-65 -39 -128 -99.5t-109 -127.5q-9 -8 -24.5 -30.5t-24.5 -38.5v5l-3 -11l-101 -186h-2zM1438 1455l10 -21l-10 -9q-11 9 -13 13q-66 73 -200 170q-23 16 -23 39q0 24 23 24q34 0 46 -20
q44 -53 91.5 -111t75.5 -85z" />
    <glyph glyph-name=".notdef.108" unicode="&#xc1;" horiz-adv-x="1682" 
d="M15 160q4 22 19 40t36 18q24 0 35 -16t11 -33q0 -30 -28 -30q-8 0 -14 1.5t-16 -1.5v-9t2 -12v4q15 -24 38.5 -39t50.5 -23.5t55.5 -10.5t52.5 -2q46 0 94 7.5t88 27.5q35 18 66 42t59 54q11 8 27 27t18 24l45 65v-3q45 85 89 167.5t87 171.5q-3 0 -3 -1t-2 -1
q-4 -2 -15.5 -4t-17.5 -2q-43 -11 -86 -25t-84 -33h4q-4 -2 -12 -2q-27 0 -27 27q0 6 7 13t11 12q23 8 47.5 18.5t46.5 19.5q-2 0 6.5 2t16.5 5q13 4 25 7t18 5q22 6 47.5 10.5t46.5 6.5q26 43 54 91t50 87l72 95l71 89l59 58l65 57l65 40q-4 3 -9 7.5t-10 8.5
q-6 4 -17 11.5t-7 5.5q-80 59 -186 83q-71 15 -149 15q-5 0 -14 -0.5t-16 -0.5h-19q-19 -2 -36 -5t-36 -6l-20 -3l-18 -4t-14 -2q-141 -39 -270 -134q-7 -5 -21 -16.5t-20 -16.5q-10 -10 -25.5 -26t-27.5 -28q-4 -4 -22 -25t-22 -30q-28 -36 -46.5 -70t-35.5 -71
q-23 -58 -38 -124t-15 -134v-26q6 -64 26 -131q15 -44 35.5 -89.5t45.5 -82.5q3 -5 10 -15.5t11 -14.5q2 -4 2 -10q0 -19 -20 -19q-8 0 -17 7h2q-9 5 -11 9.5t-8 14.5q-4 4 -7.5 13.5t-7.5 14.5v-3q-5 5 -5 9q-5 10 -8 15.5t-4 7.5l-34 68l-27 73l-15 73l-11 86q0 3 -1 3.5
t-1 6.5v81l6 79q4 2 5.5 9.5t3.5 20.5q3 9 5 19.5t4 14.5q27 104 86 187.5t135 146.5q52 38 110.5 68.5t118.5 52.5q0 -2 8 0t14 4q11 2 19 7q11 4 16.5 5t9.5 4q23 5 45.5 11t46.5 11q13 2 28 4q10 2 22 2t23 2h97l79 -6q5 0 18 -2.5t25 -8.5q7 -2 13 -2q141 -31 257 -122
q11 4 27 11t25 15l74 27l86 20q19 0 19 -18q0 -12 -11 -17l-51 -14q-19 -12 -44.5 -23t-46.5 -16q-4 -2 -17.5 -10t-17.5 -10q11 -10 22 -24t21 -26q5 -8 17 -20.5t16 -17.5q52 -76 77.5 -158.5t25.5 -182.5l-8 -105q19 -4 36.5 -8.5t31.5 -8.5q13 -6 21 -10.5t8 -15.5
q0 -25 -33 -25l-72 17q-20 -86 -35.5 -180.5t-35.5 -180.5l-13 -103v-58q0 -5 5.5 -21.5t11.5 -21.5q42 27 70 75t48 90q9 9 11 9q16 0 16 -26q-3 -25 -12 -43v2q-4 -6 -6.5 -11t-2.5 -12q-8 -19 -24.5 -40.5t-35.5 -40.5t-40 -33.5t-44 -14.5q-30 0 -46.5 14.5t-25 34.5
t-11 45t-2.5 45v22q2 7 3.5 29t1.5 26l85 408q-7 2 -22.5 2h-21.5h-22q-47 0 -94 -9t-92 -22h-2q-2 0 -3 -1t-4 -1q-9 -3 -20 -7.5t-8 -4.5l-8 -6q17 -19 26.5 -37t9.5 -43q0 -43 -24.5 -82t-69.5 -39q-39 0 -60.5 30t-21.5 64q0 37 12 61.5t36 49.5q-2 2 -3.5 1t-8.5 4
q-33 13 -68 21.5t-69 14.5q-2 0 -6.5 1t-9.5 1q-7 0 -11 2q-36 -66 -68 -131t-66 -127l-66 -110l-54 -63l-38 -41q-79 -74 -166.5 -117t-197.5 -43q-36 0 -78 6q-28 9 -56.5 19t-51.5 26.5t-38 40.5t-15 58v10zM1090 481q0 -16 5.5 -32t24.5 -16t28 24t9 43q0 32 -26 52
l-4 -4q-16 -14 -26.5 -31t-10.5 -36zM939 682h6q5 -3 12 -3q32 -6 65.5 -14.5t71.5 -26.5q2 0 7 -1q5 -3 7.5 -4t6.5 -3l9 -4q9 -6 12 -6q12 8 33 17t34 15q2 0 4.5 1t9.5 1q11 5 28 9t21 6l80 15h10q12 2 26 3t21 1h8h18.5t24.5 -2h18.5t13.5 2q2 26 5.5 51.5t7.5 52.5v20
q0 28 -4.5 59.5l-8.5 59.5q-18 66 -62.5 131t-94.5 110q-65 -39 -128 -99.5t-109 -127.5q-8 -8 -24 -30.5t-25 -38.5v5l-4 -11l-100 -186h-2zM1351 1434l-27 -9l-8 4q2 7 6.5 15t10.5 12q55 30 135 95q53 45 118 104q27 17 41 17q27 0 27 -31q0 -29 -31 -35
q-51 -27 -133 -79.5t-139 -92.5z" />
    <glyph glyph-name=".notdef.112" unicode="&#xc2;" horiz-adv-x="1690" 
d="M21 150q0 -32 14 -54.5t37.5 -39t50.5 -27t55 -19.5q42 -6 79 -6q107 0 194 43.5t165 118.5l38 39q11 17 26 32t28 32l66 109v-2l136 258h11q5 0 9.5 -1t8.5 -1q37 -4 70.5 -12.5t71.5 -24.5q5 -6 9 -6q2 -2 4 -2q-25 -27 -38 -51.5t-13 -59.5q0 -34 21.5 -61.5
t57.5 -27.5q40 0 64 36.5t24 79.5q0 36 -40 84q2 0 9 1t7 4l2 3q-5 0 7.5 4t21.5 6h4q2 0 4 2q45 13 93 22t93 9h22q7 0 26.5 -0.5t26.5 -3.5l-88 -412q-2 -2 -2 -26q0 -10 -1 -16t-1 -11v-22q0 -20 2 -45t9.5 -43.5t23.5 -31t44 -12.5q20 0 41 12.5t40 30t34 39t24 40.5
q0 7 2.5 12t6.5 11q11 20 12 45q0 17 -12 17q-4 0 -9 -13v2q-17 -42 -46 -89t-76 -73q-11 2 -15.5 22t-4.5 25v58l14 103l71 365l80 -17q25 0 25 21q0 14 -25 20l-72 21l8 114q-3 87 -29 172t-74 158q-5 7 -16.5 19.5t-16.5 17.5l-50 55l46 23l91 40l51 15q7 8 7 12
q0 14 -21 14q-20 -6 -40 -11l-40 -10l-74 -30q-11 -4 -29 -10t-30 -11q-53 43 -118.5 74t-131.5 47h-6t-6 2q-13 4 -27 7t-18 3l-78 7h-97q-10 -2 -22 -2t-23 -2q-14 -3 -27 -5q-25 -6 -47.5 -11.5t-45.5 -10.5q-4 0 -17 -4.5t-26 -8.5q-6 -2 -12.5 -2t-11.5 -5
q-119 -46 -224 -121q-79 -62 -136 -146t-86 -183q-2 -4 -4 -14.5t-4 -19.5q-4 -33 -7 -35v2q-2 -18 -3.5 -39t-5.5 -37v-81l4 -6l10 -90q4 -18 7 -36t9 -37t12.5 -37.5t15.5 -35.5q7 -14 14.5 -31t12.5 -34q2 -3 12 -16v2q3 -4 3 -6.5t2 -5.5q0 -2 2 -4q3 -7 19 -26
q4 -10 8.5 -16.5t14.5 -11.5q0 -2 5 -2q16 0 16 14q0 4 -2 4q-5 2 -12 15t-9 18q-21 38 -43.5 83t-38.5 92q-19 67 -26 131v26q0 68 15.5 134t38.5 124q19 39 39 76.5t43 68.5q2 2 19 23.5t25 31.5q11 13 26.5 28t26.5 27q-2 -3 3 0.5t11 10t14 12t13 10.5q60 42 129.5 76.5
t145.5 56.5q-5 0 9 2t23 3q2 0 5 1.5t8 1.5q4 0 6 2q19 2 36 4.5t36 6.5h20q8 0 17.5 1t15.5 1q74 0 146 -18q55 -9 106 -31.5t93 -54.5h-2q-2 0 5 -5t12 -8l24 -20l-69 -45q-15 -15 -33.5 -28.5t-32.5 -27.5q-15 -14 -30 -29t-29 -30q-19 -20 -36 -42.5t-36 -45.5l-76 -103
l-101 -170q-21 -2 -48 -7.5t-49 -9.5q-6 -2 -18 -5t-24 -8q-7 -2 -16.5 -5t-4.5 -3q-25 -8 -49.5 -18t-47.5 -19q-12 -4 -12 -20q0 -23 21 -23h4q45 21 88.5 35.5t85.5 26.5q8 0 27 3t20 3l-185 -351l-45 -63q-6 -11 -20 -26.5t-19 -19.5q-24 -26 -59 -51t-72 -46
q-40 -19 -87.5 -26.5t-94.5 -7.5q-23 0 -52 3t-57 9.5t-52.5 22.5t-39.5 35q-2 12 -2 37q17 -6 35 -6q22 0 22 25q0 15 -11 28.5t-29 13.5q-20 0 -33.5 -15.5t-18.5 -35.5v-10zM1088 481q0 24 10 40.5t26 30.5v-2q0 8 15 8q26 -20 26 -58q0 -19 -10 -45t-33 -26
q-21 0 -27.5 18t-6.5 34zM937 684l101 186q3 4 7 17q9 13 22.5 33.5t22.5 29.5q48 67 112 127.5t138 100.5q50 -47 93.5 -111t59.5 -136q13 -65 13 -119v-20l-13 -113q-3 0 -14 1.5t-23 1.5q-14 2 -25 2h-18h-8q-7 0 -20.5 -1t-26.5 -4h-9l-81 -14q-4 -2 -22 -6.5t-27 -8.5
q-5 0 -8 -2t-6 -2q-15 -6 -35 -15t-32 -15q-14 2 -27 12h2q-23 9 -25 10h2q-30 14 -62.5 22.5t-68.5 12.5q-7 0 -11 4h-7q-2 0 -4 2v5zM1267 1452l-4 -5q15 20 23 29q30 32 37 32q22 13 81 58q101 82 112 82q17 0 48.5 -71t47.5 -121l5 -19q0 -4 -3.5 -7.5t-6.5 -5.5
q-7 2 -14.5 6.5t-7.5 11.5q-6 30 -43 80t-55 50q-17 0 -88 -42q-103 -63 -132 -78z" />
    <glyph glyph-name=".notdef.110" unicode="&#xc3;" horiz-adv-x="1697" 
d="M19 160q4 22 18 40t38 18q23 0 35 -16t12 -33q0 -30 -28 -30q-10 0 -15.5 1.5t-16.5 -1.5v-9t3 -12v4q15 -24 38.5 -39t50 -23.5t55.5 -10.5t53 -2q46 0 93.5 7.5t86.5 27.5q36 18 66.5 42t61.5 54q9 8 25 27t19 24l45 65v-3q47 85 88.5 167.5t85.5 171.5q-3 0 -3 -1
t-3 -1q-12 -6 -31 -6q-42 -11 -85.5 -25t-82.5 -33h2q-2 -2 -12 -2q-26 0 -26 27q0 6 6.5 13t10.5 12q23 8 48 18.5t49 19.5q-2 0 5 2t17 5q11 4 23 7t19 5q22 6 46.5 10.5t47.5 6.5q26 43 53.5 91t50.5 87l71 95l72 89l56 58l68 57l64 40q-4 3 -8.5 7.5t-9.5 8.5
q-7 4 -18 11.5t-7 5.5q-80 59 -185 83q-72 15 -150 15q-4 0 -13.5 -0.5t-15.5 -0.5h-20q-18 -2 -36.5 -5t-35.5 -6l-19 -3l-18 -4t-14 -2q-142 -39 -271 -134q-6 -5 -21 -16.5t-18 -16.5q-12 -10 -27 -26t-27 -28q-5 -4 -23.5 -25t-21.5 -30q-27 -36 -46 -70t-35 -71
q-23 -58 -38.5 -124t-15.5 -134v-26q6 -64 26 -131q15 -44 35.5 -89.5t46.5 -82.5q2 -5 9 -15.5t12 -14.5q2 -4 2 -10q0 -19 -21 -19q-7 0 -17 7h2q-9 5 -11 9.5t-6 14.5q-6 4 -9 13.5t-8 14.5v-3q-4 5 -4 9q-5 10 -9 15.5t-6 7.5l-29 68l-30 73l-14 73l-12 86q0 3 -1 3.5
t-1 6.5v81l9 79q2 2 3.5 9.5t3.5 20.5q2 9 4 19.5t4 14.5q27 104 86 187.5t136 146.5q52 38 110.5 68.5t117.5 52.5q0 -2 9 0t13 4q11 2 21 7q9 4 14.5 5t12.5 4q21 5 43.5 11t46.5 11q13 2 27 4q12 2 23.5 2t21.5 2h97l78 -6q7 0 20 -2.5t25 -8.5q6 -2 12 -2
q142 -31 258 -122q12 4 27 11t24 15l75 27l86 20q18 0 18 -18q0 -12 -11 -17l-50 -14q-19 -12 -45 -23t-47 -16q-4 -2 -17 -10t-18 -10q11 -10 22 -24t22 -26q5 -8 16.5 -20.5t16.5 -17.5q53 -76 78 -158.5t25 -182.5l-7 -105q17 -4 34.5 -8.5t33.5 -8.5q11 -6 19 -10.5
t8 -15.5q0 -25 -33 -25l-72 17q-19 -86 -35 -180.5t-36 -180.5l-13 -103v-58q0 -5 5.5 -21.5t12.5 -21.5q40 27 70 75t49 94q3 2 1.5 3.5t7.5 1.5q18 0 18 -26q-6 -25 -14 -43v2q-4 -6 -6 -11t-2 -12q-9 -19 -25 -40.5t-35.5 -40.5t-39.5 -33.5t-44 -14.5q-30 0 -47 14.5
t-24.5 34.5t-10.5 45t-3 45v22q0 7 2 26.5t4 28.5q17 96 41 204t42 204q-6 2 -21.5 2h-22.5h-22q-45 0 -93 -9t-94 -22h-1q-2 0 -3 -1t-3 -1q-9 -3 -20 -7.5t-9 -4.5l-7 -6q16 -19 26 -37t10 -43q0 -43 -24.5 -82t-70.5 -39q-38 0 -60.5 30t-22.5 64q0 37 11.5 61.5
t37.5 49.5q-2 2 -3 1t-9 4q-33 13 -67.5 21.5t-69.5 14.5q-2 0 -6 1t-9 1q-7 0 -12 2q-33 -66 -66 -131t-67 -127l-67 -110l-53 -63l-39 -41q-78 -74 -165 -117t-198 -43q-37 0 -79 6q-28 9 -56 19t-51.5 26.5t-38.5 40.5t-15 58v10zM1094 481q0 -16 6 -32t24 -16
q19 0 28.5 24t9.5 43q0 32 -26 52l-5 -4q-16 -14 -26.5 -31t-10.5 -36zM943 682h7q4 -3 11 -3q34 -6 67.5 -14.5t69.5 -26.5q3 0 8 -1q5 -3 7 -4t7 -3l9 -4q9 -6 10 -6q14 8 35 17t34 15q2 0 5.5 1t7.5 1q12 5 28.5 9t20.5 6l81 15h9q13 2 26.5 3t20.5 1h10h17t25 -2h18
t13 2q3 26 7 51.5t6 52.5v20q0 28 -4 59.5t-9 59.5q-17 66 -62 131t-95 110q-65 -39 -128.5 -99.5t-108.5 -127.5q-8 -8 -24 -30.5t-24 -38.5v5l-5 -11l-100 -186h-2zM1628 1551h33q-49 -119 -174 -119q-30 0 -34.5 3t-19.5 28q-12 17 -26 27q-19 17 -36 17q-30 0 -56.5 -26
t-41.5 -56h-27l1 7q22 50 64 83t93 33q31 0 45.5 -5.5t27.5 -22.5t27.5 -31t32.5 -14q28 0 55 24t36 52z" />
    <glyph glyph-name=".notdef.124" unicode="&#xc8;" horiz-adv-x="1001" 
d="M4 376q0 55 19.5 106.5t49.5 99.5t68.5 88t80.5 71q2 1 7 3q4 3 5.5 4t5.5 4q2 2 19 11q10 4 29.5 14t24.5 12l168 58q15 2 41 21l6 2l4 4q-54 18 -96 38q-49 23 -75.5 56t-26.5 86q0 57 24 113q48 103 146.5 158.5t211.5 55.5q71 0 138 -26t105 -87q17 -30 17 -67v-11
q-3 -18 -19 -36t-38 -18q-11 0 -23.5 6t-12.5 23q0 28 36 28q7 0 16 -5h4v15q0 7 -3 18.5t-7 20.5q-8 4 -10 14q-2 8 -4.5 10t-4.5 6v-2q-40 39 -90 55.5t-102 16.5q-57 0 -110.5 -22.5t-96 -59.5t-68 -89.5t-25.5 -110.5q0 -48 14 -80t60 -43q8 -4 26 -10t21 -6
q13 -4 25.5 -11t12.5 -20q0 -18 -8.5 -27t-14.5 -14l-10 -5t-10 -4l-8 -6q-57 -29 -117.5 -58t-114.5 -58h2q-2 -2 -7.5 -5t-15.5 -7q-2 -2 -3 -2t-6 -7q-82 -57 -123 -130t-41 -168q0 -77 29 -142q6 -17 16.5 -40t23.5 -41q9 -10 21.5 -23.5t20.5 -19.5q18 -11 35.5 -25
t34.5 -26h-4q54 -26 109.5 -34t116.5 -8h17l67 7q5 0 24 2t27 4q5 3 16 5t15 2q53 22 103.5 55t89 75.5t62.5 94t24 112.5q0 51 -14.5 97.5t-43 84t-71.5 57.5t-97 20q-100 0 -181 -56t-133 -140q-5 -5 -12 -18t-7 -17l-17 -36q-6 -9 -6 -13l-2 -4q0 -6 -2 -10
q-4 -10 -4 -14q-6 -8 -6 -10q-4 -7 -10 -11q-2 0 -6 -2q-21 0 -19 23l23 66q0 9 6 15q4 10 10 20.5t10 15.5q54 99 148.5 164.5t207.5 65.5q74 0 132 -32.5t94 -98.5q23 -38 32 -81.5t9 -90.5q0 -123 -71 -209.5t-181 -135.5q-111 -47 -234 -47h-31q-10 0 -34 2t-37 4h-10
t-11 2q-8 2 -20 4.5t-14 4.5h2l-75 20q-4 3 -25 9.5t-30 9.5q-7 0 -24 9q-25 12 -36 19q-6 4 -16.5 12.5t-21.5 18.5t-18.5 15t-7.5 3q-45 47 -67.5 111t-22.5 132zM811 1455l9 -21l-9 -9q-13 9 -15 13q-63 73 -199 170q-23 16 -23 39q0 24 23 24q34 0 45 -20
q43 -53 91 -111t78 -85z" />
    <glyph glyph-name=".notdef.125" unicode="&#xc9;" horiz-adv-x="1012" 
d="M10 376q0 55 19.5 106.5t49.5 99.5t68.5 88t81.5 71q2 1 7 3q4 3 5 4t5 4q1 2 20 11q9 4 29 14t25 12l167 58q24 9 45 23q2 2 2 1t4 3q-53 18 -96 38q-48 23 -75 56t-27 86q0 57 24 113q50 103 147.5 158.5t210.5 55.5q72 0 139.5 -26t103.5 -87q18 -30 18 -67v-11
q-3 -18 -19 -36t-38 -18q-12 0 -24 6t-12 23q0 28 36 28q7 0 11 -3v-2h6v15q0 7 -2 18.5t-6 20.5q-6 4 -9 14q-3 8 -5 10t-4 6v-2q-41 39 -92 55.5t-103 16.5q-55 0 -108.5 -22.5t-95.5 -59.5t-67.5 -89.5t-25.5 -110.5q0 -48 14 -80t66 -45q4 -4 20 -9t23 -5
q10 -4 22.5 -11t12.5 -20q0 -18 -8.5 -27t-14.5 -14l-10 -5t-11 -4l-7 -6q-56 -29 -117 -58t-115 -58h3q-3 -2 -8.5 -5t-13.5 -7q-4 -2 -5 -2t-5 -7q-83 -57 -123.5 -130t-40.5 -168q0 -77 28 -142q7 -17 17 -40t24 -41q8 -10 20.5 -23.5t23.5 -19.5q16 -11 33.5 -25
t33.5 -26h-2q53 -26 108 -34t114 -8h21l67 7q6 0 24 2t25 4q6 3 16.5 5t16.5 2q54 22 103.5 55t88.5 75.5t62 95t23 111.5q0 51 -14 97.5t-43 84t-70.5 57.5t-98.5 20q-98 0 -179.5 -56t-132.5 -140q-6 -5 -14 -18t-8 -17q-2 -5 -11 -26t-13 -29q-4 -4 -4 -8t-1 -8t-1 -6
q-4 -8 -4 -10q-6 -7 -12 -11q-2 0 -6 -2q-20 0 -17 23l21 66q0 9 6 15q6 10 12 20.5t10 15.5q53 99 147.5 164.5t206.5 65.5q72 0 131.5 -32.5t94.5 -98.5q24 -38 33.5 -81.5t9.5 -90.5q0 -123 -71.5 -209.5t-183.5 -135.5q-110 -47 -235 -47h-29q-9 0 -33.5 2t-36.5 4
h-10.5t-10.5 2q-9 2 -21 4.5t-14 4.5h2l-38 9.5t-41 10.5q-2 3 -23 9.5t-28 9.5q-4 0 -23 9q-25 12 -35 19q-8 4 -18.5 12.5t-21 18.5t-18.5 15t-8 3q-47 47 -68.5 111t-21.5 132zM608 1434l-27 -9l-10 4q3 7 7.5 15t10.5 12q55 30 136 95q53 45 117 104q27 17 42 17
q28 0 28 -31q0 -29 -34 -35q-50 -27 -132 -79.5t-138 -92.5z" />
    <glyph glyph-name=".notdef.129" unicode="&#xca;" horiz-adv-x="1010" 
d="M15 376q0 -65 20.5 -128.5t67.5 -110.5q4 -2 28.5 -21.5t42.5 -31.5h-3q5 -2 11 -5.5t16 -8.5q20 -10 24 -10q9 -2 30 -8.5t25 -8.5q19 -6 40 -11.5t37 -10.5q4 -2 12 -3t19 -3q9 -5 21 -5q10 -2 35.5 -4t34.5 -2h29q125 0 236 45q108 49 178 135.5t70 207.5
q0 41 -12 88.5t-29 83.5q-34 58 -93 92.5t-130 34.5q-107 0 -201.5 -65.5t-147.5 -160.5q-4 -7 -10 -20.5t-12 -19.5l-4 -9l-2 -2l-23 -71q4 -14 15 -14l6 2l6 7q0 2 6 10q2 4 4 13t2 13q6 8 13.5 27t9.5 24q0 4 8 19.5t13 20.5q52 83 135 139.5t182 56.5q56 0 100.5 -21.5
t74 -56.5t43.5 -83.5t14 -102.5q0 -133 -79.5 -216t-204.5 -125q-4 0 -15.5 -2.5t-14.5 -4.5q-9 0 -27 -3t-24 -3l-66 -8h-21q-61 0 -117.5 9t-112.5 36q-30 23 -64 49l-42 42q-13 15 -22.5 38.5t-17.5 47.5q-13 32 -21 68.5t-8 73.5q0 97 42 171t122 134q2 0 13 6q6 2 10 5
t7 5l236 120l8 3q3 2 6.5 4t7.5 4h-2q8 8 17.5 16.5t9.5 22.5q0 6 -11.5 14t-21.5 13q-6 2 -25 7t-25 9h2q-50 12 -64 44.5t-14 82.5q0 60 25.5 112.5t68 90.5t97 60.5t113.5 22.5q54 0 106.5 -15.5t88.5 -54.5q2 -4 5.5 -8t6.5 -12q0 -2 8 -10q11 -18 11 -43v-8v-7t-5 -5
l-8 3q-4 2 -12 2q-11 0 -21 -6t-10 -17q0 -12 10 -19t21 -7q18 0 34 16.5t19 34.5v11q0 37 -17 67v-2q-38 58 -105 84.5t-134 26.5q-109 0 -206.5 -56.5t-147.5 -153.5q-12 -26 -18 -56t-6 -57q0 -53 25 -85t74 -52q26 -14 51.5 -24t51.5 -21q-3 -2 -5.5 -3t-4.5 -3
q-19 -15 -49 -23q-41 -13 -84 -29t-84 -29q-6 -6 -25 -14t-28 -12q-2 0 -5 -2q-2 -3 -6 -5.5t-6 -4.5q-2 -5 -10 -8.5t-6 -1.5q-96 -66 -156 -155.5t-60 -205.5zM559 1452l-4 -5q17 20 24 29q29 32 37 32q23 13 80 58q101 82 114 82q16 0 47.5 -71t48.5 -121l4 -19
q0 -4 -3.5 -7.5t-7.5 -5.5q-6 2 -14 6.5t-8 11.5q-6 30 -43 80t-54 50t-89 -42q-103 -63 -132 -78z" />
    <glyph glyph-name=".notdef.104" unicode="&#xcc;" horiz-adv-x="1452" 
d="M4 306q0 44 16.5 88.5t41 82.5t58.5 70t72 56q62 37 140 58t157 21h43q6 0 11 -1.5t9 1.5q-2 6 -2 19v17v19q0 65 18.5 129.5t49.5 120.5q4 14 11.5 23t10.5 19q6 9 6 10l60 72l53 61l74 63q5 5 24 19t33 20q24 17 52.5 32t60.5 27q14 3 30.5 10.5t32.5 12.5l28 6
q68 15 139 15h29q42 -4 85 -16t74 -42q10 -12 17 -28.5t7 -36.5q0 -24 -16 -46t-42 -22h-14q-5 0 -9 1t-8 1q-61 0 -97 -25t-62 -79q0 -3 -4 -13q-7 -11 -7 -17q-5 -11 -9.5 -27.5t-4.5 -18.5l-17 -82q-12 -86 -21.5 -176.5t-20.5 -177.5l-17 -76l-25 -82q-2 -8 -8.5 -23
t-10.5 -21q-4 -10 -11.5 -25.5t-10.5 -17.5q-3 -5 -8 -14.5t-10 -16.5q-9 -13 -9 -15l-40 -43l-53 -60l-48 -39l-57 -41l-63 -36l-65 -22q-8 -3 -24 -8.5t-25 -8.5q-78 -23 -166 -23q-119 0 -235 45q-92 32 -157.5 94t-65.5 167zM45 306q0 -75 46 -126t107 -84q7 -2 23.5 -8
t20.5 -11q17 -4 33 -9.5t36 -9.5q4 -2 22.5 -5.5t26.5 -3.5q25 -4 53.5 -6.5t55.5 -2.5q151 0 285 73q58 37 101 85t76 100q4 5 11.5 26.5t9.5 25.5q5 8 12 27.5t9 23.5q5 19 9.5 40t9.5 40q16 96 31.5 197t30.5 196l20 80q0 3 2 7q0 4 1 7t4 8q5 7 8 18t3 14q30 66 65 114
q38 45 88 74t111 29h29q11 0 11 3q-2 0 -2 2v12q-9 30 -40 47q-21 6 -41 9t-41 9h-58q-4 0 -7.5 -1.5t-9.5 -1.5q-19 -3 -40 -5t-39 -4q-20 -4 -39 -8t-38 -9q-8 0 -24 -6q-12 -4 -22 -5t-15 -3q-4 -8 -17 -12t-18 -4q-2 0 -7 -3t-10 -5t-8 -4.5t1 -0.5h2q-9 -5 -18 -9.5
t-5 -0.5q-4 -2 -10.5 -8.5t-17.5 -11.5q-8 -4 -15.5 -7t-9.5 -5q-7 -5 -23.5 -18t-21.5 -18l-48 -46q3 2 -6 -9.5t-17 -23.5q-11 -14 -13 -16q-59 -70 -95 -153.5t-36 -171.5v-25q0 -4 1 -10.5t1 -10.5v-12.5t3 -7.5l69 -12l76 -25l80 -31l81 -43v-12q0 -18 -28 -18
q2 -2 -6 1t-13 7h3q-11 6 -25 14t-19 10q-12 4 -37.5 17t-31.5 16q-19 6 -37 11t-37 10q-15 4 -31 7t-31 7q2 -4 4 -9t5 -7q20 -58 58 -98t85 -72q6 -5 6 -17q0 -19 -19 -19q-7 0 -9 2l-13 13q-2 2 -3 2t-3 2q-2 0 -2 2q-109 80 -158 209h-6q-9 0 -18.5 1t-13.5 1h-31
q-98 0 -193 -29q-17 -6 -39 -19t-40 -26q-68 -38 -119 -109.5t-51 -150.5zM1346 1455l9 -21l-9 -9q-12 9 -14 13q-64 73 -199 170q-22 16 -22 39q0 24 22 24q33 0 45 -20q44 -53 92.5 -111t75.5 -85z" />
    <glyph glyph-name=".notdef.103" unicode="&#xcd;" horiz-adv-x="1461" 
d="M10 306q0 44 17.5 88.5t42 82.5t57.5 70t71 56q64 37 142 58t156 21h42q6 0 11 -1.5t9 1.5q-2 6 -2 19v17v19q0 65 19.5 129.5t50.5 120.5q4 14 10.5 23t9.5 19q8 9 8 10l58 72l51 61l75 63l26 17q10 10 19 14t13 8q49 33 114 59q15 3 30.5 10.5t33.5 12.5l27 6
q69 15 139 15h28q43 -4 86.5 -16t72.5 -42q10 -12 17.5 -28.5t7.5 -36.5q0 -24 -15.5 -46t-42.5 -22h-15q-4 0 -7.5 1t-9.5 1q-61 0 -97.5 -25t-61.5 -79q0 -3 -4 -13q-6 -11 -6 -17q-3 -4 -4 -11.5t-3 -12.5q-10 -15 -10 -25v3l-14 -82q-12 -86 -21.5 -176.5t-20.5 -177.5
l-16 -76l-26 -82q0 -8 -9 -22q-9 -18 -9 -22q-6 -10 -13.5 -25.5t-8.5 -17.5q-5 -5 -9 -14.5t-10 -16.5q-9 -13 -9 -15l-39 -43l-54 -60l-49 -39l-56 -41l-63 -36l-65 -22q-7 -3 -24 -8.5t-26 -8.5q-78 -23 -165 -23q-119 0 -236 45q-91 32 -157 94t-66 167zM49 306
q0 -75 47.5 -126t108.5 -84q6 -2 23 -8t19 -11q19 -4 35 -9.5t35 -9.5q5 -2 24 -5.5t25 -3.5q26 -4 54 -6.5t56 -2.5q152 0 285 73q54 37 99.5 85t76.5 100q4 5 12 26.5t10 25.5q4 8 11.5 27.5t9.5 23.5q5 19 10 40t9 40q16 96 30 197t31 196l21 80q0 7 7 22q4 7 7 18t3 14
q31 66 67 114q36 45 86 74t111 29h32h4q5 0 5 3q-3 0 -3 2v12q-13 36 -40 47q-20 6 -40.5 9t-41.5 9h-57q-2 0 -6.5 -1.5t-11.5 -1.5q-17 -3 -39.5 -5t-39.5 -4q-18 -4 -38 -8t-38 -9q-9 0 -23 -6q-13 -4 -23 -5t-15 -3q-4 -8 -17 -12t-18 -4q-2 0 -7.5 -3t-9.5 -5t-8 -4.5
t2 -0.5h2l-19 -9.5t-4 -0.5q-5 -2 -11.5 -8.5t-15.5 -11.5q-11 -4 -18 -7t-9 -5q-9 -5 -24 -18t-20 -18l-49 -46v2l-14 -19q-6 -8 -14 -20t-11 -18q-57 -67 -92 -149t-35 -170v-25q0 -4 1.5 -10.5t1.5 -10.5v-12.5t3 -7.5l66 -12l75 -25l81 -31l83 -43v-12q0 -18 -30 -18
q5 -2 -3.5 1t-13.5 7h3q-13 6 -27 14t-18 10q-12 4 -37.5 17t-32.5 16q-16 6 -35 11t-39 10q-14 4 -29.5 7t-32.5 7q0 -2 1.5 -5t1.5 -5t2 -4q22 -58 61 -99t86 -73q2 -3 4.5 -7t2.5 -10q0 -19 -18 -19q-10 0 -11 2q-2 4 -5 6t-3 4q-2 0 -2 1.5t-3 1.5t-6 2q-53 40 -94 93.5
t-66 119.5h-6q-6 0 -16 1t-14 1h-32q-97 0 -194 -29q-15 -6 -37.5 -19t-40.5 -26q-70 -38 -121.5 -109.5t-51.5 -150.5zM1198 1434l-27 -9l-10 4q2 7 7 15t12 12q55 30 136 95q52 45 116 104q27 17 42 17q28 0 28 -31q0 -29 -33 -35q-49 -27 -132.5 -79.5t-138.5 -92.5z" />
    <glyph glyph-name=".notdef.099" unicode="&#xd2;" horiz-adv-x="1351" 
d="M47 313q-15 37 -22.5 73.5t-14.5 73.5q-2 2 -2 5v7v9v32q0 121 43 228q0 3 3.5 12.5t7.5 18.5q6 9 6 13q5 11 15.5 32t14.5 24q13 21 28.5 43t27.5 42l70 82l57 58l59 49l61 45q5 2 15.5 8t16.5 6q6 2 17.5 7t16.5 9q14 7 20 7q16 6 35 14t36 12q4 2 8 2t9 1h-3
q50 52 116 90t135 57q26 8 56.5 10t61.5 2h39q65 -6 118 -31q62 -31 110 -80q0 -2 11 -10l7 -12q63 -80 86.5 -176t23.5 -202v-31l-7 -84q0 -7 -5 -20q-1 -11 -2 -20t-3 -13l-8 -37q-2 -10 -4.5 -18t-2.5 -7l-34 -90l-53 -112l-60 -88l-49 -67l-44 -45l-67 -64
q-5 -4 -14.5 -12t-14.5 -12q-7 -6 -13.5 -10.5t-11.5 -8.5h-2q-4 -2 -10 -6q-14 -11 -19 -13q-6 -5 -16.5 -9t-14.5 -9l-62 -36l-65 -19l-72 -24q-5 -2 -21.5 -5.5t-28.5 -5.5q-4 0 -9 -1t-7 -1q-9 -2 -31.5 -4t-28.5 -2h-30q-118 0 -225 45.5t-179 134.5q-24 27 -44 62
t-31 71zM107 511q0 -46 5.5 -92.5t24.5 -91.5q47 -131 154.5 -202.5t247.5 -71.5q19 0 44.5 1.5t44.5 3.5q90 19 172 58q7 6 29 17t27 15l56 32h-2q13 12 28.5 23.5t29.5 23.5q15 11 32 27.5t30 28.5q11 13 27.5 30.5t28.5 29.5q12 19 26.5 39.5t26.5 37.5q4 9 18.5 31.5
t18.5 33.5q5 7 14 28t13 28q5 9 13.5 33t9.5 29q4 8 9 27.5t5 23.5l12 77q2 21 6 44t6 46v66q0 5 -1 13t-1 17l-8 31l-10 79l-4 21q-2 6 -4.5 17t-2.5 6q-3 5 -7.5 20t-6.5 22q-41 90 -115 154t-178 64q-41 0 -85.5 -10t-83.5 -28q-15 -4 -30 -13.5t-32 -23.5q-4 -4 -10 -7
t-12 -7q-2 -2 -5 -4.5t-5 -4.5h31.5t30.5 -5q17 -3 17 -25q0 -25 -24 -25h-27q-7 0 -14.5 1.5t-11.5 1.5h-33q-6 0 -17.5 -2.5t-16.5 -4.5q0 2 -11 -12q-6 -9 -15.5 -20t-11.5 -15q-16 -19 -28 -45t-23 -43q-2 -6 -7.5 -20t-7.5 -18q-25 -75 -25 -142q0 -40 11.5 -85.5
t33.5 -83.5t57.5 -61.5t82.5 -23.5q34 0 64.5 16t57 41.5t45.5 57.5t28 65q0 7 2 11q3 6 5.5 16.5t2.5 8.5l9 60q2 11 12 15t16 4q12 0 21 -6.5t9 -23.5q-7 -53 -26 -109.5t-52 -104t-82.5 -77t-113.5 -29.5q-60 0 -103.5 29.5t-74 73.5t-44.5 99t-14 107q0 80 25.5 154.5
t67.5 139.5l-24 -12q-52 -23 -97.5 -58t-91.5 -80q-5 -4 -19.5 -23t-22.5 -28q3 2 -4.5 -7.5t-13.5 -18.5q-9 -14 -16 -20v2q-9 -16 -18.5 -34t-17.5 -33q-2 -1 -10 -23t-14 -31q-10 -33 -19.5 -62.5t-13.5 -63.5q-2 -11 -8 -33.5t-8 -26.5q0 -18 -2 -39t-2 -34v-17z
M900 1455l10 -21l-10 -9q-11 9 -14 13q-64 73 -199 170q-24 16 -24 39q0 24 24 24q33 0 47 -20q40 -53 88.5 -111t77.5 -85z" />
    <glyph glyph-name=".notdef.098" unicode="&#xd3;" horiz-adv-x="1358" 
d="M49 313q-12 37 -20 73.5t-12 73.5q-2 2 -2 5v7v9v32q0 119 38 228q0 1 9 20q6 6 7 12t4 12q4 11 14.5 32t15.5 24q13 21 28.5 43t26.5 42l71 82l56 58l58 49l63 45q4 2 14.5 8t18.5 6q3 2 15.5 7t17.5 9q13 7 20 7q15 6 35.5 14t34.5 12q4 2 8.5 2t8.5 1h-2
q51 52 116.5 90t133.5 57q27 8 57 10t61 2h40q65 -6 119 -31q61 -31 110 -80q0 -2 9 -10l7 -12q63 -80 87.5 -176t24.5 -202v-31l-9 -84q0 -7 -4 -20q-2 -11 -3.5 -20t-2.5 -13l-6 -37q-2 -10 -5 -18t-3 -7l-35 -90l-53 -112l-59 -88l-49 -67l-44 -45l-68 -64
q-4 -4 -13.5 -12t-14.5 -12q-8 -6 -14.5 -10.5t-10.5 -8.5h-3q-4 -2 -10 -6q-14 -11 -18 -13q-7 -5 -17 -9t-15 -9l-62 -36l-64 -19l-73 -24q-4 -2 -20 -5.5t-29 -5.5q-5 0 -10 -1t-7 -1q-9 -2 -31.5 -4t-28.5 -2h-30q-116 0 -224 45.5t-179 134.5q-24 27 -44.5 62t-33.5 71
zM111 511q0 -46 7 -92.5t24 -91.5q46 -131 153.5 -202.5t248.5 -71.5q18 0 44 1.5t44 3.5q90 19 173 58q7 6 29 17t28 15l55 32h-3q15 12 30 23.5t29 23.5q14 11 32 27.5t30 28.5q10 13 26.5 30.5t28.5 29.5q14 19 27.5 39.5t25.5 37.5q5 9 19 31.5t19 33.5q5 7 13.5 28
t13.5 28q6 9 13 33t9 29q5 8 9.5 27.5t4.5 23.5l12 77q6 21 8 44l4 46v66q0 5 -1 13t-1 17l-4 31l-14 79l-4 21q-2 6 -4 17t-2 6q-3 5 -8 20t-7 22q-42 88 -115 153t-177 65q-41 0 -86 -10t-84 -28q-14 -4 -29.5 -13.5t-32.5 -23.5q-4 -4 -9.5 -7t-10.5 -7q-2 -2 -6 -4.5
t-6 -4.5h32t29 -5q19 -3 19 -25q0 -25 -25 -25h-27q-7 0 -14.5 1.5t-11.5 1.5h-32q-7 0 -18.5 -2.5t-15.5 -4.5q0 2 -11 -12q-7 -9 -16.5 -20t-11.5 -15q-14 -19 -26 -45t-25 -43q-2 -6 -6 -20t-7 -18q-26 -75 -26 -142q0 -40 11 -85.5t32.5 -83.5t57.5 -61.5t84 -23.5
q34 0 64.5 16t57 41.5t44.5 57.5t29 65q0 7 2 11q3 6 5.5 16.5t2.5 8.5l8 60q2 11 12 15t16 4q12 0 21.5 -6.5t9.5 -23.5q-8 -53 -27 -109.5t-52 -104t-82.5 -77t-113.5 -29.5q-58 0 -102.5 29.5t-75 73.5t-44.5 99t-14 107q0 80 26 154.5t67 139.5l-24 -12
q-50 -23 -96.5 -58t-92.5 -80q-4 -4 -19 -23t-22 -28q3 2 -5 -7.5t-14 -18.5q-9 -14 -16 -20v2q-6 -16 -17 -34t-19 -33q-2 -1 -10.5 -22t-11.5 -32q-12 -33 -21.5 -62.5t-13.5 -63.5q-2 -11 -7.5 -33.5t-7.5 -26.5q0 -18 -2.5 -39t-2.5 -34v-17zM704 1434l-30 -9l-9 4
q2 7 7.5 15t12.5 12q55 30 135 95q52 45 117 104q26 17 41 17q28 0 28 -31q0 -29 -32 -35q-51 -27 -133 -79.5t-137 -92.5z" />
    <glyph glyph-name=".notdef.094" unicode="&#xd4;" horiz-adv-x="1358" 
d="M53 313q15 -32 33.5 -63.5t44.5 -65.5q72 -90 178.5 -135t220.5 -45h30q6 0 31 2t29 4q2 0 7 2.5t10 2.5l30 4t19 4l73 24q15 2 31.5 8.5t32.5 12.5q15 7 31 17.5t31 17.5q2 2 7 4q6 2 20 15q7 5 9 9t24 8h-2q5 5 10.5 9t14.5 10q12 8 19.5 15t9.5 9l67 64q10 8 22 22.5
t22 22.5q12 20 24.5 35.5t24.5 33.5l64 93v-2q9 25 22 52t27 51q8 21 16.5 46.5t17.5 43.5q0 -1 2.5 7t4.5 18l8 37q2 4 3 13t2 20q5 18 5 20l7 84v31q0 104 -23.5 198.5t-86.5 175.5h2q-2 0 -3 2l-6 6q-11 8 -11 14q-55 54 -104 79q-54 26 -119 32h-40q-31 0 -61 -2
t-57 -11q-139 -39 -244 -143q-4 -2 -10.5 -3t-10.5 -3q-18 -5 -35.5 -11.5t-34.5 -12.5q-5 -2 -9.5 -3.5t-10.5 -5.5q-12 -5 -21 -9.5t-12 -6.5q-6 0 -15.5 -6.5t-13.5 -8.5l-62 -44q-12 -13 -30 -25t-29 -24q-14 -14 -28.5 -29.5t-27.5 -29.5l-71 -82q-12 -21 -26 -43
t-29 -40q-2 -4 -13.5 -23t-16.5 -30q-2 -6 -3 -12t-6 -12q-10 -19 -10 -20q-39 -109 -39 -228v-32q0 -5 1 -12t1 -9q5 -37 13.5 -73.5t18.5 -73.5zM107 528l4 73q2 4 8 26.5t8 33.5q4 32 13.5 64t19.5 62q2 11 13 34.5t13 25.5v-2q8 17 18.5 34t17.5 33l32 45q8 8 22.5 27
t19.5 24q40 37 91.5 74.5t101.5 62.5q3 3 16 9t25 8q-47 -68 -76 -146.5t-29 -156.5q0 -52 14 -106t44 -98t74 -72.5t99 -28.5q62 0 109 30t79 76t53.5 103.5t28.5 110.5q-5 22 -26 22q-4 0 -10.5 -5.5t-13.5 -9.5q-2 -15 -4 -31t-4 -29q0 -2 -2 -11.5t-4 -13.5
q-3 -4 -3 -11q-19 -71 -69.5 -127.5t-130.5 -56.5q-50 0 -85.5 24.5t-58.5 63.5t-34.5 84.5t-11.5 85.5q0 67 25 142q2 4 7.5 19t7.5 19q29 59 53 94q2 10 10.5 17t14.5 17l16 14q6 0 13 2q4 0 10 1.5t11 1.5h32q4 0 11.5 -1.5t14.5 -1.5h27q11 0 15.5 7t4.5 13
q0 7 -3.5 14.5t-10.5 7.5q-12 1 -31.5 3t-40.5 5l21 13h-4q6 4 12 7t10 11q13 6 29.5 14t36.5 19q41 20 83.5 29t86.5 9q108 0 182.5 -63.5t112.5 -158.5q2 -5 8 -21t8 -21q0 5 2 -6t4 -17l4 -21q2 -19 7 -37.5t7 -37.5q2 -4 2 -11v-12t2 -12q0 -9 1 -17t1 -13v-66l-8 -90
l-16 -77q0 -4 -4 -22t-9 -29q-2 -8 -9 -28.5t-12 -33.5q-6 -9 -16 -33.5t-15 -29.5v3q-7 -14 -18.5 -37.5t-16.5 -27.5l-54 -76l-55 -63l-61 -55l-52 -42l-62 -36h2q-4 -5 -26.5 -16.5t-34.5 -16.5q-87 -38 -173 -58q-21 -2 -44.5 -3t-43.5 -1q-141 0 -249.5 73.5
t-157.5 204.5q-19 45 -24.5 91.5t-5.5 92.5v17zM772 1452l-5 -5q18 20 25 29q29 32 36 32q22 13 82 58q100 82 113 82q16 0 47 -71t48 -121l4 -19q0 -4 -3 -7.5t-6 -5.5q-7 2 -14.5 6.5t-7.5 11.5q-6 30 -43.5 80t-54.5 50t-89 -42q-103 -63 -132 -78z" />
    <glyph glyph-name=".notdef.096" unicode="&#xd5;" horiz-adv-x="1351" 
d="M47 313q-15 37 -22.5 73.5t-14.5 73.5q-2 2 -2 5v7v9v32q0 121 43 228q0 3 3.5 12.5t7.5 18.5q6 9 6 13q5 11 15.5 32t14.5 24q13 21 28.5 43t27.5 42l70 82l57 58l59 49l61 45q5 2 15.5 8t16.5 6q6 2 17.5 7t16.5 9q14 7 20 7q16 6 35 14t36 12q4 2 8 2t9 1h-3
q50 52 116 90t135 57q26 8 56.5 10t61.5 2h39q65 -6 118 -31q62 -31 110 -80q0 -2 11 -10l7 -12q63 -80 86.5 -176t23.5 -202v-31l-7 -84q0 -7 -5 -20q-1 -11 -2 -20t-3 -13l-8 -37q-2 -10 -4.5 -18t-2.5 -7l-34 -90l-53 -112l-60 -88l-49 -67l-44 -45l-67 -64
q-5 -4 -14.5 -12t-14.5 -12q-7 -6 -13.5 -10.5t-11.5 -8.5h-2q-4 -2 -10 -6q-14 -11 -19 -13q-6 -5 -16.5 -9t-14.5 -9l-62 -36l-65 -19l-72 -24q-5 -2 -21.5 -5.5t-28.5 -5.5q-4 0 -9 -1t-7 -1q-9 -2 -31.5 -4t-28.5 -2h-30q-118 0 -225 45.5t-179 134.5q-24 27 -44 62
t-31 71zM107 511q0 -46 5.5 -92.5t24.5 -91.5q47 -131 154.5 -202.5t247.5 -71.5q19 0 44.5 1.5t44.5 3.5q90 19 172 58q7 6 29 17t27 15l56 32h-2q13 12 28.5 23.5t29.5 23.5q15 11 32 27.5t30 28.5q11 13 27.5 30.5t28.5 29.5q12 19 26.5 39.5t26.5 37.5q4 9 18.5 31.5
t18.5 33.5q5 7 14 28t13 28q5 9 13.5 33t9.5 29q4 8 9 27.5t5 23.5l12 77q2 21 6 44t6 46v66q0 5 -1 13t-1 17l-8 31l-10 79l-4 21q-2 6 -4.5 17t-2.5 6q-3 5 -7.5 20t-6.5 22q-41 90 -115 154t-178 64q-41 0 -85.5 -10t-83.5 -28q-15 -4 -30 -13.5t-32 -23.5q-4 -4 -10 -7
t-12 -7q-2 -2 -5 -4.5t-5 -4.5h31.5t30.5 -5q17 -3 17 -25q0 -25 -24 -25h-27q-7 0 -14.5 1.5t-11.5 1.5h-33q-6 0 -17.5 -2.5t-16.5 -4.5q0 2 -11 -12q-6 -9 -15.5 -20t-11.5 -15q-16 -19 -28 -45t-23 -43q-2 -6 -7.5 -20t-7.5 -18q-25 -75 -25 -142q0 -40 11.5 -85.5
t33.5 -83.5t57.5 -61.5t82.5 -23.5q34 0 64.5 16t57 41.5t45.5 57.5t28 65q0 7 2 11q3 6 5.5 16.5t2.5 8.5l9 60q2 11 12 15t16 4q12 0 21 -6.5t9 -23.5q-7 -53 -26 -109.5t-52 -104t-82.5 -77t-113.5 -29.5q-60 0 -103.5 29.5t-74 73.5t-44.5 99t-14 107q0 80 25.5 154.5
t67.5 139.5l-24 -12q-52 -23 -97.5 -58t-91.5 -80q-5 -4 -19.5 -23t-22.5 -28q3 2 -4.5 -7.5t-13.5 -18.5q-9 -14 -16 -20v2q-9 -16 -18.5 -34t-17.5 -33q-2 -1 -10 -23t-14 -31q-10 -33 -19.5 -62.5t-13.5 -63.5q-2 -11 -8 -33.5t-8 -26.5q0 -18 -2 -39t-2 -34v-17z
M1039 1551h31q-47 -119 -173 -119q-29 0 -34 3t-20 28q-13 17 -25 27q-19 17 -38 17q-30 0 -57 -26t-39 -56h-28l2 7q21 50 63 83t94 33q30 0 44.5 -5.5t27.5 -22.5t28 -31t33 -14q28 0 54.5 24t36.5 52z" />
    <glyph glyph-name=".notdef.088" unicode="&#xd9;" horiz-adv-x="1715" 
d="M513 229l7 60l16 77l43 134l127 305l27 95q2 6 6.5 30t7.5 35q2 11 6 42t4 41q0 2 1 7t1 7v28q0 67 -24.5 116.5t-84.5 84.5q-63 33 -139 33q-63 0 -119 -25q-56 -23 -103 -63.5t-86 -87.5q-66 -86 -104.5 -192.5t-38.5 -216.5q0 -96 25.5 -187.5t85.5 -164.5
q21 -25 46 -43.5t49 -35.5q11 -8 25.5 -15.5t33.5 -11.5q2 0 8.5 -2t9.5 -4q15 -4 27 -7.5t12 -21.5q0 -8 -5 -16t-17 -8h-2q-122 24 -202.5 112.5t-112.5 201.5q-28 104 -28 205v31l8 79q0 5 6 33t11 39q18 78 62.5 158.5t105.5 146t139 106.5t164 41q45 0 84 -12t76 -30
q20 -10 38.5 -22t29.5 -28q53 -43 72 -106.5t19 -128.5v-18l-9 -82q0 -5 -3 -27.5t-8 -33.5q-5 -15 -11.5 -42.5t-9.5 -32.5l-167 -423l-30 -95q0 -5 -4.5 -26.5t-6.5 -31.5q0 -5 -2 -19t-2 -19v-12q0 -26 6 -44q18 -46 61.5 -69.5t90.5 -23.5q52 0 99 25.5t85 58.5q2 2 9 8
t11 9q6 4 20 19t17 17l65 83l51 79l80 155l218 530l47 96q3 2 13.5 16.5t15.5 19.5q24 34 51.5 60.5t64.5 50.5q26 17 57 17q27 0 45.5 -13.5t18.5 -41.5q0 -41 -35 -65.5t-56 -48.5q-17 -18 -34 -39t-27 -42q-6 -8 -17.5 -29.5t-13.5 -26.5l-34 -84l-39 -127l-89 -428
l-16 -145v-49q0 -17 10 -42.5t35 -25.5q26 0 49 20.5t34 37.5q5 4 11.5 14.5t11.5 15.5q13 22 24 46.5t20 48.5q11 8 22 8q25 0 25 -25q-2 0 -2 -3v-4q-2 -7 -14.5 -34t-16.5 -33q-26 -51 -70 -97t-106 -46q-33 0 -54.5 12.5t-33 34t-15.5 48t-4 54.5v12l15 129l104 440
l53 164l39 83q3 3 15 26.5t16 27.5q2 5 13 23.5t14 25.5q14 18 26 30t32 29q2 0 6.5 4.5t6.5 7.5q2 2 9.5 7.5t9.5 7.5q6 7 15.5 16t9.5 21q0 4 -4 5t-9 1q-16 0 -27 -7t-24 -12q-23 -20 -40.5 -36.5t-33.5 -40.5q-4 -7 -16 -23.5t-12 -18.5l-96 -194l-191 -466l-63 -119
l-72 -105l-49 -66q-5 -4 -22 -22t-28 -25q-46 -47 -105.5 -78t-128.5 -31q-70 0 -133 47q-42 28 -63.5 75t-21.5 98v9zM1234 1457l9 -21l-9 -9q-11 9 -13 14q-66 72 -199 169q-24 16 -24 39q0 24 24 24q31 0 44 -20q44 -53 91.5 -111t76.5 -85z" />
    <glyph glyph-name=".notdef.087" unicode="&#xda;" horiz-adv-x="1718" 
d="M515 229l7 60l16 77l43 134l127 305l27 95q2 6 7 30t7 35q3 11 6.5 42t3.5 41q0 2 1 7t1 7v28q0 67 -24.5 116.5t-84.5 84.5q-63 33 -139 33q-62 0 -119 -25q-56 -23 -102.5 -63.5t-86.5 -87.5q-66 -86 -104.5 -192.5t-38.5 -216.5q0 -96 25.5 -187.5t86.5 -164.5
q20 -25 45.5 -43.5t49.5 -35.5q12 -8 25.5 -15.5t32.5 -11.5q2 0 8.5 -2t10.5 -4q14 -4 26.5 -7.5t12.5 -21.5q0 -8 -5.5 -16t-17.5 -8h-2q-122 24 -202.5 112.5t-112.5 201.5q-28 104 -28 205v31l9 79q0 5 5.5 33t11.5 39q17 78 60.5 158.5t104.5 146t139 106.5t166 41
q45 0 84.5 -12t75.5 -30q20 -10 39 -22t29 -28q53 -43 72.5 -106.5t19.5 -128.5v-18l-10 -82q0 -5 -3 -27.5t-8 -33.5q-5 -15 -11.5 -42.5t-8.5 -32.5l-166 -423l-31 -95q0 -5 -5 -26.5t-7 -31.5q0 -5 -2 -19t-2 -19v-12q0 -26 6 -44q18 -46 62 -69.5t90 -23.5q52 0 99 25.5
t85 58.5q2 2 9 8t11 9q7 4 21 19t16 17l65 83l51 79l78 155l222 530l46 96q2 2 12.5 16.5t15.5 19.5q25 34 52.5 60.5t63.5 50.5q26 17 57 17q27 0 46 -13.5t19 -41.5q0 -41 -35.5 -65.5t-56.5 -48.5q-17 -18 -34 -39t-27 -42q-5 -8 -16.5 -29.5t-14.5 -26.5l-34 -84
l-38 -127l-90 -428l-16 -145v-49q0 -17 11 -42.5t35 -25.5q27 0 49 20.5t34 37.5q4 4 10.5 14.5t11.5 15.5q13 22 24 46.5t20 48.5q12 8 22 8q25 0 25 -25q-2 0 -2 -3v-4q-2 -7 -14.5 -34t-16.5 -33q-25 -51 -69 -97t-107 -46q-33 0 -54.5 12.5t-33 34t-15.5 48t-4 54.5v12
l13 129l107 440l52 164l40 83q2 3 14 26.5t16 27.5q2 5 12.5 23.5t14.5 25.5q14 18 26.5 30t31.5 29q2 0 6.5 4.5t6.5 7.5q2 2 9.5 7.5t9.5 7.5q6 7 15.5 16t9.5 21q0 4 -4 5t-9 1q-16 0 -27 -7t-23 -12q-23 -20 -41 -36.5t-34 -40.5q-6 -7 -17 -23.5t-11 -18.5l-94 -194
l-193 -466l-63 -119l-72 -105l-49 -66q-5 -4 -22 -22t-27 -25q-47 -47 -106.5 -78t-128.5 -31q-70 0 -132 47q-43 28 -64.5 75t-21.5 98v9zM1128 1436l-27 -9l-10 4q2 7 7.5 15t12.5 13q54 29 133 94q54 45 117 105q27 16 43 16q27 0 27 -30t-31 -36q-52 -27 -134 -79.5
t-138 -92.5z" />
    <glyph glyph-name=".notdef.070" unicode="&#xdd;" horiz-adv-x="1268" 
d="M366 147q0 33 17.5 65.5t57.5 32.5q48 0 48 -51q0 -14 -8.5 -25t-25.5 -11h-7q0 13 -3 24.5t-18 11.5h-4l-3 -2q-12 -32 -12 -57q0 -30 15.5 -48.5t37.5 -28t48.5 -12.5t48.5 -3q141 0 240 104q0 1 8.5 8t10.5 11q2 5 9.5 17.5t11.5 14.5l24 49l30 78l125 505l49 138
q0 5 12 28t16 33q2 6 14 24t16 25q5 8 15.5 24t13.5 20l46 50h-4q-25 0 -42 -17q-3 -2 -5.5 -3.5t-6.5 -6.5l-5 -6l-28 -38l-42 -68l-118 -244l-99 -167l-70 -102q-5 -5 -21.5 -24.5t-24.5 -28.5q-2 -2 -8.5 -8t-12.5 -12t-12.5 -13t-8.5 -9q-20 -17 -37 -30t-36 -23
q-60 -41 -124 -41q-22 0 -39 7q-35 5 -63 22q-5 4 -10.5 9t-5.5 11q0 9 9 14q4 5 19.5 19t18.5 16q6 10 24 27.5t22 21.5l9 11q5 5 20 27.5t24 35.5q6 8 17 29.5t13 25.5l35 75l31 88l20 79q0 5 3 32t5 38q0 4 3 19.5t3 22.5v28q0 67 -15 130.5t-48 112.5t-85.5 78.5
t-127.5 29.5q-80 0 -140 -34t-100 -89t-61.5 -124.5t-21.5 -144.5q0 -84 28 -167.5t93 -142.5q33 -29 74 -44t83 -24q12 -8 12 -20q0 -16 -16 -20q-27 2 -52.5 8t-45.5 18q-58 27 -98 69t-65.5 95.5t-38 113.5t-12.5 118v26l6 61q0 4 1 14.5t4 15.5q30 136 120 224t236 88
q96 0 179 -45t125 -135q22 -46 29 -96.5t7 -96.5v-13l-6 -69l-10 -77l-24 -79l-28 -77q-2 -5 -14 -30t-18 -35q-4 -10 -15.5 -34t-17.5 -30l-29 -36l-66 -84l-61 -57l3 -2q26 -9 58 -9q50 0 92 24.5t77 54.5l41 39l59 72l93 146l192 369q2 5 11.5 22t14.5 24q24 33 52.5 60
t72.5 27q15 0 25.5 -3t21.5 -8q10 -4 10 -17q0 -10 -4 -14l-55 -59l-25 -35q-2 -4 -15.5 -22t-17.5 -27q-3 -4 -9 -17t-8 -17l-28 -66l-10 -37l-76 -423l-25 -95l-31 -78l-23 -56q-3 -4 -14.5 -20.5t-16.5 -23.5q-17 -27 -40.5 -52.5t-47.5 -49.5q-56 -45 -120 -69.5
t-132 -24.5h-24q-67 4 -117.5 37t-50.5 110zM896 1434l-27 -9l-10 4q3 7 7.5 15t10.5 12q57 30 136 95q53 45 118 104q26 17 41 17q28 0 28 -31q0 -29 -33 -35q-50 -27 -132.5 -79.5t-138.5 -92.5z" />
    <glyph glyph-name=".notdef.066" unicode="&#xe0;" horiz-adv-x="845" 
d="M15 205v19q0 3 1 12t1 11q0 5 4 19q2 7 2 15l17 48l13 45l27 44l33 51l39 42l34 37l50 35l39 28l45 21l44 20q2 0 13.5 3.5t14.5 5.5q35 6 68 6q79 0 135 -51q14 -11 31 -39h2l16 61q6 12 15 12h90q8 0 8 -10v-3l-143 -515q-3 -6 -3 -19q0 -41 33 -41q21 0 38 11t32 23
l6 7l5 4l24 30l84 112v-2q1 0 1 -3.5v-7.5v-9q0 -24 -1 -35q-8 -34 -23.5 -60.5t-39.5 -51.5q-28 -29 -63.5 -50.5t-76.5 -21.5q-32 0 -60.5 14.5t-47.5 35.5q-2 2 -7.5 9.5t-7.5 9.5q0 3 -2 7t-5 4v3l-45 -33q-4 0 -13 -4.5l-13 -6.5q-89 -47 -196 -47h-22q-37 2 -75 15
t-68 41q-47 55 -53 132v17zM142 247q0 -53 22 -110t82 -77q11 -4 20 -4h21q59 0 111.5 26.5t90.5 71.5q7 0 7 8q7 4 10 11t5 7q4 4 9.5 13.5t7.5 11.5l20 42l18 51l19 68l7 42q3 2 3 16.5v19.5v9q0 67 -31.5 115t-105.5 48q-31 0 -66 -7q-3 -2 -5 -2t-5 -2
q-88 -30 -146 -102q-3 -7 -9.5 -16t-8.5 -11l-24 -40l-25 -51l-15 -47q0 -2 -3 -14.5t-3 -17.5q-1 -3 -2.5 -14t-1.5 -17q-2 -6 -2 -11v-17zM605 766l9 -22l-9 -8q-13 8 -16 13q-62 73 -198 170q-25 16 -25 39q0 24 25 24q34 0 46 -20q41 -53 90 -111t78 -85z" />
    <glyph glyph-name=".notdef.065" unicode="&#xe1;" horiz-adv-x="849" 
d="M17 205v19q0 3 1 12t1 11q0 5 4 19q3 7 3 15l17 48l13 45l26 44l34 51l38 42l34 37l50 35l39 28l45 21l44 20q4 0 13.5 3.5t14.5 5.5q35 6 68 6q79 0 136 -51q13 -11 30 -39h2l16 61q6 12 15 12h91q7 0 7 -10v-3l-145 -515v-19q0 -41 32 -41q21 0 39.5 11t30.5 23l6 7
l6 4l24 30l82 112v-2q4 0 4 -3.5v-7.5v-9q0 -24 -4 -35q-7 -34 -22.5 -60.5t-39.5 -51.5q-28 -29 -63.5 -50.5t-76.5 -21.5q-31 0 -59.5 14.5t-46.5 35.5q-4 2 -9.5 9.5t-7.5 9.5q-2 0 -2 3q0 2 -1 2t-1 2q-2 2 -2 4v3l-45 -33q-5 0 -13.5 -4.5t-13.5 -6.5q-89 -47 -195 -47
h-21q-39 2 -77 15t-68 41q-47 55 -53 132v17zM144 247q0 -53 21 -110t82 -77q12 -4 21 -4h21q59 0 111.5 26.5t91.5 71.5q8 0 8 8q3 4 7 11t6 7q5 4 10 13.5t7 11.5l20 42l20 51l17 68l8 42q3 2 3 16.5v19.5v9q0 67 -32 115t-106 48q-31 0 -66 -7q-2 -2 -5 -2q-2 0 -4 -2
q-89 -30 -147 -102q-2 -7 -9 -16t-9 -11l-24 -40l-25 -51l-15 -47q0 -2 -3 -14.5t-3 -17.5q-2 -3 -2.5 -14t-0.5 -17q-3 -6 -3 -11v-17zM432 743l-27 -8l-9 4q2 7 6.5 15t12.5 12q54 30 134 94q54 46 117 105q27 17 43 17q27 0 27 -31q0 -29 -31 -35q-53 -27 -135 -79.5
t-138 -93.5z" />
    <glyph glyph-name=".notdef.061" unicode="&#xe2;" horiz-adv-x="856" 
d="M17 188q6 -77 53 -132q30 -28 68 -41t77 -15h21q106 0 195 47q5 2 13.5 6.5t13.5 4.5l45 33v-3q0 -2 2 -4q0 -2 1 -2t1 -2q0 -3 2 -3q2 -2 7.5 -9.5t9.5 -9.5q18 -21 46.5 -35.5t59.5 -14.5q41 0 76.5 21.5t63.5 50.5q24 25 39.5 51.5t22.5 60.5q4 11 4 35v9v7.5t-4 3.5
v2l-82 -112l-24 -30l-6 -4l-6 -7q-12 -12 -30.5 -23t-39.5 -11q-32 0 -32 41v19l145 515v3q0 10 -7 10h-91q-9 0 -15 -12l-16 -61h-2q-17 28 -30 39q-57 51 -136 51q-33 0 -68 -6q-5 -2 -14.5 -5.5t-13.5 -3.5l-44 -20l-45 -21l-39 -28l-50 -35l-34 -37l-38 -42l-34 -51
l-26 -44l-13 -45l-17 -48q0 -8 -3 -15q-4 -14 -4 -19q0 -2 -1 -11t-1 -12v-19v-17zM144 247v17q0 5 3 11q0 6 0.5 17t2.5 14q0 5 3 17.5t3 14.5l15 47l25 51l24 40q2 2 9 11t9 16q58 72 147 102q2 2 4 2q3 0 5 2q35 7 66 7q74 0 106 -48t32 -115v-9v-19.5t-3 -16.5l-8 -42
l-17 -68l-20 -51l-20 -42q-2 -2 -7 -11.5t-10 -13.5q-2 0 -6 -7t-7 -11q0 -8 -8 -8q-39 -45 -91.5 -71.5t-111.5 -26.5h-21t-21 4q-61 20 -82 77t-21 110zM336 764l-5 -5q16 20 22 29q29 32 38 32q24 13 81 58q100 82 112 82q18 0 48.5 -71t48.5 -120l4 -20q0 -5 -3.5 -8
t-8.5 -5q-6 2 -13 6.5t-7 11.5q-8 30 -44.5 80t-53.5 50q-16 0 -89 -43q-103 -62 -130 -77z" />
    <glyph glyph-name=".notdef.063" unicode="&#xe3;" horiz-adv-x="954" 
d="M118 205v19q0 3 2 12t2 11q0 5 5 19q2 7 2 15l15 48l16 45l24 44l36 51l37 42l34 37l49 35l40 28l45 21l44 20q3 0 14 3.5t17 5.5q30 6 64 6q80 0 135 -51q21 -15 32 -39h2l16 61q5 12 14 12h91q8 0 8 -10v-3l-144 -515q-2 -6 -2 -19q0 -41 33 -41q21 0 38.5 11t31.5 23
l6 7q2 2 8 4l21 30l83 112v-2q2 0 2 -3.5v-7.5v-9q0 -24 -2 -35q-6 -34 -22.5 -60.5t-40.5 -51.5q-27 -29 -62.5 -50.5t-76.5 -21.5q-31 0 -60 14.5t-47 35.5q-2 2 -8 9.5t-6 9.5q0 3 -3.5 7t-5.5 4v3l-45 -33q-4 0 -13 -4.5l-13 -6.5q-90 -47 -196 -47h-21q-40 2 -77 15
t-66 41q-47 55 -56 132v17zM246 247q0 -53 22.5 -110t81.5 -77q12 -4 21 -4h21q59 0 111.5 26.5t91.5 71.5q8 0 8 8q4 4 7.5 11t5.5 7q4 4 9 13.5t7 11.5l20 42l19 51l20 68l6 42q2 2 2 16.5v19.5v9q0 67 -31 115t-106 48q-32 0 -62 -7q-4 -2 -6 -2t-2 -1t-3 -1h-2
q-88 -30 -147 -102q-2 -7 -8.5 -16t-9.5 -11l-24 -40l-23 -51l-16 -47q0 -2 -3.5 -14.5t-3.5 -17.5q-3 -3 -4 -14t-1 -17q-1 -6 -1 -11v-17zM828 863h32q-48 -120 -173 -120q-29 0 -35 3.5t-18 28.5q-15 18 -27 27q-19 17 -37 17q-30 0 -57 -26t-40 -56h-27l1 6
q21 51 63.5 84t93.5 33q33 0 46.5 -5.5t26.5 -22t27.5 -31t33.5 -14.5q27 0 54 25t36 51z" />
    <glyph glyph-name=".notdef.049" unicode="&#xe8;" horiz-adv-x="595" 
d="M15 245q0 14 1 28t3 30q2 5 4.5 16.5t2.5 14.5l19 44l13 40l22 35l27 39l40 42l35 36l47 37l33 21q2 2 7.5 5.5t7.5 4.5q6 0 14.5 4t11.5 8q5 2 13.5 4t12.5 5q43 12 91 12h16q67 -4 105 -38.5t38 -102.5q0 -36 -13.5 -68.5t-37.5 -58.5q-6 -4 -13.5 -11t-11.5 -10
q-7 -4 -17 -11t-12 -9l-38 -22l-49 -23l-45 -14l-65 -16q-4 0 -18 -2t-19 -2q-4 0 -19.5 -3t-19.5 -3h-7h-8l-42 6l-2 -6v-20v-12q0 -5 1 -15t1 -12l4 -38q0 -4 2 -12t4 -12q8 -38 28.5 -66t59.5 -37q22 -4 45 -4q33 0 65 9q6 0 14 3.5t10 6.5q4 2 13.5 7t13.5 9l36 23
l28 24l99 96h4q0 -26 -9 -48.5t-22 -39.5q0 -2 -5.5 -8t-5.5 -13q-6 -2 -12.5 -10t-8.5 -10l-26 -23l-42 -28q-3 -2 -9.5 -6t-11.5 -6q-26 -16 -60 -25q-6 -2 -15 -4t-12 -2l-42 -4h-8h-19h-15l-29 2q-3 0 -10 1t-12 3q-85 20 -133 86t-48 153zM188 331h6h7q4 0 17 1.5
t15 1.5q5 0 18 1t18 3l42 8q4 0 15.5 3t15.5 5q1 4 9.5 6t10.5 4q37 16 63 40.5t37 62.5q14 36 14 65q0 24 -8 45t-27 32q-5 2 -8.5 3.5t-7.5 3.5q-26 6 -45 6q-44 0 -80 -23.5t-60 -59.5q-4 -3 -11 -13.5t-9 -14.5q-5 -4 -11 -14t-6 -14l-23 -47l-18 -49l-14 -51v-2z
M469 766l9 -22l-9 -8q-12 8 -15 13q-63 73 -199 170q-22 16 -22 39q0 24 22 24q34 0 47 -20q41 -53 90 -111t77 -85z" />
    <glyph glyph-name=".notdef.048" unicode="&#xe9;" horiz-adv-x="601" 
d="M17 245q0 14 1 28t3 30q2 5 4.5 16.5t2.5 14.5l19 44l13 40l22 35l27 39l39 42l36 36l47 37l33 21q2 2 7.5 5.5t9.5 4.5q4 0 13 4t12 8q5 2 13 4t12 5q43 12 92 12h16q66 -4 104 -38.5t38 -102.5q0 -36 -13.5 -68.5t-37.5 -58.5q-4 -4 -12.5 -11t-12.5 -10q-5 -4 -16 -11
t-13 -9l-37 -22l-50 -23l-46 -14l-66 -16q-2 0 -16.5 -2t-18.5 -2t-19.5 -3t-19.5 -3h-7h-8l-41 6l-3 -6v-20v-12q0 -5 1.5 -15t1.5 -12l3 -38q0 -4 2 -12t4 -12q10 -38 29.5 -66t59.5 -37q21 -4 44 -4q33 0 65 9q6 0 14 3.5t10 6.5q4 2 13.5 7t14.5 9l35 23l28 24l101 96h2
q0 -26 -9 -48.5t-22 -39.5q0 -2 -5.5 -8t-5.5 -13q-4 -2 -11.5 -10t-9.5 -10l-26 -23l-42 -28q-2 -2 -9 -6t-12 -6q-26 -16 -60 -25q-6 -2 -15 -4t-11 -2l-43 -4h-8h-19h-15l-29 2q-2 0 -9.5 1t-12.5 3q-85 20 -133 86t-48 153zM192 331h4h7q4 0 17 1.5t16 1.5q4 0 17 1
t18 3l42 8q4 0 15.5 3t14.5 5q3 4 11 6t10 4q37 16 63 40.5t38 62.5q13 36 13 65q0 24 -8 45t-28 32q-3 2 -7 3.5t-8 3.5q-26 6 -45 6q-44 0 -80 -23.5t-60 -59.5q-4 -3 -11 -13.5t-9 -14.5q-4 -4 -10.5 -14t-6.5 -14l-23 -47l-16 -49l-16 -51v-2zM300 743l-27 -8l-10 4
q2 7 7 15t13 12q56 30 135 94q52 46 118 105q25 17 41 17q28 0 28 -31q0 -29 -33 -35q-51 -27 -133.5 -79.5t-138.5 -93.5z" />
    <glyph glyph-name=".notdef.044" unicode="&#xea;" horiz-adv-x="611" 
d="M23 245q0 -87 49.5 -153t132.5 -86q4 -2 11.5 -3t10.5 -1l30 -2h14h18h9l42 4q2 0 12 2t14 4q35 9 61 25q4 2 10.5 6t8.5 6l43 28l26 23q3 2 10 10t11 10q0 7 7 13t7 8q10 17 19.5 39.5t9.5 48.5h-2l-101 -96l-30 -24l-32 -23q-6 -4 -15.5 -9t-13.5 -7q-3 -3 -11 -6.5
t-12 -3.5q-33 -9 -66 -9q-23 0 -47 4q-38 9 -56.5 37t-30.5 66q-2 4 -4 12t-2 12l-4 38q0 2 -1 12t-1 15v12v20l2 6l44 -6h7h6q6 0 21 3t17 3q5 0 19.5 2t18.5 2l65 16l44 14l50 23l39 22q2 2 13 9t15 11q4 3 12.5 10t12.5 11q24 26 37.5 58.5t13.5 68.5q0 68 -38 102.5
t-105 38.5h-15q-49 0 -91 -12q-4 -3 -12.5 -5t-12.5 -4q-2 -4 -12 -8t-14 -4q-10 -4 -16 -10l-33 -21l-46 -37l-38 -36l-38 -42l-28 -39l-20 -35l-17 -40l-16 -44q0 -3 -2.5 -14.5t-4.5 -16.5q-2 -16 -3.5 -30t-1.5 -28zM156 334v2l15 51l17 49l23 47q0 4 6.5 14t11.5 14
q2 4 9 14.5l9 13.5q26 36 61 59.5t81 23.5q19 0 44 -6q6 -2 8.5 -3.5t6.5 -3.5q21 -11 29 -32t8 -45q0 -29 -13 -65q-12 -38 -38 -62.5t-62 -40.5q-2 -2 -11 -4t-11 -6q-4 -2 -14.5 -5t-15.5 -3l-43 -8q-4 -2 -17.5 -3t-17.5 -1q-2 0 -14.5 -1.5t-18.5 -1.5h-6h-5zM248 764
l-3 -5q16 20 23 29q29 32 38 32q23 13 80 58q100 82 113 82q16 0 47.5 -71t47.5 -120l6 -20q0 -5 -4 -8t-8 -5q-6 2 -14 6.5t-8 11.5q-6 30 -43 80t-54 50t-89 -43q-103 -62 -132 -77z" />
    <glyph glyph-name=".notdef.038" unicode="&#xec;" horiz-adv-x="399" 
d="M75 116q0 9 2.5 23.5t2.5 18.5l86 336q5 17 6.5 33.5t1.5 34.5v13q0 6 -1.5 16t-10.5 10q-4 0 -8 -3t-7 -6t-4 -3t-4 -2l-4 -4l-103 -96q-2 0 -4 -3t-5 -6l-6 -2q0 -2 -7 -2v4q7 7 14.5 25.5t12.5 24.5q3 4 13 23t15 24q0 4 10.5 18t15.5 18l12 11q24 21 47.5 41.5
t54.5 20.5q40 0 61 -31t21 -66v-4l-12 -80l-93 -329q-4 -14 -5 -26.5t-1 -25.5q0 -17 4 -38.5t27 -21.5q15 0 28.5 9t23.5 20l13.5 13.5t10.5 13.5l93 122l9 7v-2v-14q0 -47 -19.5 -85.5t-50.5 -72.5q-30 -30 -67 -51.5t-82 -21.5q-55 0 -73 25.5t-18 77.5v13zM296 766
l10 -22l-10 -8q-12 8 -14 13q-64 73 -200 170q-24 16 -24 39q0 24 24 24q34 0 47 -20q41 -53 89 -111t78 -85z" />
    <glyph glyph-name=".notdef.037" unicode="&#xed;" horiz-adv-x="406" 
d="M77 116q0 9 2.5 23.5t2.5 18.5l87 336q5 17 6 33.5t1 34.5v13q0 6 -1 16t-9 10q-6 0 -10 -3l-8 -6q-1 -3 -2.5 -3t-3.5 -2l-5 -4l-102 -96q-3 0 -5 -3l-4 -6l-7 -2q0 -2 -4 -2v4q4 7 12 25.5t13 24.5q3 4 12.5 23t15.5 24q0 4 10 18t16 18l11 11q24 21 47.5 41.5
t54.5 20.5q39 0 60.5 -31t21.5 -66v-4l-12 -80l-93 -329q-4 -14 -5 -26.5t-1 -25.5q0 -17 4 -38.5t27 -21.5q15 0 29 9t24 20q4 5 12.5 13.5t10.5 13.5l93 122l9 7v-2v-14q0 -47 -19.5 -85.5t-50.5 -72.5q-30 -30 -68 -51.5t-83 -21.5q-53 0 -71 25.5t-18 77.5v13zM153 743
l-25 -8l-11 4q2 7 7.5 15t11.5 12q56 30 134 94q55 46 118 105q28 17 42 17q27 0 27 -31q0 -29 -31 -35q-52 -27 -134 -79.5t-139 -93.5z" />
    <glyph glyph-name=".notdef.033" unicode="&#xf2;" horiz-adv-x="720" 
d="M15 264q0 49 17 98q0 4 5.5 15.5t7.5 14.5q2 5 5 14.5t3 11.5l27 40l31 38l41 38l68 55l46 31q3 0 12 6t13 11q38 15 75 23.5t76 8.5h16q4 0 14.5 -1t12.5 -3l33 -4q4 0 13.5 -3.5t16.5 -5.5q4 -2 13 -5.5t11 -3.5q46 -23 79 -59t46 -88q0 -4 3.5 -12t5.5 -12v-12
q0 -5 1 -9.5t1 -6.5v-3v-33l-2 -36l-11 -38q-2 -3 -4.5 -13t-4.5 -15q-2 -6 -7.5 -17.5t-7.5 -11.5l-17 -35l-28 -44l-37 -42l-39 -43l-35 -27l-34 -26l-30 -13l-35 -19l-36 -11l-34 -11q-4 0 -14 -2t-15 -2q-4 0 -12.5 -1t-13.5 -1h-16h-16q-7 0 -19.5 1t-17.5 1l-30 6h-6
h-4q-2 0 -2 2q-94 35 -131 117q0 2 -4.5 8.5t-4.5 8.5q-3 4 -7.5 13t-4.5 14l-7 30q0 4 -2 13.5t-2 14.5q-2 4 -2 10.5v7.5v17zM139 215v-10q5 -39 18.5 -76.5t49.5 -58.5q35 -19 78 -19h9h9q17 2 30 3.5t27 5.5q4 0 15.5 4t13.5 6l34 16q2 0 11.5 6t13.5 8q30 18 52 42
t39 50q5 4 10 15t7 13l19 42q2 2 5 13.5t3 15.5q2 5 5.5 18t3.5 18l11 39l2 48v15q0 56 -16.5 106t-73.5 76q-32 15 -71 15q-59 0 -115 -34q-4 -3 -12.5 -7t-10.5 -6q-6 -2 -15.5 -9.5t-13.5 -9.5l-25 -24q-3 0 -7.5 -5t-6.5 -11q-5 -2 -9.5 -8.5t-6.5 -8.5
q-2 -3 -7.5 -10.5t-7.5 -9.5l-15 -30l-21 -47l-15 -48l-9 -58l-8 -53v-11v-21zM537 766l7 -22l-7 -8q-11 8 -15 13q-65 73 -199 170q-24 16 -24 39q0 24 24 24q32 0 45 -20q42 -53 91 -111t78 -85z" />
    <glyph glyph-name=".notdef.032" unicode="&#xf3;" horiz-adv-x="725" 
d="M17 264q0 49 18 98q0 4 5 15.5t7 14.5q2 5 4 14.5t5 11.5l26 40l31 38l41 38l68 55l47 31q2 0 11 6t14 11q37 15 74.5 23.5t75.5 8.5h16q5 0 15 -1t12 -3l33 -4q6 0 15 -3.5t15 -5.5q4 -2 13 -5.5t12 -3.5q45 -23 78 -59t46 -88q0 -4 3.5 -12t5.5 -12v-12q0 -5 1 -9.5
t1 -6.5v-3v-33l-2 -36l-11 -38q-2 -3 -4 -13t-5 -15q-2 -6 -6.5 -17.5t-8.5 -11.5l-17 -35l-28 -44l-36 -42l-40 -43l-34 -27l-35 -26l-30 -13l-35 -19l-36 -11l-34 -11q-5 0 -14 -2t-14 -2t-13.5 -1t-12.5 -1h-17h-15q-8 0 -20.5 1t-17.5 1l-30 6h-6h-4q-2 0 -2 2
q-94 35 -133 117q0 2 -3 8.5t-3 8.5q-3 4 -8 13t-5 14l-7 30q0 4 -2 13.5t-2 14.5q-2 4 -2 10.5v7.5v17zM142 215v-10q5 -39 18.5 -76.5t48.5 -58.5q36 -19 78 -19h9h10q16 2 29 3.5t27 5.5q4 0 15.5 4t11.5 6l36 16q2 0 11.5 6t14.5 8q30 18 52.5 42t37.5 50q7 4 11 15
t6 13l19 42q2 2 5 13.5t3 15.5q2 5 6 18t4 18l10 39l2 48v15q0 56 -16 106t-73 76q-33 15 -72 15q-59 0 -115 -34q-4 -3 -12 -7t-11 -6q-5 -2 -15 -9.5t-12 -9.5l-27 -24q-2 0 -7 -5t-7 -11q-4 -2 -8.5 -8.5t-7.5 -8.5q-2 -3 -7.5 -10.5t-7.5 -9.5l-15 -30l-20 -47l-16 -48
l-10 -58l-6 -53v-11v-21zM372 743l-27 -8l-9 4q2 7 6.5 15t10.5 12q56 30 135 94q53 46 119 105q27 17 39 17q28 0 28 -31q0 -29 -31 -35q-51 -27 -132.5 -79.5t-138.5 -93.5z" />
    <glyph glyph-name=".notdef.028" unicode="&#xf4;" horiz-adv-x="731" 
d="M21 264v-17v-7.5t2 -10.5q0 -5 2.5 -14.5t2.5 -13.5l7 -30q0 -5 5 -14t7 -13q0 -2 3 -8.5t3 -8.5q41 -82 133 -117q0 -2 2 -2h6h4l31 -6q4 0 17 -1t20 -1h15h17q5 0 13.5 1t13.5 1q4 0 13.5 2t13.5 2l35 11l36 11l35 19l29 13l35 26l34 27l42 43l34 42l29 44l18 35
q3 0 7.5 11.5t6.5 17.5q2 5 4 15t7 13l8 38l2 36v33v3q0 2 -1 6.5t-1 9.5v12q-2 4 -4 12t-2 12q-15 52 -47.5 88t-79.5 59q-2 0 -11.5 3.5t-13.5 5.5t-14 5.5t-14 3.5l-34 4q-3 2 -13 3t-14 1h-17q-38 0 -75 -8.5t-75 -23.5q-4 -5 -13.5 -11t-11.5 -6l-46 -31l-69 -55
l-40 -38l-32 -38l-26 -40q-2 -2 -5.5 -11.5t-5.5 -14.5q0 -3 -4.5 -14.5t-4.5 -15.5q-19 -49 -19 -98zM147 236v11l5 53l10 58l16 48l20 47l17 30q3 2 7.5 9.5t6.5 10.5q2 2 6.5 8.5t9.5 8.5q1 6 6.5 11t7.5 5l26 24q2 2 12.5 9.5t15.5 9.5q2 2 10 6t13 7q56 34 115 34
q38 0 71 -15q57 -26 73 -76t16 -106v-15l-2 -48l-8 -39q0 -5 -4.5 -18t-7.5 -18q0 -4 -3 -15.5t-5 -13.5l-19 -42q-2 -2 -6 -13t-8 -15q-18 -26 -40.5 -50t-52.5 -42q-4 -2 -14 -8t-12 -6l-35 -16q-2 -2 -12 -6t-16 -4q-14 -4 -26.5 -5.5t-28.5 -3.5h-11h-9q-44 0 -76 19
q-37 21 -51 58.5t-17 76.5v10v21zM314 764l-4 -5q17 20 24 29q27 32 36 32q23 13 80 58q101 82 112 82q18 0 49 -71t48 -120l4 -20q0 -5 -3.5 -8t-6.5 -5q-8 2 -14 6.5t-6 11.5q-6 30 -44 80t-54 50q-17 0 -90 -43q-102 -62 -131 -77z" />
    <glyph glyph-name=".notdef.030" unicode="&#xf5;" horiz-adv-x="731" 
d="M21 264q0 49 19 98q0 4 4.5 15.5t4.5 14.5q2 5 5.5 14.5t5.5 11.5l26 40l32 38l40 38l69 55l46 31q2 0 11.5 6t13.5 11q38 15 75 23.5t75 8.5h17q4 0 14 -1t13 -3l34 -4q4 0 14 -3.5t14 -5.5t13.5 -5.5t11.5 -3.5q47 -23 79.5 -59t47.5 -88q0 -4 2 -12t4 -12v-12
q0 -5 1 -9.5t1 -6.5v-3v-33l-2 -36l-8 -38q-5 -3 -7 -13t-4 -15q-2 -6 -6.5 -17.5t-7.5 -11.5l-18 -35l-29 -44l-34 -42l-42 -43l-34 -27l-35 -26l-29 -13l-35 -19l-36 -11l-35 -11q-4 0 -13.5 -2t-13.5 -2q-5 0 -13.5 -1t-13.5 -1h-17h-15q-7 0 -20 1t-17 1l-31 6h-4h-6
q-2 0 -2 2q-92 35 -133 117q0 2 -3 8.5t-3 8.5q-2 4 -7 13t-5 14l-7 30q0 4 -2.5 13.5t-2.5 14.5q-2 4 -2 10.5v7.5v17zM147 215v-10q3 -39 17 -76.5t51 -58.5q32 -19 76 -19h9h11q16 2 28.5 3.5t26.5 5.5q6 0 16 4t12 6l35 16q2 0 12 6t14 8q30 18 52.5 42t40.5 50
q4 4 8 15t6 13l19 42q2 2 5 13.5t3 15.5q3 5 7.5 18t4.5 18l8 39l2 48v15q0 56 -16 106t-73 76q-33 15 -71 15q-59 0 -115 -34q-5 -3 -13 -7t-10 -6q-5 -2 -15.5 -9.5t-12.5 -9.5l-26 -24q-2 0 -7.5 -5t-6.5 -11q-5 -2 -9.5 -8.5t-6.5 -8.5q-2 -3 -6.5 -10.5t-7.5 -9.5
l-17 -30l-20 -47l-16 -48l-10 -58l-5 -53v-11v-21zM666 863h32q-48 -120 -171 -120q-31 0 -36 3.5t-19 28.5q-15 18 -27 27q-17 17 -37 17q-29 0 -55.5 -26t-40.5 -56h-27l1 6q22 51 64 84t92 33q32 0 47 -5.5t28 -22t26.5 -31t33.5 -14.5q28 0 53.5 25t35.5 51z" />
    <glyph glyph-name="divide" unicode="&#xf7;" horiz-adv-x="1900" 
 />
    <glyph glyph-name=".notdef.022" unicode="&#xf9;" horiz-adv-x="937" 
d="M162 122v15l22 112l62 225l8 64q3 3 3 16q0 16 -5.5 31.5t-22.5 15.5q-14 0 -27.5 -8t-23.5 -14q-2 -2 -9 -7.5t-9 -7.5q-2 -4 -9 -9t-9 -7l-44 -45l-88 -114v5q0 42 20 78q5 4 10 16t7 15l18 33l31 34l35 37q2 0 9 5.5t10 7.5q26 23 59 36t68 13q48 0 66.5 -24.5
t18.5 -69.5v-15v-22l-85 -378v-23v-15q0 -19 4 -35.5t27 -16.5q12 0 23.5 7t20.5 14q6 3 14 9.5t12 8.5l11 13l36 34l51 66l212 338q0 4 11 16.5t15 18.5q19 25 33 39q18 16 38 25.5t42 9.5q24 0 33.5 -13t9.5 -38v-7l-4 -34l-109 -430l-8 -31v-5q0 -11 5 -21t16 -10
q19 0 26 11l123 118l2 2v-2l-11 -43l-4.5 -9t-5.5 -9q0 -1 -3 -7l-5 -10q-38 -66 -103 -105q-17 -11 -33.5 -18.5t-35.5 -7.5q-41 0 -61.5 29t-20.5 67v9l12 73l94 370v6v4l-2 -4q-1 0 -1 -2l-207 -334l-49 -68l-62 -70l-20 -20q-25 -23 -64 -41.5t-77 -18.5
q-53 0 -76.5 32.5t-23.5 80.5v9zM593 766l10 -22l-10 -8q-12 8 -14 13q-65 73 -200 170q-24 16 -24 39q0 24 24 24q35 0 47 -20q41 -53 89 -111t78 -85z" />
    <glyph glyph-name=".notdef.021" unicode="&#xfa;" horiz-adv-x="939" 
d="M162 122v15l22 112l62 225l8 64q3 3 3 16q0 16 -5.5 31.5t-22.5 15.5q-14 0 -27.5 -8t-23.5 -14q-2 -2 -9 -7.5t-9 -7.5q-2 -4 -9 -9t-9 -7l-44 -45l-88 -114v5q0 42 20 78q5 4 10 16t7 15l18 33l31 34l35 37q2 0 9 5.5t10 7.5q26 23 59 36t68 13q48 0 66.5 -24.5
t18.5 -69.5v-15v-22l-85 -378v-23v-15q0 -19 4 -35.5t27 -16.5q12 0 23.5 7t20.5 14q6 3 14 9.5t12 8.5l11 13l36 34l51 66l212 338q0 4 11 16.5t15 18.5q19 25 33 39q18 16 38 25.5t42 9.5q24 0 33.5 -13t9.5 -38v-7l-4 -34l-109 -430l-8 -31v-5q0 -11 5 -21t16 -10
q19 0 26 11l123 118l2 2v-2l-11 -43l-4.5 -9t-5.5 -9q0 -1 -3 -7l-5 -10q-38 -66 -103 -105q-17 -11 -33.5 -18.5t-35.5 -7.5q-41 0 -61.5 29t-20.5 67v9l12 73l94 370v6v4l-2 -4q-1 0 -1 -2l-207 -334l-49 -68l-62 -70l-20 -20q-25 -23 -64 -41.5t-77 -18.5
q-53 0 -76.5 32.5t-23.5 80.5v9zM542 743l-26 -8l-9 4q2 7 7 15t13 12q54 30 133 94q54 46 118 105q27 17 42 17q26 0 26 -31q0 -29 -30 -35q-53 -27 -134 -79.5t-140 -93.5z" />
    <glyph glyph-name=".notdef.004" unicode="&#xfd;" horiz-adv-x="883" 
d="M111 -298q0 49 27.5 89t66.5 65q4 5 13 8t9 5l46 26l238 82l61 282l-42 -73l-34 -47q0 -2 -10 -12.5t-14 -15.5q-47 -53 -105.5 -82t-130.5 -29q-89 0 -114 88q0 3 -3 9t-3 10q0 2 -1.5 4t-1.5 7v9v39l5 41l80 311q7 16 7 40q0 12 -3.5 27.5t-21.5 15.5q-14 0 -32 -16
q-1 -2 -3.5 -3t-5.5 -3q-4 -2 -6 -7l-105 -103l-7 -7h-4v7q0 14 9 27q2 7 4 12t5 5q0 2 10 17q4 6 4 9l28 38l45 41q0 2 6.5 8t10.5 8q19 18 42.5 27.5t51.5 9.5q44 0 65.5 -25.5t21.5 -70.5v-11q-3 -4 -3 -14.5v-13.5l-93 -399q-2 -10 -2 -30v-11q5 -31 20 -40q7 -5 22 -5
q49 0 91 24.5t74 61.5q4 5 14 17t12 15l41 58l66 116l36 86l48 160q0 3 4 6l4 6q30 66 105 66q11 0 31 -2t37.5 -8.5t31 -16.5t13.5 -26v-5q0 -6 -4 -6h-4q-13 0 -21.5 2t-17.5 2h-13q-40 -6 -60 -49q-3 -4 -8 -17t-5 -19q-2 -4 -5 -13t-3 -13l-101 -461h2l2 2l54 31l51 39
l101 87l1 2q0 -10 -3 -27q-11 -32 -31 -58.5t-46 -52.5l-13 -6.5t-11 -8.5l-42 -28l-81 -50l-37 -98l-33 -65l-41 -68l-36 -49l-34 -33q-4 -2 -15.5 -13t-16.5 -15q-29 -25 -66 -36t-73 -11q-59 0 -105 29.5t-46 95.5zM160 -298q0 -46 33.5 -61t70.5 -15q53 0 90.5 26
t63.5 69q5 6 13 21.5t11 17.5q0 7 6.5 24.5t9.5 21.5l38 114l-202 -70l-37 -19q-3 -2 -13.5 -7.5t-14.5 -7.5q-28 -21 -48.5 -51.5t-20.5 -62.5zM483 743l-28 -8l-9 4q2 7 7 15t12 12q56 30 136 94q52 46 117 105q25 17 41 17q28 0 28 -31q0 -29 -33 -35q-49 -27 -132 -79.5
t-139 -93.5z" />
    <glyph glyph-name=".notdef.118" unicode="&#x102;" 
d="M23 162q3 22 16.5 41t40.5 19q25 0 37 -17t12 -34q0 -32 -31 -32h-12q-4 0 -7.5 1.5t-8.5 -1.5v-8t3 -6v2q27 -47 87 -62.5t106 -15.5q47 0 93.5 9.5t86.5 27.5q32 17 62.5 40.5t63.5 55.5q7 6 22 24t15 23l52 67v-2q47 82 86.5 163t77.5 165q-4 -2 -12 -2h-13
q-39 -11 -84 -25t-82 -33h3q-3 -2 -15 -2q-27 0 -27 29q0 6 5 13t9 12q9 4 21.5 9t30.5 11l49 20v-2l23 9q4 2 11.5 3t12.5 3q13 4 17 6q20 6 43.5 10.5t46.5 7.5q8 17 20 34t24 36q18 28 35.5 60.5t32.5 54.5l63 87l72 89l56 59l68 56l60 36q-2 2 -2 3.5t-4 3.5
q-3 4 -4.5 4t-3.5 3h2q-7 2 -14 9t-13 9v-2q-84 60 -182 84q-73 16 -151 16q-4 0 -13.5 -1t-15.5 -1h-20q-8 -2 -18.5 -3t-17.5 -4q-19 -3 -33 -3l-18 -4q-11 0 -15 -2q-13 -6 -18 -6q-66 -20 -140.5 -55t-128.5 -76q-9 -6 -23 -17t-18 -16l-26 -25q-8 -7 -14.5 -15.5
t-11.5 -12.5t-23.5 -25.5t-22.5 -28.5q-57 -75 -80 -140q-24 -58 -39.5 -124t-15.5 -134v-26q9 -64 27 -131q11 -39 30 -80t45 -74q2 -4 12.5 -22t14.5 -22q2 -2 2 -12q0 -21 -22 -21q-12 0 -20 7l6 5q-12 11 -13.5 12t1.5 -3v-2q-3 2 -4 6t-3 8t-6 9v-3q-4 3 -6 6t-6 11
q-5 5 -5 12q-2 2 -7 11q-3 3 -3 4t-2 3l-32 70l-28 73l-16 73l-14 89q0 1 -1 2t-1 5v81l11 81q3 3 7 28q2 9 4 19.5t4 14.5q29 104 88.5 189t133.5 145q52 38 110.5 67t121.5 54q0 -2 8 0t13 4q10 2 21 7q9 4 15.5 5t10.5 4q10 2 21.5 3.5t22.5 5.5q11 2 23 5t23 8
q14 2 27 4t23.5 2t19.5 2h97l78 -6q7 0 21 -2.5t24 -8.5q6 -2 13 -2q66 -18 134.5 -50t124.5 -72q2 2 6.5 3t8.5 3q8 4 22 13t12 7l37.5 12.5t37.5 14.5l87 20q20 0 20 -20q0 -5 -2.5 -10t-10.5 -9l-50 -18q-6 -4 -15.5 -6t-17.5 -6q-13 -7 -30.5 -13t-29.5 -10l-2 -2
q-8 -7 -17 -10.5t-13 -5.5q8 -6 22.5 -21t21.5 -25q5 -7 16.5 -20t15.5 -17q53 -77 78 -159.5t25 -184.5l-7 -105q9 -4 16.5 -4t16.5 -2t15 -4.5t16 -4.5q11 -4 20 -10t9 -18q0 -28 -35 -28l-68 18q-8 -46 -18 -89.5t-17 -87.5q-10 -47 -17 -91.5t-18 -88.5l-13 -103v-58
q0 -4 5.5 -18.5t13.5 -21.5q34 22 62 70t47 87q4 16 13 16q21 0 21 -28q-3 -23 -17 -43l-2 -4q0 -2 -1 -3t-1 -3q-4 -8 -4 -11q-7 -17 -22 -40.5t-35 -42.5t-40.5 -33.5t-44.5 -14.5q-32 0 -49 14.5t-25.5 34.5t-12 46t-3.5 45v32q0 4 1.5 9t1.5 9q6 24 6 29q9 42 18 89.5
t19 93.5q12 57 23.5 112t22.5 108q-9 2 -21.5 2h-20.5h-20q-46 0 -94.5 -9t-94.5 -22h-2q-1 0 -2 -1.5t-3 -1.5q-2 -3 -13 -3q-5 0 -9 -3l-9 -9l22 -38t11 -42q0 -43 -25.5 -82t-70.5 -39q-41 0 -63.5 30t-22.5 64q0 39 9.5 61.5t33.5 49.5l-3 2q-33 14 -68 22.5t-70 14.5
q-2 0 -6 1t-8 1q-8 0 -12 2q-34 -66 -68 -135.5t-64 -130.5l-65 -100l-53 -63l-37 -41q-78 -74 -166 -117t-200 -43q-37 0 -80 6q-28 9 -56 19t-52.5 26.5t-38.5 41.5t-14 59v10zM1098 481q0 -16 6.5 -30.5t22.5 -14.5t25.5 22.5t9.5 41.5q0 30 -26 44q-12 -10 -25 -30
t-13 -33zM945 684q0 -2 3 -2h6h9q34 -5 67.5 -14t70.5 -28q3 0 7 -2q5 -1 7.5 -2.5t6.5 -3.5l9 -4q8 -6 10 -6q14 8 36 18t40 14q2 0 3 1t3 1q12 5 28.5 9t20.5 6l82 15h8q11 2 26 3.5t21 1.5h11h16.5t24.5 -3h16t13 3q0 13 1.5 25t3.5 23q4 13 4 26.5t2 26.5v20
q0 26 -3 58.5t-8 60.5q-17 61 -62 126t-93 110q-63 -38 -126.5 -97.5t-107.5 -126.5q-9 -8 -24 -30.5t-25 -36.5q-4 -4 -4 -6l-100 -186h-3zM1617 1556q7 4 13.5 5.5t13.5 3.5q5 0 13 -6q-3 -6 1 -8l-12 -23q-108 -105 -208 -105q-102 0 -154 105l-3 14q8 29 25 29
q8 -2 14 -5t10 -10q30 -82 117 -82q38 0 89 23.5t81 58.5z" />
    <glyph glyph-name=".notdef.055" unicode="&#x103;" horiz-adv-x="868" 
d="M26 205v19q0 3 1 12t1 11q0 5 4 19q3 7 3 15l14 48l16 45l26 44l36 51l35 42l36 37l48 35l39 28l46 21l45 20q2 0 12.5 3.5t14.5 5.5q36 6 69 6q80 0 135 -51q7 -7 15 -18t15 -21h1l18 61q5 12 13 12h92q6 0 6 -10v-3l-145 -515q-2 -6 -2 -19q0 -41 36 -41q21 0 38.5 11
t30.5 23q0 2 6 7q2 2 6 4l24 30l80 112v-2q2 0 2 -3.5v-7.5v-9q0 -24 -2 -35q-3 -34 -19.5 -60.5t-40.5 -51.5q-27 -29 -62 -50.5t-79 -21.5q-31 0 -58.5 14.5t-47.5 35.5q-2 2 -8 9.5t-8 9.5q0 3 -3.5 7t-5.5 4v3l-42 -33q-5 0 -14 -4.5t-12 -6.5q-91 -47 -196 -47h-21
q-40 2 -77.5 15t-66.5 41q-48 55 -54 132v17zM152 247q0 -53 22 -110t83 -77q12 -4 21 -4h20q60 0 112 26.5t93 71.5q0 2 2 4q0 2 1 2t1 2q4 4 8.5 11t6.5 7q6 4 10 13.5t6 11.5l20 42l21 51l19 68l7 42q2 2 2 16.5v19.5v9q0 67 -33 115t-105 48q-30 0 -66 -7q-2 -2 -4 -2
t-2 -1t-3 -1h-2q-92 -33 -146 -102q-1 -7 -8 -16t-9 -11l-24 -40l-25 -51l-14 -47q0 -2 -4 -14.5t-4 -17.5q-2 -3 -3 -14t-1 -17q-2 -6 -2 -11v-17zM696 868q9 4 15 5.5t12 3.5q8 0 14 -6q-2 -6 1 -8l-12 -23q-107 -105 -207 -105q-101 0 -156 105l-3 14q6 29 25 29
q7 -1 13.5 -4.5t10.5 -10.5q32 -82 119 -82q35 0 86.5 23.5t81.5 58.5z" />
    <glyph glyph-name="Ccaron" unicode="&#x10c;" horiz-adv-x="1420" 
 />
    <glyph glyph-name="ccaron" unicode="&#x10d;" horiz-adv-x="1027" 
 />
    <glyph glyph-name="Dslash" unicode="&#x110;" horiz-adv-x="1371" 
d="M667 754q2 9 11.5 21t25.5 12h147q3 11 7 24.5t6 26.5l32 105l37 87q0 3 5 11.5t10.5 19t9 19t3.5 6.5q22 34 45 65.5t46 53.5q4 9 13 16t16 14q5 5 8 10t7 9q-2 2 -6 5t-9 7t-7 4q-55 34 -116.5 49.5t-124.5 15.5h-16q-5 0 -13 -1t-17 -1q-22 0 -24 -2l-79 -10
q-28 -6 -58.5 -16t-59.5 -16q-2 0 -12 -3t-20 -8l-27 -8l-24 -14q-82 -37 -150.5 -93.5t-121.5 -135.5q-4 -4 -10.5 -16t-14.5 -24q-4 -4 -6 -11.5t-4 -10.5q-5 -11 -15.5 -32l-12.5 -25l-26 -70q-6 -19 -12.5 -43.5t-11.5 -42.5q0 -5 -3.5 -25.5t-6.5 -33.5v-17.5t-2 -16.5
q0 -7 -1 -17t-1 -14q0 -43 7 -87.5t25 -82.5q19 -33 47.5 -59.5t63.5 -46.5q4 -2 7.5 -3t7.5 -3q10 -4 18.5 -8t20.5 -7q2 0 6 -2q9 -4 16 -4q8 -3 16 -5.5t15 -2.5q8 -2 18 -6.5t10 -16.5q0 -17 -26 -17q-89 12 -153.5 52.5t-109.5 116.5q-22 39 -31.5 85t-15.5 95v73l6 66
q3 2 4 11t4 20q3 6 3 19q2 4 5 20t3 21q2 8 4.5 19.5t6.5 20.5q0 2 1.5 3t1.5 4t3 5q7 15 15 29.5t15 30.5l35 62l38 54l44 49l51 48l59 44l45 27l95 52l89 32l96 30l85 15q6 2 29 4t32 2h63q7 0 29 -2t33 -4q20 -2 44 -7.5t45 -13.5q35 -14 70 -32.5t61 -38.5q14 8 29.5 17
t26.5 18l8 5q14 4 23.5 8.5t15.5 8.5h-2q8 10 24 10q8 0 12.5 -7t4.5 -14q0 -4 -1 -8t-8 -6q-6 -4 -27 -14t-24 -14q-4 -4 -22 -14.5t-27 -22.5q16 -16 34 -38.5t32 -41.5q10 -14 21 -38.5t22 -47.5q3 -4 7.5 -20t8.5 -27q0 -2 1 -3.5t1 -4.5q0 -2 3 -5q5 -11 11 -36.5
t6 -30.5l6.5 -39t7.5 -39l5 -73v-81l-7 -91q0 -6 -4.5 -35.5t-7.5 -42.5q-2 -10 -7 -32.5t-10 -35.5q-3 -5 -3 -9q-2 -11 -10 -40t-13 -39l-12 -26q-12 -22 -14 -28q-31 -65 -80.5 -127.5t-109 -108.5t-129 -73.5t-146.5 -27.5q-48 0 -95.5 11t-90.5 27q-6 0 -21.5 6
t-23.5 11q-20 -10 -45.5 -20t-45.5 -18l-62 -17h3q-3 -5 -11 -6t-17 -3q-4 -2 -9 -2h-7q-19 -4 -35 -4h-33q-45 0 -96 10q-40 13 -79 41.5t-39 77.5q0 19 8 33t21 26q30 27 76 34t81 7h21q4 0 15 -1t18 -1h9l65 -16q12 -2 22.5 -4t22.5 -4l57 -25l81 -39q10 11 25.5 20.5
t27.5 20.5q2 2 13 13.5t18 15.5q21 27 41 52.5t33 44.5q0 -3 7 16.5t12 29.5q5 18 12.5 33.5t12.5 30.5q6 25 13.5 47t12.5 48q10 51 19 104.5t17 106.5h-148q-30 0 -26 32zM682 94l13 -6l27 -6q35 -9 85 -9q59 0 112.5 19t103.5 55q4 3 15.5 12.5t13.5 11.5q59 56 103 112
v-2q-5 -8 7 12t16 32l47 89q1 2 7 19.5t10 31.5q2 4 2 9q4 11 12 36.5t8 28.5l17 113l8 102v31q0 7 -1.5 18.5t-1.5 19.5v10l-8 75q-4 18 -7 39t-7 40q0 5 -8 26.5t-12 29.5q-16 49 -46.5 96t-68.5 86q-5 -4 -9.5 -10.5t-6.5 -11.5q-74 -74 -110 -173q-4 -11 -13.5 -34
t-11.5 -31q-5 -17 -11 -37t-10 -38q-5 -26 -9.5 -52t-8.5 -51h153q12 0 15.5 -12t0.5 -21q-4 -32 -37 -32h-140q-10 -55 -20.5 -110.5t-18.5 -108.5l-24 -70q-2 -6 -10.5 -25t-12.5 -28v2q-18 -42 -51 -86t-61 -74q-8 -7 -22 -20.5t-18 -17.5q-20 -15 -38 -31t-37 -31
q4 -6 10 -6zM133 127q0 -14 11 -24q27 -30 71 -40t83 -10q42 0 77 7.5t71 21.5l33 11t21 10q0 2 -26 15t-38 17q-5 4 -11.5 5.5t-14.5 6.5q-13 3 -18 5l-10 4h3q-31 6 -59 13t-57 7q-47 0 -87 -10q-16 -4 -32.5 -11.5t-16.5 -27.5z" />
    <glyph glyph-name="dcroat" unicode="&#x111;" horiz-adv-x="854" 
d="M4 203q0 61 21.5 119t56 111.5t80 98.5t95.5 77q34 19 75.5 33t83.5 14q35 0 74.5 -9.5t63.5 -35.5q4 -4 12.5 -14t14.5 -14l2 2l283 1187q0 4 2 22.5t2 29.5q0 2 2 10t2 12v3q0 11 -4 31t-19 20q-11 0 -26 -19t-25 -32q-11 -12 -18.5 -27.5t-16.5 -34.5q-2 -11 -23 -11
q-20 0 -20 26q0 4 -2 5t2 3q25 59 66.5 104.5t109.5 45.5h16q51 -8 71 -60v-6v-4q0 -2 2 -2v-11v-45l-9 -66l-367 -1612q-2 -10 -2 -19.5v-23.5q0 -11 3.5 -23.5t17.5 -12.5q16 0 37 16t32 31l90 123q3 2 6 4.5t5 4.5v-2v-16q0 -18 -2 -36t-11 -34q-33 -66 -82 -111
t-124 -45q-40 0 -63.5 24t-25.5 64q-59 -49 -132 -73.5t-145 -24.5h-31q-81 6 -130.5 64t-49.5 139zM135 242q0 -24 4.5 -53t17 -52.5t30.5 -41.5t46 -25q12 -5 19 -6.5t19 -1.5q79 0 146.5 46t95.5 121q5 11 13 31.5t10 24.5l22 89l12 67v17v26t-4 25q-10 51 -50 81t-91 30
q-89 0 -155.5 -58.5t-98.5 -136.5q-17 -47 -26.5 -91.5t-9.5 -91.5zM381 896q2 11 12.5 25.5t24.5 14.5h485q15 0 17.5 -14.5t-0.5 -25.5q-2 -18 -13.5 -33t-29.5 -15h-471q-13 0 -20.5 15t-4.5 33z" />
    <glyph glyph-name=".notdef.101" unicode="&#x128;" horiz-adv-x="1172" 
d="M6 300q0 92 55 170t127 122q64 40 141 58.5t156 18.5h49h7q-2 10 -2 20v17v16q0 65 21 128.5t49 114.5q5 13 12 26.5t11 18.5v-2q2 4 2 6.5t3 4.5q0 4 1 6l55 65q4 6 11.5 13.5t13.5 16.5l14 14t12 16l71 60q2 4 6 7q9 4 13 8q-4 -2 4.5 3t12.5 10q11 2 19 10
q26 16 50.5 29.5t64.5 29.5q7 0 38 12q6 2 12 3.5t10 4.5q5 0 15 4q4 2 6.5 2t7.5 2q67 14 136 14h28q43 -5 88 -15.5t70 -42.5q25 -25 25 -63q0 -25 -17 -46.5t-42 -21.5h-26q-1 0 -2 1t-3 1q-59 0 -94.5 -25.5t-62.5 -84.5q0 -2 -1 -3t-1 -4q-5 -7 -5 -10q-2 -2 -2 -5
q-3 -1 -3 -11q0 -2 -1 -5.5t-1 -5.5q-10 -16 -10 -21q-2 -9 -3.5 -19.5t-3.5 -22.5q-2 -10 -3 -19l-2 -18q-5 -44 -11.5 -86.5t-11.5 -86.5q-4 -47 -10.5 -89.5t-10.5 -85.5l-16 -73l-24 -84q-6 -6 -6 -11l-3 -5q-7 -17 -7 -23q-5 -6 -12 -20.5t-11 -18.5q-5 -12 -15.5 -28
t-12.5 -22q-4 -4 -10 -11t-12 -12q-13 -12 -17 -19l-52 -59l-49 -37q-13 -10 -22.5 -18t-24.5 -19l-67 -40l-66 -20q-2 0 -6 -3q-9 -5 -15 -5q-8 -4 -16 -5t-12 -4q-77 -23 -160 -23q-59 0 -118 11.5t-113 33.5q-45 13 -84.5 37.5t-68.5 56.5t-48.5 72.5t-19.5 88.5zM49 300
q0 -71 46.5 -121t102.5 -81q9 -2 25.5 -8t21.5 -10h-3q7 -3 14.5 -5t16.5 -5l35 -8q5 -2 23.5 -6.5t26.5 -4.5q24 -2 52.5 -4t54.5 -2q69 0 138.5 17.5t137.5 53.5q102 76 171 182v-2q5 7 13 26.5t10 23.5t5 15t8 21q0 3 2 7.5t2 7.5l19 75q7 46 14 95t16 96q7 49 15.5 98
t16.5 95l17 81q0 2 2 6q0 5 4 14q6 6 9.5 17t3.5 13q17 32 34 63t33 51q34 44 85 71t110 27h29q8 0 8 2q-2 0 -2 2v14q-6 9 -16 22t-21 17q-36 14 -81 18h-74q-9 -2 -20 -2t-18 -2q-12 -2 -21 -3t-19 -1q-8 -2 -17.5 -6t-18.5 -6q-12 -2 -19.5 -3t-15.5 -3q-10 0 -26 -6
q-19 -4 -26 -7q-5 0 -7.5 -1t-4.5 -1h2q-4 -5 -16 -8.5t-16 -3.5q-2 0 -7 -2t-16 -9l2 -5q-2 -2 -7 -4q-9 -4 -13 -4h-7v-2q-7 -2 -24.5 -12.5t-20.5 -15.5q-11 -5 -26.5 -17t-19.5 -17l-48 -47v2q-3 -4 -5 -10.5t-4 -8.5q-2 -3 -3 -5t-4 -4q-10 -15 -14 -19q-4 -3 -6 -8
q-56 -68 -90.5 -145.5t-34.5 -165.5v-25q0 -4 1 -5t1 -6v-25l67 -15l73 -24l77 -30l83 -42v-14q0 -21 -31 -21q-5 0 -9 5q-4 0 -4 6l-1 2q-13 6 -26.5 13t-17.5 9q-11 4 -35 16.5t-30 14.5q-11 2 -19 3t-19 5q-7 3 -17.5 6t-16.5 8q-19 0 -31 4q-6 2 -13.5 3t-11.5 4
q0 -3 1 -3t1 -2v-4q21 -55 60 -95.5t82 -70.5q7 -8 7 -21q0 -12 -6.5 -15.5t-12.5 -3.5h-15q0 2 -12 15q-52 37 -97 91.5t-72 116.5q-3 0 -6 2t-7 2h-43q-94 0 -192 -28q-2 0 -4 -3q-14 -8 -30.5 -16.5t-38.5 -24.5q-68 -41 -118.5 -109.5t-50.5 -144.5zM1417 1549h31
q-48 -118 -174 -118q-29 0 -34 3t-18 28q-15 17 -27 27q-19 17 -38 17q-28 0 -55.5 -26t-40.5 -56h-27l1 7q20 49 62.5 82t93.5 33q33 0 46.5 -5t26.5 -22t28 -31t34 -14q27 0 53.5 24t37.5 51z" />
    <glyph glyph-name=".notdef.035" unicode="&#x129;" horiz-adv-x="397" 
d="M70 116q0 9 2.5 23.5t2.5 18.5l87 336q7 17 7 33.5v34.5v13q0 6 -1.5 16t-9.5 10q-4 0 -7.5 -3t-8.5 -6q-3 -3 -4 -3t-3 -2l-4 -4l-103 -96q-2 0 -4.5 -3t-4.5 -6l-9 -2q0 -2 -4 -2v4q4 7 13 25.5t13 24.5q3 4 13.5 23t14.5 24q0 4 11 18t15 18l12 11q24 21 47.5 41.5
t55.5 20.5q39 0 60.5 -31t21.5 -66v-4l-12 -80l-93 -329q-4 -14 -5.5 -26.5t-1.5 -25.5q0 -17 4.5 -38.5t27.5 -21.5q15 0 29 9t22 20q5 5 14 13.5t9 13.5l95 122l8 7v-2v-14q0 -47 -19 -85.5t-50 -72.5q-30 -30 -67 -51.5t-84 -21.5q-53 0 -71.5 25.5t-18.5 77.5v13z
M414 863h31q-48 -120 -174 -120q-27 0 -32.5 3.5t-19.5 28.5q-15 18 -27 27q-18 17 -38 17q-27 0 -55 -26t-42 -56h-26l1 6q20 51 63 84t92 33q34 0 47.5 -5.5t26.5 -22t28 -31t34 -14.5q27 0 53.5 25t37.5 51z" />
    <glyph glyph-name=".notdef.085" unicode="&#x168;" horiz-adv-x="1737" 
d="M522 233l8 61l14 78l43 128l127 305l27 95q1 6 7 30t9 35q2 11 5 42.5t3 46.5l2 8v28q0 133 -104 191q-29 14 -68 25t-69 11q-64 0 -120 -26q-54 -19 -100.5 -60t-83.5 -88q-68 -87 -105 -191.5t-37 -212.5q0 -87 28.5 -179.5t79.5 -162.5q19 -23 45 -44.5t48 -35.5h-4
l14 -6q9 -5 22.5 -11t24.5 -11q10 0 24 -4q12 -4 24.5 -11.5t12.5 -24.5q0 -7 -6 -17t-21 -10q-125 24 -206.5 113.5t-116.5 200.5q-9 51 -15 101.5t-6 103.5v31l9 79q0 5 4 32t8 40q21 76 65 156.5t107.5 146t140.5 107.5t164 42q44 0 82 -12t78 -30q24 -12 41 -25t30 -25
q53 -43 68.5 -105.5t15.5 -129.5v-18l-7 -82q0 -5 -0.5 -26.5t-6.5 -34.5q-4 -15 -12 -41.5t-13 -33.5h5q-26 -68 -55.5 -138.5t-56.5 -141.5q-28 -74 -55 -138l-14 -48q-6 -10 -8 -22.5t-7 -25.5q0 -4 -2 -14.5t-4 -19.5q-4 -18 -4 -28q0 -5 -1.5 -7t-1.5 -7q-3 -11 -3 -19
v-11q0 -26 8 -45q13 -44 57 -66.5t87 -22.5q47 0 93.5 26.5t85.5 59.5l17 16q5 6 17.5 19t19.5 17q7 11 15 21t17 21l33 39q11 19 26 42t25 35v-2q37 71 78 151q25 59 52.5 127.5t56.5 134.5q28 68 55.5 134t55.5 134l48 96q0 9 8 14q11 12 20 27q46 63 116 106q26 17 58 17
q31 0 50 -13.5t19 -46.5q0 -32 -21 -51.5t-44 -38.5q-9 -5 -14 -10.5t-15 -17.5q-11 -11 -22 -26t-19 -29l-15 -21v2q2 4 -3 -6l-9 -18q-6 -12 -11 -18.5t-6 -11.5q-12 -24 -18 -44q-4 -10 -7 -20.5t-8 -19.5q-6 -16 -11.5 -32.5t-10.5 -30.5q-4 -17 -8.5 -34t-9.5 -30
q-11 -43 -19.5 -90.5t-18.5 -93.5q-12 -60 -26 -121t-24 -119q-2 -14 -4.5 -34t-6.5 -37q-2 -19 -3 -36.5t-3 -37.5v-49q0 -16 10.5 -39t29.5 -23q24 0 45.5 19.5t33.5 36.5q7 6 11 14t13 12q2 4 8.5 17.5t8.5 19.5q4 9 14 31q2 6 5 13q7 12 13 24q5 4 20 4q31 0 31 -30
q-2 0 -2 -3v-7q-2 -2 -12 -24t-20 -37q-2 -2 -2 -4q-26 -51 -71 -99t-109 -48q-34 0 -55 12.5t-34 36t-17.5 50t-4.5 54.5v13l14 128l104 436l55 164l41 88q4 12 14 28.5t14 20.5q2 5 6.5 16.5t9.5 15.5q12 22 18 26q11 15 22.5 28t28.5 26q2 0 6.5 5t4.5 7l7 3q8 4 15 12
q7 9 13.5 16t6.5 12q0 2 -8 2q-11 0 -21.5 -6t-19.5 -12q-19 -18 -40 -36.5t-35 -37.5q-8 -5 -17.5 -20t-9.5 -17l-98 -194q-24 -53 -48 -113l-48 -120q-26 -59 -50 -119t-43 -114l-78 -140l-58 -84l-49 -66l-49 -47q-47 -47 -106 -78t-132 -31q-36 0 -70.5 13t-64.5 34
q-41 28 -63 76t-22 101v9zM1408 1549h32q-49 -118 -173 -118q-29 0 -34.5 3t-18.5 28q-15 17 -27 27q-19 17 -38 17q-28 0 -55.5 -26t-41.5 -56h-25l1 7q20 49 62.5 82t92.5 33q34 0 47.5 -5t26.5 -22t27.5 -31t34.5 -14q26 0 53 24t36 51z" />
    </font>
</defs>
</svg>
